<svg xmlns="http://www.w3.org/2000/svg" width="1640" height="1025" viewBox="0 0 1640 1025">
  <g id="Group_64" data-name="Group 64" transform="translate(0 -0.485)" style="isolation: isolate">
    <rect id="Rectangle_30" data-name="Rectangle 30" width="820" height="1025" transform="translate(0 0.485)" fill="#fff"/>
    <g id="Group_57" data-name="Group 57" transform="translate(110.683 91.843)">
      <path id="Path_150" data-name="Path 150" d="M-478.888,226.976a18.6,18.6,0,0,1-12.166,8.286c-1.682.315-3.691.277-4.766-1.054a6.058,6.058,0,0,1-.938-3.189,32.111,32.111,0,0,0-9.12-18.806,62.127,62.127,0,0,0-6.9-5.69c-11.239-8.381-23.153-16.82-36.975-19.168-3.274-.556-6.719-.794-9.584-2.471-1.191-.7-2.356-1.951-2-3.286.274-1.04,1.346-1.63,2.325-2.076,10.578-4.812,22.25-6.588,33.323-10.116,10.857-3.46,21.1-8.6,31.84-12.413s22.318-6.314,33.518-4.218c-14.48,13.023-22.262,30.665-18.138,49.7" transform="translate(899.231 -128.251)" stroke="#000" stroke-miterlimit="10" stroke-width="0.489"/>
      <path id="Path_151" data-name="Path 151" d="M-587.391,419.233a11.773,11.773,0,0,1,2.716-12.6c10.9-9.219,25.157-10.053,38.131-9.574,11.678.5,28.575,3.518,33.585-10.163,10.019-27.364,11.593-55.914,7.681-84.536" transform="translate(905.671 -164.421)" fill="none" stroke="#000" stroke-miterlimit="10" stroke-width="0.489"/>
      <path id="Path_152" data-name="Path 152" d="M-499.363,275.043c1.115-12.485-6.114-24.017-13.048-34.46a64.429,64.429,0,0,0-7.669-10.053c-4.992-5.017-11.457-8.231-17.671-11.619q-7.811-4.26-15.318-9.051c-3.231-2.063-6.505-4.284-8.616-7.485a11.036,11.036,0,0,1-.119-11.4" transform="translate(899.696 -137.623)" fill="none" stroke="#000" stroke-miterlimit="10" stroke-width="0.489"/>
      <path id="Path_153" data-name="Path 153" d="M-439.656,771.2c9.639-4.032,20.677-9.809,21.986-20.176.5-3.954-.592-7.917-1.682-11.751C-430.157,701.3-441.983,663.6-455.684,626.57c-17.7-47.85-38.509-94.494-56.919-142.076-.21-.543-3.058-8.815-2.56-9.115" transform="translate(888.121 -206.046)" fill="none" stroke="#000" stroke-miterlimit="10" stroke-width="0.489"/>
      <path id="Path_154" data-name="Path 154" d="M-554.169,486.648c10.964-9.742,37.969-30.746,46.113-42.944,2.511-3.76,4.9-7.688,6.092-12.049s1.051-9.261-1.289-13.129c-.187-.309-2.363-1.813-2.3-2.168" transform="translate(897.491 -191.847)" fill="none" stroke="#000" stroke-miterlimit="10" stroke-width="0.489"/>
      <path id="Path_155" data-name="Path 155" d="M-415.721,856.987c-.344,12.1,7.274,24.58,13.556,34.927l13.911,22.909a62.956,62.956,0,0,0,6.772,9.721c3.3,3.66,7.411,6.486,11.477,9.276,4.723,3.24,9.479,6.5,14.717,8.816,13.51,5.974,29.147,5.17,43.469,1.552a41.613,41.613,0,0,0,5.5-2.019c6.82-2.789,7.462-3.748,10.082-7.066,8.138-10.306,10.327-24.591,13.539-37.324,1.2-4.775,1.914-9.671,3.3-14.4,1.162-3.973,1.472-8.322,2.469-12.341.934-3.765,2.622-7.127,2.985-10.99.889-9.445,3.048-18.652,3.936-28.1" transform="translate(864.186 -291.831)" fill="none" stroke="#000" stroke-miterlimit="10" stroke-width="0.489"/>
      <path id="Path_156" data-name="Path 156" d="M-224.368,704.151c.385-3.208,1.648-5.818,1.606-9.059.764-90.787.889-180.915,2.949-271.719.269-29.181-.119-59-2.444-88.151-1.448-11.652-2.24-22.665-3.771-34.5" transform="translate(818.547 -164.029)" fill="none" stroke="#000" stroke-miterlimit="10" stroke-width="0.489"/>
      <path id="Path_157" data-name="Path 157" d="M-274.748,265.078a188.573,188.573,0,0,0-9.735-39.907c-6.41-18.33-8.26-38.736-19.447-54.608a32.777,32.777,0,0,0-9.243-9.191c-4.878-3.024-10.691-4.149-16.4-4.708-9.38-.919-18.843-.463-28.246-1.1-6.4-.431-12.755-1.367-19.14-1.982-17.127-1.651-34.384-.993-51.578-.333" transform="translate(867.268 -128.379)" fill="none" stroke="#000" stroke-miterlimit="10" stroke-width="0.489"/>
      <path id="Path_158" data-name="Path 158" d="M-355.724,526.355c3.317-18.918,4.218-36.187,1.372-55.6-4.943-31.059-12.454-60.139-17.975-90.742-.194-1.483-10.156-30.813-10.633-32.372-2.338-9.018-4.76-14.256-8.759-22.634-.665-1.288-.86-1.59-1.525-2.878-4.639-7.721-7.342-16.112-11.98-22.913-3.892-6.273-8.093-12.349-11.7-18.795-11.874-21.2-22.082-41.83-35.872-61.959-2,9.847-3.1,16.64.272,26.322,5.448,20.029,14.112,38.072,22.136,56.771,1.347,3.873,2.987,7,4.493,11.327.674,1.937,1.536,3.508,2.21,5.444a341.144,341.144,0,0,1,24.124,109.915c.851,15.55.413,31.766-3.274,47.376-9.506,16.982-32.1,25.375-49.974,23.285a10.013,10.013,0,0,0,2.216,8l19.8,22.076c3.4,3.8,6.856,7.635,11.1,10.468,5.369,3.588,11.745,5.385,18.121,6.419,8.913,1.445,18.25,1.463,26.757-1.568S-358.738,534.867-355.724,526.355Z" transform="translate(873.559 -144.237)" stroke="#000" stroke-miterlimit="10" stroke-width="0.489"/>
      <path id="Path_159" data-name="Path 159" d="M-261.307,528.536c-.6-13.734-4.926-30.271-6.54-43.923q-2.448-20.693-4.9-41.385l-27.893-235.846c-1.286-10.879-2.561-22.022-.069-32.689.872-2.373.872-2.373,2.758-2.915,16.578,16.558,22.439,40.848,25.888,64.023,4.881,32.8,6.363,66,7.839,99.122,2.872,64.5,5.746,129.108,2.912,193.614" transform="translate(836.856 -133.006)" stroke="#000" stroke-miterlimit="10" stroke-width="0.489"/>
      <path id="Path_160" data-name="Path 160" d="M-298.591,780.812l4.923-169.492c.859-29.573,1.718-59.164.933-88.739-1.334-50.2-7.4-100.144-13.46-150l-21.238-174.728c-1.062-8.732-2.07-17.9,1.206-26.066s13.148-11.636,21.586-13.587" transform="translate(843.19 -129.741)" fill="none" stroke="#000" stroke-miterlimit="10" stroke-width="0.489"/>
      <path id="Path_161" data-name="Path 161" d="M-456.959,766.6c-1.073-1.561-3.618-6.04-4.032-7.89-2.6-11.607-11.631-20.539-17.216-31.04-6.291-11.828-8.094-25.428-10.953-38.516-10.6-48.535-36.562-92.218-52.573-139.247-7.124-20.926-12.477-42.945-25.028-61.141-6.82-9.888-17.412-22.045-20.384-32.512" transform="translate(905.424 -201.446)" fill="none" stroke="#000" stroke-miterlimit="10" stroke-width="0.489"/>
      <path id="Path_162" data-name="Path 162" d="M-484.412,162.643c1.757.617,2.982,2.989,3.786,4.669a14.24,14.24,0,0,1,1.192,5.422,7.254,7.254,0,0,1-.492,3.563c-1.027,2.113-3.723,2.969-6.043,2.591a16.605,16.605,0,0,1-6.306-3.019c1.519-.433,3.343-1.23,3.411-2.808a3.437,3.437,0,0,0-.4-1.537c-.647-1.428-1.832-4.541-2.83-5.75" transform="translate(882.601 -130.809)" fill="#fff" stroke="#000" stroke-miterlimit="10" stroke-width="0.489"/>
      <path id="Path_163" data-name="Path 163" d="M-505.146,183.245a5.919,5.919,0,0,1-3.949.182,2.784,2.784,0,0,1-1.384-.835,1.374,1.374,0,0,1-.181-1.529,2.1,2.1,0,0,1,.776-.649,46.56,46.56,0,0,1,8.438-3.864c-2.754.826-5.685,1.656-8.462.908a3.125,3.125,0,0,1-1.5-.785,1.448,1.448,0,0,1-.33-1.576c.354-.719,1.3-.833,2.067-1.069a8.991,8.991,0,0,0,2.268-1.214l2.629-1.753" transform="translate(887.31 -132.834)" fill="none" stroke="#fff" stroke-miterlimit="10" stroke-width="1.466"/>
      <path id="Path_164" data-name="Path 164" d="M-440.064,817.549a25.176,25.176,0,0,0,12.547-8.112c1.136-1.418,2.141-3.294,1.466-4.981s-2.689-2.353-4.488-2.566a19.635,19.635,0,0,0-13.168,3.2c-.449.3-2.13,1.251-2.533.888" transform="translate(871.525 -284.566)" fill="none" stroke="#000" stroke-miterlimit="10" stroke-width="0.489"/>
      <path id="Path_165" data-name="Path 165" d="M-457.568,763.937c4.632-.9,9.26-2.028,12.727-5.231s4.651-9.357,1.154-12.527c-2.073-1.88-5.2-2.2-7.915-1.513a25.683,25.683,0,0,0-7.464,3.756c-.5.326-1.04.633-1.519.991" transform="translate(874.976 -270.751)" fill="none" stroke="#000" stroke-miterlimit="10" stroke-width="0.489"/>
      <path id="Path_166" data-name="Path 166" d="M-471.882,715.545c4.226-1.071,6.867-2.742,10.42-5.269,3.584-2.549,6.95-6.967,5.191-11-1.292-2.959-4.743-4.2-7.833-5.139a32.685,32.685,0,0,0-9.026-1.827c-3.081-.033-4.761-.426-6.818,1.867" transform="translate(879.635 -258.225)" fill="none" stroke="#000" stroke-miterlimit="10" stroke-width="0.489"/>
      <path id="Path_167" data-name="Path 167" d="M-495.909,655.716a64.067,64.067,0,0,0,8.161-4.448c2.946-1.895,6.053-4.717,5.63-8.195-.468-3.841-4.972-5.789-8.838-5.934a20.5,20.5,0,0,0-11.811,3.139" transform="translate(885.125 -244.959)" fill="none" stroke="#000" stroke-miterlimit="10" stroke-width="0.489"/>
      <path id="Path_168" data-name="Path 168" d="M-520.574,596.726l6.375-4.415c2.23-1.545,4.544-3.183,5.8-5.588s1.042-5.81-1.2-7.338a7.525,7.525,0,0,0-4.8-.864c-5.064.352-7.29.951-11.659,3.534" transform="translate(890.729 -230.849)" fill="none" stroke="#000" stroke-miterlimit="10" stroke-width="0.489"/>
      <path id="Path_169" data-name="Path 169" d="M-540.272,538.682a15.353,15.353,0,0,0,9.755-8.331c-.409-3.268-3.71-5.556-6.981-5.934s-5.043.2-8.161,1.267" transform="translate(895.444 -217.816)" fill="none" stroke="#000" stroke-miterlimit="10" stroke-width="0.489"/>
      <g id="Group_53" data-name="Group 53" transform="translate(3.581 203.694)">
        <path id="Path_170" data-name="Path 170" d="M-931.682,469.477a12.66,12.66,0,0,1-3.09,8.24q-3.091,3.749-9.083,3.745l14.233,43.262h-28.092l-13.11-43.262h-3.558v43.262h-27.156V388.947h51.5q9.552,0,13.952,4.776t4.4,12.829Zm-42.7-56.746v46.821h13.3q2.62,0,2.622-2.809v-41.2q0-2.809-2.622-2.81Z" transform="translate(1001.538 -388.947)"/>
        <path id="Path_171" data-name="Path 171" d="M-873.1,524.725q-11.8,0-16.481-4.869t-4.682-16.106v-114.8h27.717v109a4.282,4.282,0,0,0,.469,2.247c.31.5,1.03.749,2.153.749h9.551q1.686,0,2.154-.749a4.32,4.32,0,0,0,.468-2.247v-109h27.717v114.8q0,11.236-4.682,16.106t-16.481,4.869Z" transform="translate(975.73 -388.947)"/>
        <path id="Path_172" data-name="Path 172" d="M-786.989,388.947h25.845l13.859,54.5v-54.5h27.9V524.725h-27.9l-14.608-56.746v56.746h-25.1Z" transform="translate(949.922 -388.947)"/>
      </g>
      <g id="Group_54" data-name="Group 54" transform="translate(0 362.743)">
        <path id="Path_173" data-name="Path 173" d="M-951.567,734.159h-28.654V699.7l-26.031-101.319h28.092l12.173,64.05,12.36-64.05h28.092L-951.567,699.7Z" transform="translate(1006.253 -598.381)"/>
        <path id="Path_174" data-name="Path 174" d="M-820.917,714.869a28.316,28.316,0,0,1-.936,7.4,15.4,15.4,0,0,1-3.184,6.086,15.906,15.906,0,0,1-5.993,4.214,24.015,24.015,0,0,1-9.365,1.592h-31.463a24,24,0,0,1-9.364-1.592,15.877,15.877,0,0,1-5.993-4.214,15.359,15.359,0,0,1-3.184-6.086,28.187,28.187,0,0,1-.936-7.4V615.986q0-8.05,4.4-12.829t13.952-4.776h33.711q9.55,0,13.952,4.776t4.4,12.829Zm-40.64-92.7q-2.435,0-2.435,2.622v82.778a3.779,3.779,0,0,0,.469,2.153c.31.44,1.03.656,2.154.656h10.3c1.123,0,1.84-.216,2.154-.656a3.805,3.805,0,0,0,.468-2.153V624.788q0-2.62-2.435-2.622Z" transform="translate(978.606 -598.381)"/>
        <path id="Path_175" data-name="Path 175" d="M-762.652,734.159q-11.8,0-16.48-4.869t-4.683-16.106v-114.8H-756.1v109a4.29,4.29,0,0,0,.468,2.247q.466.751,2.154.75h9.551q1.686,0,2.154-.75a4.312,4.312,0,0,0,.469-2.247v-109h27.717v114.8q0,11.236-4.682,16.106t-16.481,4.869Z" transform="translate(952.739 -598.381)"/>
        <path id="Path_176" data-name="Path 176" d="M-606.684,678.911a12.658,12.658,0,0,1-3.09,8.241q-3.09,3.749-9.083,3.745l14.233,43.262h-28.092l-13.11-43.262h-3.558v43.262H-676.54V598.381h51.5q9.552,0,13.952,4.776t4.4,12.829Zm-42.7-56.746v46.821h13.3q2.62,0,2.622-2.809v-41.2q0-2.809-2.622-2.81Z" transform="translate(926.931 -598.381)"/>
      </g>
      <g id="Group_55" data-name="Group 55" transform="translate(6.435 520.002)">
        <path id="Path_177" data-name="Path 177" d="M-997.779,805.458h27.905v110.5h27.343l-4.682,25.283h-50.566Z" transform="translate(997.779 -805.458)"/>
        <path id="Path_178" data-name="Path 178" d="M-913.932,805.458h27.155V941.236h-27.155Z" transform="translate(977.607 -805.458)"/>
        <path id="Path_179" data-name="Path 179" d="M-836.974,877.187v64.049h-26.407V805.458h28.654l14.795,57.308,14.8-57.308H-776.3V941.236H-802.7V877.187l-17.23,54.311Z" transform="translate(965.446 -805.458)"/>
        <path id="Path_180" data-name="Path 180" d="M-733.912,805.458h27.155V941.236h-27.155Z" transform="translate(934.298 -805.458)"/>
        <path id="Path_181" data-name="Path 181" d="M-630.985,805.458l6.742,25.283h-18.166V941.236h-27.717V830.741h-18.167l7.116-25.283Z" transform="translate(923.323 -805.458)"/>
        <path id="Path_182" data-name="Path 182" d="M-587.839,941.236l-4.869-25.283h29.216q3.183,0,3.184-2.809V888.423q0-2.809-1.124-3.371a9.645,9.645,0,0,0-3.933-.562h-14.046a33.478,33.478,0,0,1-5.712-.468,10.708,10.708,0,0,1-4.869-2.154,11.058,11.058,0,0,1-3.371-4.682,21.809,21.809,0,0,1-1.217-8.054v-46.07q0-8.05,4.4-12.829t13.952-4.776h37.456l4.682,25.283H-564.8q-3.371,0-3.371,3v24.721a3.266,3.266,0,0,0,1.03,2.809,5.232,5.232,0,0,0,3.09.749h17.043q6.553,0,10.02,3.09t3.464,10.769v44.76q0,11.236-4.588,15.919t-16.2,4.682Z" transform="translate(900.778 -805.458)"/>
      </g>
      <line id="Line_30" data-name="Line 30" x2="309.043" transform="translate(5.296 690.824)" stroke="#000" stroke-miterlimit="10" stroke-width="2.443"/>
      <line id="Line_31" data-name="Line 31" y1="130.894" transform="translate(330.653 690.825)" stroke="#000" stroke-miterlimit="10" stroke-width="2.443"/>
      <line id="Line_32" data-name="Line 32" y1="130.894" transform="translate(379.236 690.825)" stroke="#000" stroke-miterlimit="10" stroke-width="2.443"/>
      <line id="Line_33" data-name="Line 33" x1="197.427" transform="translate(392.72 734.063)" stroke="#000" stroke-miterlimit="10" stroke-width="2.443"/>
      <line id="Line_34" data-name="Line 34" y2="38.933" transform="translate(545.374 741.368)" stroke="#000" stroke-miterlimit="10" stroke-width="2.443"/>
      <line id="Line_35" data-name="Line 35" x2="309.043" transform="translate(5.296 781.825)" stroke="#000" stroke-miterlimit="10" stroke-width="2.443"/>
      <text id="CORTEZ" transform="translate(5.296 763.298)" font-size="75" font-family="OdalisqueNF, Odalisque NF"><tspan x="0" y="0">CORTEZ</tspan></text>
      <text id="NIKE.COM" transform="translate(391.759 718.987)" font-size="37" font-family="OdalisqueNF, Odalisque NF"><tspan x="0" y="0">NIKE.COM</tspan></text>
      <text id="running_model" data-name="running model" transform="translate(7.157 820.097)" font-size="34" font-family="OdalisqueNF, Odalisque NF"><tspan x="0" y="0">running model</tspan></text>
      <text id="_20_20_20" data-name="20/20/20" transform="translate(363.023 821.719) rotate(-90)" font-size="30" font-family="OdalisqueNF, Odalisque NF"><tspan x="0" y="0">20/20/20</tspan></text>
      <text id="Sizes_avialble:_MAN_37_38_39_40_43_42_43_44_45_WOMAN37_38_39_40_43_42_43_44_45_KID_27_28_29_30_3_1_32_33_34" data-name="Sizes avialble: MAN 37,38,39,40,43,42,43,44,45 WOMAN37,38,39,40,43,42,43,44,45 KID 27,28,29,30,3,1,32,33,34" transform="translate(393.088 739.603)" font-size="11.575" font-family="OdalisqueNF, Odalisque NF"><tspan x="0" y="12">Sizes avialble: MAN </tspan><tspan x="0" y="25.89">37,38,39,40,43,42,43,44,45 </tspan><tspan x="0" y="39.78">WOMAN37,38,39,40,43,42,43,44,45 </tspan><tspan x="0" y="53.67">KID 27,28,29,30,3,1,32,33,34</tspan></text>
      <g id="Group_56" data-name="Group 56" transform="translate(563.245 742.035)">
        <path id="Path_183" data-name="Path 183" d="M-258.483,1146.641a.1.1,0,0,1-.095-.1v-.707h-5.04a12.83,12.83,0,0,0,.63,1.165v.034a.119.119,0,0,1-.1.095c-.017,0-.034-.018-.052-.026l-.026-.034-1.406-2.615h6v-.707a.086.086,0,0,1,.095-.095.089.089,0,0,1,.095.086v2.813A.1.1,0,0,1-258.483,1146.641Z" transform="translate(264.576 -1108.853)"/>
        <path id="Path_184" data-name="Path 184" d="M-260.89,1134.4a.113.113,0,0,1-.1.112.125.125,0,0,1-.052-.017l-2.347-1.484a3.15,3.15,0,0,0-.915,2.243,3.274,3.274,0,0,0,.458,1.631h4.841a3.265,3.265,0,0,0,.449-1.649,3.023,3.023,0,0,0-1.079-2.372.108.108,0,0,1-.034-.069.111.111,0,0,1,.1-.1.09.09,0,0,1,.069.035,3.181,3.181,0,0,1,1.131,2.572,3.158,3.158,0,0,1-3.064,3.184,3.142,3.142,0,0,1-3.056-3.245,3.294,3.294,0,0,1,.933-2.33l-.9-.57a.1.1,0,0,1-.043-.078.089.089,0,0,1,.087-.095.125.125,0,0,1,.052.018l3.4,2.123A.118.118,0,0,1-260.89,1134.4Z" transform="translate(264.557 -1106.091)"/>
        <path id="Path_185" data-name="Path 185" d="M-258.367,1126.825a2.994,2.994,0,0,1-3.063,2.934,3,3,0,0,1-3.056-2.934,2.993,2.993,0,0,1,3.056-2.942A3,3,0,0,1-258.367,1126.825Zm-5.929.008a2.588,2.588,0,0,0,.38,1.355h4.979a2.707,2.707,0,0,0,.38-1.364,2.827,2.827,0,0,0-2.823-2.753A2.811,2.811,0,0,0-264.3,1126.833Z" transform="translate(264.554 -1104.098)"/>
        <path id="Path_186" data-name="Path 186" d="M-258.367,1121.7a.1.1,0,0,1-.095.095.1.1,0,0,1-.095-.1v-.682H-264.3v.674a.086.086,0,0,1-.094.095.087.087,0,0,1-.087-.087v-2.839a.087.087,0,0,1,.087-.087.086.086,0,0,1,.094.095v.742h5.748v-2.485h-.941a.1.1,0,0,1-.1-.094.1.1,0,0,1,.095-.1h1.139Z" transform="translate(264.554 -1102.424)"/>
        <path id="Path_187" data-name="Path 187" d="M-258.367,1111.584a2.994,2.994,0,0,1-3.063,2.935,3,3,0,0,1-3.056-2.935,2.994,2.994,0,0,1,3.056-2.943A3,3,0,0,1-258.367,1111.584Zm-5.929.008a2.587,2.587,0,0,0,.38,1.355h4.979a2.705,2.705,0,0,0,.38-1.364,2.826,2.826,0,0,0-2.823-2.753A2.811,2.811,0,0,0-264.3,1111.592Z" transform="translate(264.554 -1100.431)"/>
        <path id="Path_188" data-name="Path 188" d="M-258.367,1101.363c0,.828-.907,1.674-1.562,2.054a3.236,3.236,0,0,1-.975.44c-.061,0-.13-.017-.13-.078a.174.174,0,0,1,.026-.078,1.884,1.884,0,0,0,.363-1.009,1.771,1.771,0,0,0-1.839-1.709,1.765,1.765,0,0,0-1.812,1.684,1.616,1.616,0,0,0,.681,1.363h5.058v-.889a.086.086,0,0,1,.095-.095.086.086,0,0,1,.095.095v2.977a.1.1,0,0,1-.095.1.1.1,0,0,1-.095-.1v-.716H-264.3v.716a.1.1,0,0,1-.094.1c-.052,0-.087-.06-.087-.1v-2.088h.579a1.821,1.821,0,0,1-.579-1.337,1.959,1.959,0,0,1,2.011-1.908,1.974,1.974,0,0,1,2.02,1.916,1.75,1.75,0,0,1-.242.88c.915-.371,2.141-1.191,2.141-2.288a.755.755,0,0,0-.717-.793c-.422,0-.518.181-.569.32a.094.094,0,0,1-.078.06c-.043,0-.087-.026-.087-.121.035-.25.32-.448.734-.448A.959.959,0,0,1-258.367,1101.363Z" transform="translate(264.554 -1098.427)"/>
        <path id="Path_189" data-name="Path 189" d="M-244.727,1141.067a.086.086,0,0,1-.1.095.086.086,0,0,1-.094-.095v-.854l-1.959.993a4.459,4.459,0,0,0-1.053,2.252l3.013,1.424v-1.243a.086.086,0,0,1,.094-.094.086.086,0,0,1,.1.094v2a.1.1,0,0,1-.1.1c-.061,0-.086-.052-.086-.1v-.552l-1.139-.544a.892.892,0,0,1-.907.776c-.785,0-1.182-.8-1.182-1.553a1.564,1.564,0,0,1,.008-.2l-1.76-.828-.769.388v.465a.087.087,0,0,1-.095.1.089.089,0,0,1-.086-.1v-2.546a.088.088,0,0,1,.086-.094c.061,0,.095.034.095.1v.431l5.748-2.909v-.57a.1.1,0,0,1,.094-.1.1.1,0,0,1,.1.1Zm-3.228,2.641c0,.63.232,1.425,1,1.425.293,0,.708-.242.708-.57a.433.433,0,0,0-.008-.1l-1.7-.8Zm-1.726-1.078,1.57.742a4.455,4.455,0,0,1,.837-1.959Z" transform="translate(261.273 -1107.472)"/>
        <path id="Path_190" data-name="Path 190" d="M-244.6,1134.918q-3.041,1.514-6.067,3.046v.285a.1.1,0,0,1-.095.1c-.051,0-.086-.061-.086-.1v-2.658a.1.1,0,0,1,.095-.095.089.089,0,0,1,.086.095v.785l4.117-2.071-4.117-1.708v.751a.081.081,0,0,1-.086.086.088.088,0,0,1-.095-.086v-1.122a.092.092,0,0,1,.086-.1c.061,0,.095.034.095.1v.173Z" transform="translate(261.273 -1106.08)"/>
        <path id="Path_191" data-name="Path 191" d="M-244.727,1126.291a.087.087,0,0,1-.1.095.086.086,0,0,1-.094-.095v-.854l-1.959.993a4.46,4.46,0,0,0-1.053,2.252l3.013,1.424v-1.243a.086.086,0,0,1,.094-.094.086.086,0,0,1,.1.094v2a.1.1,0,0,1-.1.1c-.061,0-.086-.051-.086-.1v-.552l-1.139-.544a.892.892,0,0,1-.907.776c-.785,0-1.182-.8-1.182-1.553a1.567,1.567,0,0,1,.008-.2l-1.76-.828-.769.388v.466a.087.087,0,0,1-.095.1.089.089,0,0,1-.086-.1v-2.546a.088.088,0,0,1,.086-.094c.061,0,.095.034.095.1v.431l5.748-2.909v-.569a.1.1,0,0,1,.094-.1.1.1,0,0,1,.1.1Zm-3.228,2.64c0,.63.232,1.425,1,1.425.293,0,.708-.242.708-.57a.431.431,0,0,0-.008-.1l-1.7-.8Zm-1.726-1.078,1.57.742a4.455,4.455,0,0,1,.837-1.959Z" transform="translate(261.273 -1103.917)"/>
        <path id="Path_192" data-name="Path 192" d="M-244.823,1121.633a.1.1,0,0,1-.094-.1v-.708h-5.748v.708a.1.1,0,0,1-.095.1.094.094,0,0,1-.086-.094v-2.814a.094.094,0,0,1,.086-.095.1.1,0,0,1,.095.1v.708h5.748v-.708a.1.1,0,0,1,.094-.1.1.1,0,0,1,.1.095v2.814A.1.1,0,0,1-244.823,1121.633Z" transform="translate(261.273 -1102.834)"/>
        <path id="Path_193" data-name="Path 193" d="M-244.727,1116.447a.1.1,0,0,1-.1.094.1.1,0,0,1-.094-.1v-.681h-5.748v.672a.087.087,0,0,1-.095.1.087.087,0,0,1-.086-.087V1113.6a.087.087,0,0,1,.086-.086.086.086,0,0,1,.095.095v.742h5.748v-2.486h-.941a.1.1,0,0,1-.1-.095.1.1,0,0,1,.1-.1h1.139Z" transform="translate(261.273 -1101.161)"/>
        <path id="Path_194" data-name="Path 194" d="M-244.727,1103.968a.087.087,0,0,1-.1.095.086.086,0,0,1-.094-.095v-.855l-1.959.992a4.466,4.466,0,0,0-1.053,2.252l3.013,1.424v-1.242a.086.086,0,0,1,.094-.095.087.087,0,0,1,.1.095v2a.1.1,0,0,1-.1.1c-.061,0-.086-.052-.086-.1v-.552l-1.139-.544a.893.893,0,0,1-.907.777c-.785,0-1.182-.8-1.182-1.554a1.574,1.574,0,0,1,.008-.2l-1.76-.828-.769.389v.465a.086.086,0,0,1-.095.095.088.088,0,0,1-.086-.095v-2.546a.089.089,0,0,1,.086-.095c.061,0,.095.035.095.1v.431l5.748-2.908v-.57a.1.1,0,0,1,.094-.1.1.1,0,0,1,.1.1Zm-3.228,2.64c0,.63.232,1.424,1,1.424.293,0,.708-.242.708-.57a.438.438,0,0,0-.008-.1l-1.7-.8Zm-1.726-1.079,1.57.743a4.461,4.461,0,0,1,.837-1.959Z" transform="translate(261.273 -1098.547)"/>
        <path id="Path_195" data-name="Path 195" d="M-246.888,1099.677a.089.089,0,0,1-.094-.087v-1.674a.088.088,0,0,1,.094-.086.089.089,0,0,1,.095.086v1.674A.089.089,0,0,1-246.888,1099.677Z" transform="translate(260.343 -1097.83)"/>
        <path id="Path_196" data-name="Path 196" d="M-231.088,1143.226a1.823,1.823,0,0,1-.415,1.174h.415v2.088a.1.1,0,0,1-.095.1.1.1,0,0,1-.095-.1v-.708h-5.747v.708a.1.1,0,0,1-.095.1c-.052,0-.087-.06-.087-.1V1144.4h.664a1.343,1.343,0,0,1-.664-1.131,1.34,1.34,0,0,1,1.346-1.38c.794,0,1.07.492,1.407,1.1a1.716,1.716,0,0,1,1.674-1.561A1.745,1.745,0,0,1-231.088,1143.226Zm-3.081-.621a2.009,2.009,0,0,0-.1.742.1.1,0,0,1-.094.095.419.419,0,0,1-.044-.008.647.647,0,0,1-.129-.207c-.328-.586-.526-1.147-1.321-1.147a1.137,1.137,0,0,0-1.156,1.165,1.144,1.144,0,0,0,1.122,1.157h4.134a1.671,1.671,0,0,0,.484-1.226,1.549,1.549,0,0,0-1.51-1.553A1.5,1.5,0,0,0-234.169,1142.6Z" transform="translate(257.992 -1108.32)"/>
        <path id="Path_197" data-name="Path 197" d="M-231.088,1139.621a.1.1,0,0,1-.095.095.1.1,0,0,1-.095-.1v-.682h-5.747v.673a.087.087,0,0,1-.095.1.087.087,0,0,1-.087-.087v-2.839a.087.087,0,0,1,.087-.087.087.087,0,0,1,.095.1v.742h5.747v-2.486h-.941a.1.1,0,0,1-.1-.094.1.1,0,0,1,.095-.1h1.139Z" transform="translate(257.992 -1106.736)"/>
        <path id="Path_198" data-name="Path 198" d="M-231.088,1127.96v4.7a.1.1,0,0,1-.095.095.1.1,0,0,1-.095-.1v-.716h-5.747v.716a.1.1,0,0,1-.095.1.094.094,0,0,1-.087-.095v-4.272a.085.085,0,0,1,.077-.087h.785a.089.089,0,0,1,.087.095.086.086,0,0,1-.095.095h-.673v2.071h1.734v-1.984h-.346a.1.1,0,0,1-.095-.1.1.1,0,0,1,.095-.094h.872a.1.1,0,0,1,.095.094.1.1,0,0,1-.095.1h-.346v1.984h3.832v-2.494h-.967a.086.086,0,0,1-.095-.095.088.088,0,0,1,.087-.094h1.078C-231.132,1127.883-231.106,1127.926-231.088,1127.96Z" transform="translate(257.992 -1105.06)"/>
      </g>
      <text id="_" data-name=" " transform="translate(457.369 0)" font-size="10.261" font-family="BivoacOutlineDemo-Outline, Bivoac Outline"><tspan x="0" y="17"> </tspan></text>
      <path id="Path_199" data-name="Path 199" d="M-975.2,228.735a35.75,35.75,0,0,0-5.341,17.734c-.156,6.413,2.022,13.447,8.376,16.982,5.625,3.13,13.025,2.746,19.74,1.838a277.034,277.034,0,0,0,32.518-6.858c55.242-14.359,108.777-34.049,165.5-43.3L-911.66,284.1c-7.943,3.483-15.9,6.974-24.222,9.767a153.636,153.636,0,0,1-32.383,7.06c-5.258.567-10.718.851-15.724-.543a23.488,23.488,0,0,1-14.1-11.17c-2.8-5.055-3.612-10.761-3.424-16.355.556-16.517,9.927-32.772,25.083-43.51" transform="translate(1005.119 -143.436)" fill="none" stroke="#000" stroke-miterlimit="10" stroke-width="0.489"/>
      <path id="Path_200" data-name="Path 200" d="M-928.764,254.854l4-4.923c1.537-1.894,3.154-3.851,5.371-4.868s5.216-.776,6.641,1.2c1.2,1.668.949,3.942.6,5.97a160.777,160.777,0,0,1-6.774,26.2c1.412-6.327,2.9-12.711,5.793-18.512s7.369-11.045,13.315-13.628c1.689-.734,4.036-1.062,5.043.481a4.137,4.137,0,0,1,.3,2.907c-1.054,6.738-4.145,13.01-5.41,19.712a9.352,9.352,0,0,0,0,4.567,3.821,3.821,0,0,0,3.3,2.8c1.8.035,3.161-1.543,4.21-3a111.567,111.567,0,0,0,12.773-23.116c1.084-2.666,2.115-5.456,4.117-7.524,1.7-1.757,4.873-2.725,6.432-.841a5.08,5.08,0,0,1,.65,3.985c-1.373,9.557-8.215,18.323-6.823,27.877a2.9,2.9,0,0,0,.627,1.627c1.007,1.052,2.757.288,3.969-.518l12.316-8.18a8.288,8.288,0,0,1-.428,5.309l7.156-20.658c.9-2.587,1.793-5.177,2.535-7.814,1.675-5.953,2.556-12.138,4.734-17.926,1.057-2.808,2.413-5.5,3.324-8.363a5.684,5.684,0,0,0,.2-3.847c-.5-1.212-2.138-2.007-3.184-1.216" transform="translate(987.611 -142.739)" fill="none" stroke="#000" stroke-miterlimit="10" stroke-width="2.443"/>
      <path id="Path_201" data-name="Path 201" d="M-825.242,255.855l10.536-7.732c2.594-1.9,5.305-3.86,8.467-4.455a3.671,3.671,0,0,1,2.107.09c1.56.664,1.81,2.8,1.431,4.447a21.874,21.874,0,0,1-3.127,6.5,25.732,25.732,0,0,1-4.978,6.357,8.7,8.7,0,0,1-7.514,2.12,27.551,27.551,0,0,1,4.332,12.22,4.754,4.754,0,0,0,.484,2.009,2.966,2.966,0,0,0,2.95,1.177,8.627,8.627,0,0,0,3.082-1.289c12.048-7.015,24.286-14.886,31.507-26.811a10.761,10.761,0,0,0,1.987-5.949c-.112-2.12-1.723-4.294-3.846-4.314a4.91,4.91,0,0,0-2.564.847c-2.683,1.653-4.4,4.457-6.523,6.782-1.871,2.047-4.125,3.786-5.569,6.153-2.789,4.571-1.981,10.42-.677,15.613a6.178,6.178,0,0,0,1.217,2.756c1.12,1.222,2.99,1.376,4.636,1.182a15.954,15.954,0,0,0,12.759-9.922" transform="translate(962.706 -149.474)" fill="none" stroke="#000" stroke-miterlimit="10" stroke-width="2.443"/>
      <circle id="Ellipse_5" data-name="Ellipse 5" cx="5.402" cy="5.402" r="5.402" transform="translate(117.993 72.103)"/>
    </g>
    <rect id="Rectangle_31" data-name="Rectangle 31" width="820" height="1025" transform="translate(820 0.485)"/>
    <g id="Group_62" data-name="Group 62" transform="translate(918.825 75.444)">
      <path id="Path_202" data-name="Path 202" d="M678.461,208.971a19.342,19.342,0,0,1-12.655,8.619c-1.75.328-3.839.289-4.957-1.1a6.3,6.3,0,0,1-.976-3.316,33.4,33.4,0,0,0-9.486-19.563,64.8,64.8,0,0,0-7.175-5.919c-11.691-8.717-24.084-17.5-38.462-19.938-3.405-.578-6.989-.826-9.97-2.571-1.239-.725-2.45-2.029-2.084-3.417.286-1.082,1.4-1.7,2.418-2.159,11-5.006,23.144-6.853,34.662-10.523,11.293-3.6,21.953-8.941,33.12-12.912s23.214-6.567,34.864-4.387c-15.062,13.547-23.156,31.9-18.866,51.7" transform="translate(-241.225 -106.797)" fill="#fff" stroke="#fff" stroke-miterlimit="10" stroke-width="0.508"/>
      <path id="Path_203" data-name="Path 203" d="M565.6,408.954a12.245,12.245,0,0,1,2.825-13.109c11.341-9.59,26.168-10.457,39.664-9.959,12.147.517,29.724,3.66,34.934-10.571,10.422-28.463,12.058-58.16,7.989-87.933" transform="translate(-234.527 -144.42)" fill="none" stroke="#fff" stroke-miterlimit="10" stroke-width="0.508"/>
      <path id="Path_204" data-name="Path 204" d="M657.164,258.97c1.16-12.987-6.36-24.983-13.572-35.845a67.054,67.054,0,0,0-7.977-10.457c-5.192-5.218-11.918-8.562-18.381-12.086q-8.125-4.431-15.933-9.415c-3.361-2.145-6.767-4.456-8.963-7.786a11.481,11.481,0,0,1-.124-11.863" transform="translate(-240.742 -116.546)" fill="none" stroke="#fff" stroke-miterlimit="10" stroke-width="0.508"/>
      <path id="Path_205" data-name="Path 205" d="M719.27,775.069c10.027-4.194,21.508-10.2,22.87-20.987.519-4.113-.616-8.236-1.75-12.223-11.239-39.5-23.541-78.719-37.793-117.237-18.416-49.773-40.056-98.291-59.207-147.786-.218-.564-3.181-9.168-2.663-9.481" transform="translate(-252.782 -187.718)" fill="none" stroke="#fff" stroke-miterlimit="10" stroke-width="0.508"/>
      <path id="Path_206" data-name="Path 206" d="M600.155,479.079c11.4-10.134,39.494-31.982,47.966-44.671,2.611-3.91,5.1-8,6.337-12.533s1.093-9.633-1.341-13.657c-.194-.321-2.457-1.886-2.388-2.255" transform="translate(-243.035 -172.948)" fill="none" stroke="#fff" stroke-miterlimit="10" stroke-width="0.508"/>
      <path id="Path_207" data-name="Path 207" d="M744.167,864.3c-.358,12.587,7.566,25.567,14.1,36.331q7.235,11.915,14.47,23.829a65.488,65.488,0,0,0,7.045,10.112c3.436,3.807,7.709,6.746,11.938,9.648,4.912,3.371,9.859,6.761,15.308,9.171,14.052,6.214,30.318,5.377,45.215,1.615a43.256,43.256,0,0,0,5.724-2.1c7.093-2.9,7.762-3.9,10.487-7.35,8.465-10.721,10.742-25.579,14.084-38.824,1.252-4.967,1.992-10.059,3.43-14.976,1.209-4.133,1.531-8.657,2.568-12.837.972-3.916,2.727-7.414,3.105-11.432.924-9.825,3.17-19.4,4.095-29.227" transform="translate(-277.679 -276.95)" fill="none" stroke="#fff" stroke-miterlimit="10" stroke-width="0.508"/>
      <path id="Path_208" data-name="Path 208" d="M943.211,705.323c.4-3.337,1.714-6.052,1.67-9.424.8-94.435.924-188.186,3.067-282.638.28-30.355-.124-61.375-2.542-91.694-1.506-12.12-2.33-23.575-3.922-35.881" transform="translate(-325.152 -144.012)" fill="none" stroke="#fff" stroke-miterlimit="10" stroke-width="0.508"/>
      <path id="Path_209" data-name="Path 209" d="M890.806,248.6a196.14,196.14,0,0,0-10.127-41.511c-6.668-19.067-8.591-40.293-20.229-56.8a34.092,34.092,0,0,0-9.614-9.561c-5.074-3.146-11.12-4.316-17.062-4.9-9.757-.955-19.6-.482-29.381-1.141-6.657-.45-13.268-1.422-19.909-2.063-17.816-1.717-35.766-1.033-53.652-.346" transform="translate(-274.473 -106.93)" fill="none" stroke="#fff" stroke-miterlimit="10" stroke-width="0.508"/>
      <path id="Path_210" data-name="Path 210" d="M806.575,520.381c3.451-19.678,4.388-37.641,1.427-57.837-5.141-32.307-12.954-62.556-18.7-94.389-.2-1.542-10.565-32.051-11.06-33.673-2.432-9.38-4.951-14.829-9.112-23.543-.692-1.34-.894-1.655-1.586-2.994-4.826-8.031-7.638-16.759-12.461-23.834-4.049-6.526-8.418-12.845-12.174-19.55-12.351-22.051-22.969-43.512-37.313-64.45-2.086,10.243-3.221,17.309.282,27.38,5.667,20.835,14.679,39.6,23.026,59.053,1.4,4.029,3.107,7.278,4.673,11.782.7,2.014,1.6,3.649,2.3,5.663a354.867,354.867,0,0,1,25.094,114.332c.885,16.176.43,33.043-3.405,49.28-9.888,17.664-33.391,26.394-51.982,24.22a10.419,10.419,0,0,0,2.306,8.32l20.59,22.963c3.54,3.949,7.132,7.941,11.541,10.889,5.585,3.733,12.217,5.6,18.849,6.677,9.272,1.5,18.984,1.522,27.833-1.631S803.44,529.236,806.575,520.381Z" transform="translate(-267.929 -123.425)" fill="#fff" stroke="#fff" stroke-miterlimit="10" stroke-width="0.508"/>
      <path id="Path_211" data-name="Path 211" d="M904.787,522.649c-.623-14.285-5.124-31.487-6.8-45.688q-2.546-21.524-5.091-43.049Q878.385,311.25,863.878,188.588c-1.338-11.317-2.664-22.906-.071-34,.907-2.468.907-2.468,2.869-3.032,17.244,17.223,23.34,42.489,26.928,66.6,5.078,34.116,6.619,68.648,8.154,103.106,2.988,67.1,5.977,134.3,3.03,201.394" transform="translate(-306.108 -111.743)" fill="#fff" stroke="#fff" stroke-miterlimit="10" stroke-width="0.508"/>
      <path id="Path_212" data-name="Path 212" d="M866.005,785.065l5.121-176.3c.894-30.761,1.787-61.542.97-92.305-1.387-52.219-7.7-104.169-14-156.025Q847.049,269.556,836,178.681c-1.1-9.083-2.154-18.622,1.255-27.113s13.677-12.1,22.453-14.133" transform="translate(-299.519 -108.346)" fill="none" stroke="#fff" stroke-miterlimit="10" stroke-width="0.508"/>
      <path id="Path_213" data-name="Path 213" d="M701.272,770.285c-1.115-1.624-3.763-6.284-4.193-8.207-2.7-12.074-12.1-21.364-17.909-32.288-6.543-12.3-8.418-26.45-11.393-40.065-11.03-50.485-38.031-95.923-54.686-144.842-7.41-21.767-12.979-44.671-26.034-63.6-7.093-10.285-18.111-22.931-21.2-33.818" transform="translate(-234.783 -182.933)" fill="none" stroke="#fff" stroke-miterlimit="10" stroke-width="0.508"/>
      <path id="Path_214" data-name="Path 214" d="M672.715,142.052c1.829.642,3.1,3.109,3.938,4.856a14.805,14.805,0,0,1,1.24,5.64,7.551,7.551,0,0,1-.512,3.707c-1.069,2.2-3.873,3.089-6.285,2.7s-4.528-1.784-6.561-3.141c1.58-.45,3.478-1.279,3.548-2.921a3.588,3.588,0,0,0-.416-1.6c-.673-1.485-1.905-4.724-2.944-5.98" transform="translate(-258.524 -109.457)"/>
      <path id="Path_215" data-name="Path 215" d="M651.148,163.482a6.151,6.151,0,0,1-4.108.189,2.885,2.885,0,0,1-1.439-.868,1.431,1.431,0,0,1-.188-1.591,2.179,2.179,0,0,1,.807-.674,48.367,48.367,0,0,1,8.777-4.02c-2.866.858-5.914,1.722-8.8.945a3.257,3.257,0,0,1-1.558-.816,1.508,1.508,0,0,1-.343-1.64c.368-.748,1.353-.867,2.15-1.112a9.306,9.306,0,0,0,2.36-1.263l2.735-1.823" transform="translate(-253.625 -111.564)" fill="none" stroke="#000" stroke-miterlimit="10" stroke-width="1.525"/>
      <path id="Path_216" data-name="Path 216" d="M718.845,823.277A26.186,26.186,0,0,0,731.9,814.84c1.182-1.475,2.227-3.426,1.526-5.182s-2.8-2.448-4.668-2.669a20.43,20.43,0,0,0-13.7,3.325c-.467.316-2.216,1.3-2.635.924" transform="translate(-270.044 -269.394)" fill="none" stroke="#fff" stroke-miterlimit="10" stroke-width="0.508"/>
      <path id="Path_217" data-name="Path 217" d="M700.639,767.51c4.818-.941,9.633-2.109,13.238-5.44s4.839-9.734,1.2-13.031c-2.157-1.956-5.412-2.287-8.234-1.573a26.71,26.71,0,0,0-7.764,3.907c-.522.339-1.081.658-1.58,1.031" transform="translate(-266.454 -255.024)" fill="none" stroke="#fff" stroke-miterlimit="10" stroke-width="0.508"/>
      <path id="Path_218" data-name="Path 218" d="M685.75,717.174c4.4-1.114,7.143-2.852,10.838-5.481,3.727-2.651,7.23-7.247,5.4-11.439-1.344-3.078-4.934-4.371-8.149-5.346a34,34,0,0,0-9.389-1.9c-3.2-.035-4.952-.443-7.092,1.942" transform="translate(-261.609 -241.994)" fill="none" stroke="#fff" stroke-miterlimit="10" stroke-width="0.508"/>
      <path id="Path_219" data-name="Path 219" d="M660.756,654.941a66.723,66.723,0,0,0,8.49-4.627c3.064-1.971,6.3-4.907,5.856-8.524-.487-4-5.172-6.022-9.194-6.173a21.32,21.32,0,0,0-12.284,3.266" transform="translate(-255.898 -228.194)" fill="none" stroke="#fff" stroke-miterlimit="10" stroke-width="0.508"/>
      <path id="Path_220" data-name="Path 220" d="M635.1,593.581l6.631-4.593c2.32-1.606,4.727-3.31,6.032-5.812s1.084-6.043-1.246-7.634a7.829,7.829,0,0,0-5-.9c-5.267.367-7.584.989-12.129,3.676" transform="translate(-250.069 -213.518)" fill="none" stroke="#fff" stroke-miterlimit="10" stroke-width="0.508"/>
      <path id="Path_221" data-name="Path 221" d="M614.612,533.2a15.97,15.97,0,0,0,10.146-8.667c-.425-3.4-3.859-5.778-7.262-6.172s-5.246.213-8.489,1.318" transform="translate(-245.165 -199.961)" fill="none" stroke="#fff" stroke-miterlimit="10" stroke-width="0.508"/>
      <g id="Group_58" data-name="Group 58" transform="translate(3.725 211.362)">
        <path id="Path_222" data-name="Path 222" d="M207.471,461.218a13.165,13.165,0,0,1-3.215,8.572q-3.214,3.9-9.448,3.9l14.8,45H180.392l-13.636-45h-3.7v45H134.807V377.451h53.572q9.935,0,14.513,4.967t4.579,13.345Zm-44.416-59.027v48.7h13.831q2.726,0,2.727-2.922V405.114q0-2.922-2.727-2.922Z" transform="translate(-134.807 -377.451)" fill="#fff" stroke="#fff" stroke-miterlimit="10" stroke-width="0.508"/>
        <path id="Path_223" data-name="Path 223" d="M268.406,518.686q-12.273,0-17.143-5.065t-4.87-16.754V377.451h28.831V490.829a4.458,4.458,0,0,0,.488,2.337c.322.52,1.071.779,2.24.779h9.935q1.753,0,2.24-.779a4.488,4.488,0,0,0,.487-2.337V377.451h28.831V496.868q0,11.688-4.87,16.754t-17.143,5.065Z" transform="translate(-161.652 -377.451)" fill="#fff" stroke="#fff" stroke-miterlimit="10" stroke-width="0.508"/>
        <path id="Path_224" data-name="Path 224" d="M357.979,377.451h26.884l14.415,56.688V377.451H428.3V518.686H399.278l-15.194-59.027v59.027h-26.1Z" transform="translate(-188.498 -377.451)" fill="#fff" stroke="#fff" stroke-miterlimit="10" stroke-width="0.508"/>
      </g>
      <g id="Group_59" data-name="Group 59" transform="translate(0 376.803)">
        <path id="Path_225" data-name="Path 225" d="M186.786,736.537h-29.8V700.692L129.9,595.3h29.221l12.663,66.624L184.643,595.3h29.221l-27.079,105.39Z" transform="translate(-129.902 -595.302)" fill="#fff" stroke="#fff" stroke-miterlimit="10" stroke-width="0.508"/>
        <path id="Path_226" data-name="Path 226" d="M322.688,716.471a29.445,29.445,0,0,1-.974,7.7A16.022,16.022,0,0,1,318.4,730.5a16.541,16.541,0,0,1-6.234,4.383,24.994,24.994,0,0,1-9.74,1.656H269.7a24.981,24.981,0,0,1-9.74-1.656,16.517,16.517,0,0,1-6.234-4.383,15.984,15.984,0,0,1-3.312-6.331,29.287,29.287,0,0,1-.974-7.7V613.614q0-8.374,4.579-13.344t14.513-4.967H303.6q9.936,0,14.513,4.967t4.578,13.344Zm-42.273-96.429q-2.533,0-2.532,2.727v86.1a3.933,3.933,0,0,0,.487,2.24c.323.457,1.072.682,2.24.682h10.714c1.169,0,1.914-.225,2.241-.682a3.964,3.964,0,0,0,.487-2.24v-86.1q0-2.726-2.533-2.727Z" transform="translate(-158.66 -595.302)" fill="#fff" stroke="#fff" stroke-miterlimit="10" stroke-width="0.508"/>
        <path id="Path_227" data-name="Path 227" d="M383.294,736.537q-12.272,0-17.142-5.065t-4.87-16.753V595.3h28.831V708.68a4.457,4.457,0,0,0,.487,2.337c.323.52,1.072.779,2.24.779h9.935q1.753,0,2.241-.779a4.5,4.5,0,0,0,.487-2.337V595.3h28.831V714.719q0,11.687-4.87,16.753t-17.143,5.065Z" transform="translate(-185.567 -595.302)" fill="#fff" stroke="#fff" stroke-miterlimit="10" stroke-width="0.508"/>
        <path id="Path_228" data-name="Path 228" d="M545.53,679.069a13.162,13.162,0,0,1-3.215,8.571q-3.214,3.9-9.448,3.9l14.805,45H518.451l-13.636-45h-3.7v45H472.867V595.3h53.572q9.934,0,14.513,4.967t4.578,13.344Zm-44.416-59.027v48.7h13.831q2.726,0,2.728-2.922V622.965q0-2.922-2.728-2.922Z" transform="translate(-212.412 -595.302)" fill="#fff" stroke="#fff" stroke-miterlimit="10" stroke-width="0.508"/>
      </g>
      <g id="Group_60" data-name="Group 60" transform="translate(6.694 540.381)">
        <path id="Path_229" data-name="Path 229" d="M138.717,810.7h29.027V925.637h28.442l-4.87,26.3h-52.6Z" transform="translate(-138.717 -810.701)" fill="#fff" stroke="#fff" stroke-miterlimit="10" stroke-width="0.508"/>
        <path id="Path_230" data-name="Path 230" d="M225.934,810.7h28.247V951.936H225.934Z" transform="translate(-159.7 -810.701)" fill="#fff" stroke="#fff" stroke-miterlimit="10" stroke-width="0.508"/>
        <path id="Path_231" data-name="Path 231" d="M305.985,885.312v66.624H278.517V810.7h29.8l15.39,59.611L339.1,810.7h30V951.936H341.634V885.312l-17.922,56.494Z" transform="translate(-172.35 -810.701)" fill="#fff" stroke="#fff" stroke-miterlimit="10" stroke-width="0.508"/>
        <path id="Path_232" data-name="Path 232" d="M413.188,810.7h28.247V951.936H413.188Z" transform="translate(-204.749 -810.701)" fill="#fff" stroke="#fff" stroke-miterlimit="10" stroke-width="0.508"/>
        <path id="Path_233" data-name="Path 233" d="M520.253,810.7l7.012,26.3h-18.9V951.936H479.538V837h-18.9l7.4-26.3Z" transform="translate(-216.165 -810.701)" fill="#fff" stroke="#fff" stroke-miterlimit="10" stroke-width="0.508"/>
        <path id="Path_234" data-name="Path 234" d="M565.132,951.936l-5.065-26.3h30.39q3.31,0,3.311-2.922V897q0-2.922-1.169-3.506a10.026,10.026,0,0,0-4.091-.585H573.9a34.79,34.79,0,0,1-5.941-.487,11.133,11.133,0,0,1-5.065-2.24,11.493,11.493,0,0,1-3.506-4.87,22.68,22.68,0,0,1-1.267-8.376V829.013q0-8.374,4.578-13.345T577.21,810.7h38.961l4.87,26.3H589.094q-3.506,0-3.506,3.117v25.714a3.4,3.4,0,0,0,1.071,2.922,5.443,5.443,0,0,0,3.215.779H607.6q6.816,0,10.421,3.215t3.6,11.2v46.559q0,11.689-4.773,16.558T600,951.936Z" transform="translate(-239.616 -810.701)" fill="#fff" stroke="#fff" stroke-miterlimit="10" stroke-width="0.508"/>
      </g>
      <line id="Line_36" data-name="Line 36" x2="321.463" transform="translate(5.509 718.069)" fill="#fff" stroke="#fff" stroke-miterlimit="10" stroke-width="2.541"/>
      <line id="Line_37" data-name="Line 37" y1="136.154" transform="translate(343.941 718.069)" fill="#fff" stroke="#fff" stroke-miterlimit="10" stroke-width="2.541"/>
      <line id="Line_38" data-name="Line 38" y1="136.154" transform="translate(394.477 718.069)" fill="#fff" stroke="#fff" stroke-miterlimit="10" stroke-width="2.541"/>
      <line id="Line_39" data-name="Line 39" x1="205.362" transform="translate(408.504 763.045)" fill="#fff" stroke="#fff" stroke-miterlimit="10" stroke-width="2.541"/>
      <line id="Line_40" data-name="Line 40" y2="40.497" transform="translate(567.292 770.643)" fill="#fff" stroke="#fff" stroke-miterlimit="10" stroke-width="2.541"/>
      <line id="Line_41" data-name="Line 41" x2="321.463" transform="translate(5.509 812.726)" fill="#fff" stroke="#fff" stroke-miterlimit="10" stroke-width="2.541"/>
      <text id="CORTEZ-2" data-name="CORTEZ" transform="translate(5.51 792.516)" fill="#fff" font-size="77" font-family="OdalisqueNF, Odalisque NF"><tspan x="0" y="0">CORTEZ</tspan></text>
      <text id="NIKE.COM-2" data-name="NIKE.COM" transform="translate(407.505 746.975)" fill="#fff" font-size="38" font-family="OdalisqueNF, Odalisque NF"><tspan x="0" y="0">NIKE.COM</tspan></text>
      <text id="running_model-2" data-name="running model" transform="translate(7.446 852.086)" fill="#fff" font-size="35" font-family="OdalisqueNF, Odalisque NF"><tspan x="0" y="0">running model</tspan></text>
      <text id="_20_20_20-2" data-name="20/20/20" transform="translate(378.201 854.223) rotate(-90)" fill="#fff" font-size="32" font-family="OdalisqueNF, Odalisque NF"><tspan x="0" y="0">20/20/20</tspan></text>
      <text id="Sizes_avialble:_MAN_37_38_39_40_43_42_43_44_45_WOMAN37_38_39_40_43_42_43_44_45_KID_27_28_29_30_3_1_32_33_34-2" data-name="Sizes avialble: MAN 37,38,39,40,43,42,43,44,45 WOMAN37,38,39,40,43,42,43,44,45 KID 27,28,29,30,3,1,32,33,34" transform="translate(408.886 769.174)" fill="#fff" font-size="12.04" font-family="OdalisqueNF, Odalisque NF"><tspan x="0" y="12">Sizes avialble: MAN </tspan><tspan x="0" y="26.448">37,38,39,40,43,42,43,44,45 </tspan><tspan x="0" y="40.896">WOMAN37,38,39,40,43,42,43,44,45 </tspan><tspan x="0" y="55.344">KID 27,28,29,30,3,1,32,33,34</tspan></text>
      <g id="Group_61" data-name="Group 61" transform="translate(585.881 771.338)">
        <path id="Path_235" data-name="Path 235" d="M907.724,1165.6a.1.1,0,0,1-.1-.108v-.736h-5.242a13.111,13.111,0,0,0,.655,1.212V1166a.124.124,0,0,1-.108.1c-.017,0-.036-.017-.053-.026l-.027-.036-1.464-2.72h6.239v-.736a.09.09,0,0,1,.1-.1.092.092,0,0,1,.1.089v2.927A.1.1,0,0,1,907.724,1165.6Z" transform="translate(-901.386 -1126.289)" fill="#fff"/>
        <path id="Path_236" data-name="Path 236" d="M905.221,1152.866a.118.118,0,0,1-.108.117.128.128,0,0,1-.054-.018l-2.442-1.544a3.281,3.281,0,0,0-.952,2.334,3.4,3.4,0,0,0,.476,1.7h5.036a3.391,3.391,0,0,0,.466-1.714,3.149,3.149,0,0,0-1.122-2.469.109.109,0,0,1-.036-.071.115.115,0,0,1,.108-.108.091.091,0,0,1,.071.036,3.415,3.415,0,0,1-2.011,5.987,3.269,3.269,0,0,1-3.178-3.375,3.43,3.43,0,0,1,.97-2.424l-.933-.592a.109.109,0,0,1-.045-.081.092.092,0,0,1,.089-.1.138.138,0,0,1,.054.018l3.537,2.208A.125.125,0,0,1,905.221,1152.866Z" transform="translate(-901.406 -1123.416)" fill="#fff"/>
        <path id="Path_237" data-name="Path 237" d="M907.845,1144.983a3.185,3.185,0,1,1-3.187-3.061A3.114,3.114,0,0,1,907.845,1144.983Zm-6.167.008a2.691,2.691,0,0,0,.395,1.41h5.179a2.81,2.81,0,0,0,.4-1.418,2.987,2.987,0,0,0-5.969.008Z" transform="translate(-901.409 -1121.343)" fill="#fff"/>
        <path id="Path_238" data-name="Path 238" d="M907.845,1139.65a.1.1,0,0,1-.1.1.1.1,0,0,1-.1-.108v-.709h-5.978v.7a.089.089,0,0,1-.1.1.09.09,0,0,1-.09-.09v-2.953a.091.091,0,0,1,.09-.091.09.09,0,0,1,.1.1v.772h5.978v-2.586h-.978a.1.1,0,0,1-.108-.1.1.1,0,0,1,.1-.1h1.185Z" transform="translate(-901.409 -1119.602)" fill="#fff"/>
        <path id="Path_239" data-name="Path 239" d="M907.845,1129.129a3.185,3.185,0,1,1-3.187-3.061A3.114,3.114,0,0,1,907.845,1129.129Zm-6.167.009a2.694,2.694,0,0,0,.395,1.409h5.179a2.813,2.813,0,0,0,.4-1.418,2.987,2.987,0,0,0-5.969.009Z" transform="translate(-901.409 -1117.528)" fill="#fff"/>
        <path id="Path_240" data-name="Path 240" d="M907.845,1118.5c0,.862-.942,1.742-1.624,2.137a3.366,3.366,0,0,1-1.015.458c-.063,0-.134-.018-.134-.081a.174.174,0,0,1,.027-.08,1.96,1.96,0,0,0,.377-1.05,1.9,1.9,0,0,0-3.8-.026,1.679,1.679,0,0,0,.709,1.418h5.26v-.924a.1.1,0,1,1,.2,0v3.1a.1.1,0,1,1-.2,0v-.746h-5.978v.746a.1.1,0,0,1-.1.108c-.054,0-.09-.064-.09-.108v-2.173h.6a1.893,1.893,0,0,1-.6-1.391,2.1,2.1,0,0,1,4.193.009,1.82,1.82,0,0,1-.251.915c.952-.386,2.226-1.239,2.226-2.379a.785.785,0,0,0-.745-.826c-.44,0-.538.189-.592.333a.1.1,0,0,1-.08.062c-.046,0-.09-.026-.09-.125.036-.26.332-.466.763-.466A1,1,0,0,1,907.845,1118.5Z" transform="translate(-901.409 -1115.444)" fill="#fff"/>
        <path id="Path_241" data-name="Path 241" d="M922.033,1159.8a.1.1,0,1,1-.2,0v-.889l-2.038,1.033a4.632,4.632,0,0,0-1.1,2.342l3.133,1.482v-1.292a.1.1,0,1,1,.2,0v2.082a.1.1,0,0,1-.108.108c-.063,0-.09-.054-.09-.108v-.574l-1.186-.566a.928.928,0,0,1-.942.808c-.817,0-1.229-.835-1.229-1.616a1.719,1.719,0,0,1,.008-.206l-1.831-.861-.8.4v.485a.09.09,0,0,1-.1.1.092.092,0,0,1-.09-.1v-2.648a.093.093,0,0,1,.09-.1c.063,0,.1.036.1.108v.448l5.979-3.025v-.592a.1.1,0,1,1,.2,0Zm-3.357,2.747c0,.656.242,1.481,1.041,1.481.305,0,.736-.252.736-.593a.465.465,0,0,0-.008-.107l-1.769-.835Zm-1.8-1.122,1.633.772a4.644,4.644,0,0,1,.87-2.038Z" transform="translate(-904.822 -1124.852)" fill="#fff"/>
        <path id="Path_242" data-name="Path 242" d="M922.167,1153.4q-3.165,1.574-6.311,3.168v.3a.1.1,0,0,1-.1.108c-.053,0-.09-.062-.09-.108V1154.1a.1.1,0,0,1,.1-.1.092.092,0,0,1,.09.1v.816l4.282-2.154-4.282-1.777v.781a.084.084,0,0,1-.09.09.091.091,0,0,1-.1-.09V1150.6a.1.1,0,0,1,.09-.108c.063,0,.1.036.1.108v.179Z" transform="translate(-904.822 -1123.405)" fill="#fff"/>
        <path id="Path_243" data-name="Path 243" d="M922.033,1144.427a.1.1,0,1,1-.2,0v-.889l-2.038,1.033a4.632,4.632,0,0,0-1.1,2.343l3.133,1.481V1147.1a.1.1,0,0,1,.2,0v2.083a.1.1,0,0,1-.108.107c-.063,0-.09-.054-.09-.107v-.575l-1.186-.565a.928.928,0,0,1-.942.807c-.817,0-1.229-.834-1.229-1.616a1.706,1.706,0,0,1,.008-.206l-1.831-.862-.8.4v.485a.09.09,0,0,1-.1.1.092.092,0,0,1-.09-.1v-2.648a.092.092,0,0,1,.09-.1c.063,0,.1.036.1.108v.449l5.979-3.025v-.592a.1.1,0,1,1,.2,0Zm-3.357,2.747c0,.655.242,1.481,1.041,1.481.305,0,.736-.252.736-.592a.469.469,0,0,0-.008-.108l-1.769-.835Zm-1.8-1.122,1.633.772a4.636,4.636,0,0,1,.87-2.037Z" transform="translate(-904.822 -1121.154)" fill="#fff"/>
        <path id="Path_244" data-name="Path 244" d="M921.933,1139.582a.1.1,0,0,1-.1-.108v-.736h-5.979v.736a.1.1,0,0,1-.1.108.1.1,0,0,1-.09-.1v-2.927a.1.1,0,0,1,.09-.1.1.1,0,0,1,.1.108v.737h5.979v-.737a.1.1,0,0,1,.1-.108.1.1,0,0,1,.1.1v2.927A.1.1,0,0,1,921.933,1139.582Z" transform="translate(-904.822 -1120.028)" fill="#fff"/>
        <path id="Path_245" data-name="Path 245" d="M922.033,1134.187a.1.1,0,0,1-.1.1.1.1,0,0,1-.1-.108v-.709h-5.979v.7a.094.094,0,0,1-.188.009v-2.953a.094.094,0,1,1,.188.009v.772h5.979v-2.586h-.979a.1.1,0,0,1-.108-.1.1.1,0,0,1,.1-.1h1.185Z" transform="translate(-904.822 -1118.287)" fill="#fff"/>
        <path id="Path_246" data-name="Path 246" d="M922.033,1121.208a.1.1,0,0,1-.2,0v-.889l-2.038,1.032a4.635,4.635,0,0,0-1.1,2.343l3.133,1.482v-1.292a.1.1,0,1,1,.2,0v2.082a.1.1,0,0,1-.108.108c-.063,0-.09-.054-.09-.108v-.575l-1.186-.565a.927.927,0,0,1-.942.807c-.817,0-1.229-.835-1.229-1.615a1.721,1.721,0,0,1,.008-.207l-1.831-.862-.8.4v.484a.089.089,0,0,1-.1.1.092.092,0,0,1-.09-.1v-2.648a.092.092,0,0,1,.09-.1c.063,0,.1.036.1.108v.448l5.979-3.025v-.592a.1.1,0,1,1,.2,0Zm-3.357,2.747c0,.656.242,1.482,1.041,1.482.305,0,.736-.251.736-.593a.476.476,0,0,0-.008-.108l-1.769-.834Zm-1.8-1.122,1.633.772a4.641,4.641,0,0,1,.87-2.038Z" transform="translate(-904.822 -1115.569)" fill="#fff"/>
        <path id="Path_247" data-name="Path 247" d="M919.786,1116.744a.092.092,0,0,1-.1-.09v-1.741a.1.1,0,0,1,.2,0v1.741A.092.092,0,0,1,919.786,1116.744Z" transform="translate(-905.789 -1114.823)" fill="#fff"/>
        <path id="Path_248" data-name="Path 248" d="M936.22,1162.043a1.894,1.894,0,0,1-.431,1.221h.431v2.172a.1.1,0,1,1-.2,0v-.736h-5.979v.736a.1.1,0,0,1-.1.108c-.055,0-.09-.062-.09-.108v-2.172h.691a1.4,1.4,0,0,1,.709-2.612c.825,0,1.113.512,1.463,1.149a1.786,1.786,0,0,1,1.741-1.624A1.815,1.815,0,0,1,936.22,1162.043Zm-3.2-.646a2.092,2.092,0,0,0-.108.772.1.1,0,0,1-.1.1.4.4,0,0,1-.045-.008.662.662,0,0,1-.135-.216c-.342-.611-.548-1.194-1.374-1.194a1.208,1.208,0,0,0-.036,2.415h4.3a1.739,1.739,0,0,0,.5-1.275,1.612,1.612,0,0,0-1.571-1.615A1.561,1.561,0,0,0,933.015,1161.4Z" transform="translate(-908.235 -1125.734)" fill="#fff"/>
        <path id="Path_249" data-name="Path 249" d="M936.22,1158.293a.1.1,0,0,1-.1.1.1.1,0,0,1-.1-.108v-.709h-5.979v.7a.094.094,0,1,1-.188.008v-2.953a.094.094,0,1,1,.188.008v.772h5.979v-2.585h-.978a.1.1,0,0,1-.108-.1.1.1,0,0,1,.1-.1h1.185Z" transform="translate(-908.235 -1124.087)" fill="#fff"/>
        <path id="Path_250" data-name="Path 250" d="M936.22,1146.164v4.892a.1.1,0,0,1-.1.1.1.1,0,0,1-.1-.108v-.745h-5.979v.745a.1.1,0,0,1-.1.108.1.1,0,0,1-.09-.1v-4.443a.088.088,0,0,1,.081-.09h.816a.093.093,0,0,1,.09.1.09.09,0,0,1-.1.1h-.7v2.155h1.805v-2.065h-.359a.1.1,0,1,1,0-.2h.906a.1.1,0,1,1,0,.2h-.359v2.065h3.986v-2.595h-1.006a.089.089,0,0,1-.1-.1.092.092,0,0,1,.09-.1h1.122C936.174,1146.083,936.2,1146.128,936.22,1146.164Z" transform="translate(-908.235 -1122.344)" fill="#fff"/>
      </g>
      <text id="_2" data-name=" " transform="translate(475.751 0)" stroke="#fff" stroke-width="0.508" font-size="10.673" font-family="BivoacOutlineDemo-Outline, Bivoac Outline"><tspan x="0" y="17"> </tspan></text>
      <path id="Path_251" data-name="Path 251" d="M162.207,210.8a37.191,37.191,0,0,0-5.556,18.447c-.162,6.672,2.1,13.987,8.714,17.664,5.851,3.256,13.548,2.857,20.534,1.912a288.148,288.148,0,0,0,33.825-7.133c57.462-14.936,113.149-35.417,172.147-45.041L228.3,268.387c-8.263,3.624-16.544,7.255-25.2,10.16a159.885,159.885,0,0,1-33.685,7.344c-5.469.589-11.148.885-16.356-.565a24.431,24.431,0,0,1-14.666-11.62c-2.915-5.257-3.757-11.192-3.561-17.011.578-17.181,11.607-34.725,27.373-45.895" transform="translate(-131.082 -122.592)" fill="none" stroke="#fff" stroke-miterlimit="10" stroke-width="0.508"/>
      <path id="Path_252" data-name="Path 252" d="M210.506,237.969l4.156-5.122c1.6-1.97,3.281-4.006,5.587-5.064s5.425-.807,6.908,1.251c1.251,1.736.987,4.1.627,6.21a167.356,167.356,0,0,1-7.046,27.251c1.468-6.581,3.014-13.222,6.025-19.255s7.665-11.489,13.85-14.175c1.757-.763,4.2-1.1,5.246.5a4.3,4.3,0,0,1,.313,3.023c-1.1,7.009-4.311,13.534-5.627,20.505a9.726,9.726,0,0,0,0,4.75,3.976,3.976,0,0,0,3.429,2.911c1.869.036,3.288-1.605,4.38-3.123a116.059,116.059,0,0,0,13.286-24.045c1.127-2.774,2.2-5.676,4.282-7.827,1.769-1.827,5.068-2.834,6.69-.874.92,1.113.881,2.717.676,4.146-1.428,9.941-8.545,19.059-7.1,29a3.012,3.012,0,0,0,.653,1.693c1.047,1.094,2.868.3,4.129-.539l12.811-8.508a8.62,8.62,0,0,1-.445,5.523l7.443-21.488c.933-2.692,1.866-5.386,2.637-8.128,1.742-6.192,2.659-12.626,4.925-18.647,1.1-2.921,2.51-5.725,3.457-8.7a5.91,5.91,0,0,0,.21-4c-.522-1.261-2.224-2.088-3.313-1.265" transform="translate(-149.294 -121.867)" fill="none" stroke="#fff" stroke-miterlimit="10" stroke-width="2.541"/>
      <path id="Path_253" data-name="Path 253" d="M318.188,239.01l10.959-8.043c2.7-1.981,5.519-4.015,8.808-4.634a3.816,3.816,0,0,1,2.191.093c1.622.69,1.883,2.908,1.488,4.626a22.748,22.748,0,0,1-3.253,6.766,26.772,26.772,0,0,1-5.178,6.613c-2.158,1.8-5.093,2.908-7.816,2.2a28.658,28.658,0,0,1,4.506,12.71,4.938,4.938,0,0,0,.5,2.091,3.084,3.084,0,0,0,3.069,1.224,8.971,8.971,0,0,0,3.206-1.34c12.532-7.3,25.261-15.485,32.772-27.889,1.144-1.889,2.183-3.982,2.067-6.188s-1.792-4.466-4-4.487a5.111,5.111,0,0,0-2.667.881c-2.791,1.719-4.573,4.635-6.785,7.054-1.946,2.129-4.291,3.938-5.794,6.4-2.9,4.756-2.06,10.838-.7,16.241a6.429,6.429,0,0,0,1.265,2.866c1.166,1.271,3.111,1.431,4.823,1.23a16.594,16.594,0,0,0,13.272-10.32" transform="translate(-175.2 -128.873)" fill="none" stroke="#fff" stroke-miterlimit="10" stroke-width="2.541"/>
      <ellipse id="Ellipse_6" data-name="Ellipse 6" cx="5.619" cy="5.619" rx="5.619" ry="5.619" transform="translate(122.735 74.482)" fill="#fff" stroke="#fff" stroke-miterlimit="10" stroke-width="0.508"/>
    </g>
  </g>
</svg>
