<svg xmlns="http://www.w3.org/2000/svg" width="261.026" height="96.583" viewBox="0 0 261.026 96.583">
  <g id="Group_2" data-name="Group 2" transform="translate(-160.16 -5839.471)">
    <g id="Group_4" data-name="Group 4">
      <g id="Group_1" data-name="Group 1" transform="translate(160.16 5839.471)">
        <path id="Path_1" data-name="Path 1" d="M176.889,5936.053V5876.77l-8.267-19.472-3.691,28.455,4.139,23.85.653,3.764-2.323.4-2.323.406-4.917-28.319,6.019-46.387,15.427,36.34v15.679l6.054-28.283,0,0,2.873-13.42,2.307.5,2.307.493Z" transform="translate(-160.16 -5839.47)" fill="#F8FFE5"/>
      </g>
      <path id="Path_2" data-name="Path 2" d="M289.463,6017.889l-1.229,32.175-2.359-.092-2.356-.09,1.231-32.172Z" transform="translate(-94.266 -136.201)" fill="#F8FFE5"/>
      <path id="Path_3" data-name="Path 3" d="M305.863,5902.84l-2.979,18.7-5.177,4.727-1.587-5.309Z" transform="translate(-103.894 -48.424)" fill="#F8FFE5"/>
      <path id="Path_4" data-name="Path 4" d="M319,5932.647l12.245,20.347-4.042,2.432-13.389-22.25,14.354-40.786,4.451,1.566Z" transform="translate(-117.412 -40.438)" fill="#F8FFE5"/>
      <path id="Path_5" data-name="Path 5" d="M398.129,5920.791l-20.42-27.281-8.979,37.281.236.662c2.984,8.361,7.75,21.823,8.408,23.928v10.436Zm-24.484,9.738,6.3-26.158,12.724,17-12.594,27.323c-.6-1.715-1.38-3.926-2.392-6.785C375.98,5937.088,374.261,5932.255,373.645,5930.529Z" transform="translate(-159.379 -41.293)" fill="#F8FFE5"/>
      <path id="Path_6" data-name="Path 6" d="M455.9,5905.938l-4.609,1-1.833-8.405,4.611-1Z" transform="translate(-221.068 -44.365)" fill="#F8FFE5"/>
      <path id="Path_7" data-name="Path 7" d="M489.083,5901.6l-9.059,12.587-3.061-2.2,3.759-5.226-9.793,1.568,13-12.5,2.616,2.722-4.314,4.148Z" transform="translate(-237.475 -43.066)" fill="#F8FFE5"/>
      <path id="Path_8" data-name="Path 8" d="M537.1,5920.269l.726,4.661-36.17,5.639-11.752,32.618-4.439-1.6,18.613-51.654,32.988-5.644.795,4.651-30.279,5.179-4.1,11.39Z" transform="translate(-248.585 -49.531)" fill="#F8FFE5"/>
      <path id="Path_9" data-name="Path 9" d="M558.5,6020.35l-16.153,11.632,11,23.88,12.861-19Zm-10.243,13.188,8.377-6.033,4.168,8.927-6.672,9.856Z" transform="translate(-292.05 -138.219)" fill="#F8FFE5"/>
      <path id="Path_10" data-name="Path 10" d="M667.64,6038.811l-6.406,11.42-11.175-3.3-5.71-29.854,4.634-.885,5.167,27.028,4.809,1.42,3.46-6.172-7.142-17.776,4.7-6.3,3.781,2.818-3.12,4.184Z" transform="translate(-369.993 -133.664)" fill="#F8FFE5"/>
      <path id="Path_11" data-name="Path 11" d="M741.361,5959.238l8.054-52.127-11.828-15.337-3.9,11.712,7.387,41.361-4.644.83-7.6-42.545,7.083-21.252,18.472,23.954-3.932,25.455,10.561-20.5-.651-23.894,4.717-.127.682,25.106Z" transform="translate(-434.549 -32.406)" fill="#F8FFE5"/>
      <path id="Path_12" data-name="Path 12" d="M871.579,5918.325,847.6,5879.77l1.375,31.02L832.18,5951.7Zm-18.469-20.765,12.314,19.8L843.888,5935.6l9.844-23.984Z" transform="translate(-513.523 -30.793)" fill="#F8FFE5"/>
      <path id="Path_13" data-name="Path 13" d="M950.826,5925.977l25.191-8.014L918.3,5894.01l23.946,31.411-18.736,28.738,3.951,2.578,18.477-28.342,17.771,11.795,3.137,15.72,4.627-.922-3.521-17.644Zm-18.156-20.9,29.63,12.3-16.3,5.187Z" transform="translate(-579.332 -41.676)" fill="#F8FFE5"/>
      <path id="Path_14" data-name="Path 14" d="M1061.917,5906.166l-15.859,13.807-4.389,37.359-4.684-.553,4.422-37.639-3.677-8.651-39.08-13.566,37.163-.264.035,4.717-9.785.071,15.191,5.273,3.469,8.163,11.469-9.989-5.038-11.33,4.311-1.915Z" transform="translate(-640.732 -39.871)" fill="#F8FFE5"/>
    </g>
  </g>
</svg>
