<svg xmlns="http://www.w3.org/2000/svg" width="1082.06" height="8660.632" viewBox="0 0 1082.06 8660.632">
  <g id="Group_870" data-name="Group 870" transform="translate(-692.992)">
    <rect id="Rectangle_188" data-name="Rectangle 188" width="1081" height="1081" transform="translate(693)" fill="#f2edd7"/>
    <path id="Path_14753" data-name="Path 14753" d="M-4204.96-4895.3v83.509h90.438v-30.936H-4099v30.936h77.151V-4895.3Zm90.5,30.91v-9.165h72.818v9.165Z" transform="translate(5629.602 5394.2)" fill="#e48257"/>
    <path id="Path_14754" data-name="Path 14754" d="M-4727.12-4895.294v83.509h65.017v-30.936h53.078v30.936h65.017v-83.509Zm118.1,41.752H-4662.1v-9.165h53.078Z" transform="translate(5963.426 5394.197)" fill="#e48257"/>
    <path id="Path_14755" data-name="Path 14755" d="M-5771.426-4895.289v83.509h183.108v-83.509Zm163.249,61.742h-72.815v-9.169h72.815Zm0-30.81h-72.815v-9.165h72.815Z" transform="translate(6631.068 5394.034)" fill="#e48257"/>
    <path id="Path_14756" data-name="Path 14756" d="M-5184.68-4873.527v9.168h118.518v21.641H-5184.68v9.165h118.518v21.767h-183.109v-83.509h183.109v21.767Z" transform="translate(6297.246 5394.197)" fill="#e48257"/>
    <rect id="Rectangle_189" data-name="Rectangle 189" width="1082.052" height="1082.052" transform="translate(693 1079)" fill="#e48257"/>
    <rect id="Rectangle_190" data-name="Rectangle 190" width="1082.052" height="1082.052" transform="translate(693 3250.369)" fill="#3a6351"/>
    <rect id="Rectangle_191" data-name="Rectangle 191" width="1082.052" height="1082.052" transform="translate(693 4332.423)" fill="#f2edd7"/>
    <rect id="Rectangle_192" data-name="Rectangle 192" width="1082.052" height="1082.052" transform="translate(693 5414.474)" fill="#393232"/>
    <rect id="Rectangle_194" data-name="Rectangle 194" width="1082.052" height="1082.052" transform="translate(692.992 2164.686)" fill="#f2edd7"/>
    <rect id="Rectangle_195" data-name="Rectangle 195" width="1082.052" height="1082.052" transform="translate(692.999 7578.58)" fill="#f2edd7"/>
    <path id="Path_14686" data-name="Path 14686" d="M2432.036-1892.646h-99.6a41.621,41.621,0,0,0-29.522,12.227,41.624,41.624,0,0,0-12.231,29.526,41.752,41.752,0,0,0,41.753,41.753h99.6a41.634,41.634,0,0,0,29.522-12.227,41.625,41.625,0,0,0,12.231-29.526A41.752,41.752,0,0,0,2432.036-1892.646Zm-13.392,46.337h-72.818v-9.168h72.818Z" transform="translate(-770.42 4511.221)" fill="#393232"/>
    <path id="Path_14687" data-name="Path 14687" d="M352.425-1850.9l32.148,41.756H293.016l-26.424-30.936v30.936H201.46v-83.509h65.132v30.936l26.424-30.936h91.556Z" transform="translate(565.252 4511.225)" fill="#393232"/>
    <rect id="Rectangle_196" data-name="Rectangle 196" width="183.11" height="83.509" transform="translate(1331.926 2527.807)" fill="#393232"/>
    <path id="Path_14688" data-name="Path 14688" d="M906.929-1389.347v51.967l-40.966,31.542H764.787L723.82-1337.38v-51.967h49.8l41.756,32.148,41.753-32.148Z" transform="translate(231.299 4189.455)" fill="#393232"/>
    <path id="Path_14689" data-name="Path 14689" d="M384.572-1389.347v83.509H201.46v-83.509h63.978v31.03h53.035v-31.03Z" transform="translate(565.252 4189.455)" fill="#393232"/>
    <path id="Path_14690" data-name="Path 14690" d="M2473.979-1641v52.479h-52.847v31.03h-77.414v-31.03h-52.847V-1641Z" transform="translate(-770.541 4350.338)" fill="#393232"/>
    <path id="Path_14691" data-name="Path 14691" d="M765.558-1641v52.613H723.82v30.9H906.928V-1641Zm105.893,30.911H798.633v-9.165h72.818Z" transform="translate(231.299 4350.338)" fill="#393232"/>
    <path id="Path_14692" data-name="Path 14692" d="M1951.633-1892.651v83.509h-59.448l-64.213-26.225v26.225H1768.52v-83.509h59.452l64.213,26.225v-26.225Z" transform="translate(-436.595 4511.225)" fill="#393232"/>
    <path id="Path_14693" data-name="Path 14693" d="M2472.928-2144.3v83.509H2289.82v-30.936h105.006V-2144.3Z" transform="translate(-769.87 4672.107)" fill="#393232"/>
    <path id="Path_14694" data-name="Path 14694" d="M723.821-1892.65v83.509H906.929v-30.936H801.923v-52.573Z" transform="translate(231.299 4511.225)" fill="#393232"/>
    <path id="Path_14695" data-name="Path 14695" d="M1429.279-2144.3v83.509h-59.448v-26.225h-64.213v26.225H1246.17V-2144.3h59.448v26.225h64.213V-2144.3Z" transform="translate(-102.647 4672.107)" fill="#393232"/>
    <path id="Path_14696" data-name="Path 14696" d="M1909.876-2395.946H1768.52v83.506h141.356a41.635,41.635,0,0,0,29.522-12.227,41.625,41.625,0,0,0,12.231-29.526A41.754,41.754,0,0,0,1909.876-2395.946Zm-20.241,46.337h-72.815v-9.165h72.815Z" transform="translate(-436.595 4832.99)" fill="#393232"/>
    <path id="Path_14697" data-name="Path 14697" d="M384.572-2395.951v83.51H319.555v-30.936H266.477v30.936H201.46v-83.51Z" transform="translate(565.252 4832.992)" fill="#393232"/>
    <path id="Path_14698" data-name="Path 14698" d="M1429.28-1892.651v83.509h-65.129v-30.936l-26.424,26.424-26.424-26.424v30.936h-65.132v-83.509h75.693l15.863,15.863,15.859-15.863Z" transform="translate(-102.648 4511.225)" fill="#393232"/>
    <path id="Path_14699" data-name="Path 14699" d="M1246.172-1305.838v-83.509H1311.3v30.936l26.424-26.424,26.424,26.424v-30.936h65.132v83.509h-75.693l-15.863-15.863-15.859,15.863Z" transform="translate(-102.648 4189.455)" fill="#393232"/>
    <rect id="Rectangle_197" data-name="Rectangle 197" width="183.11" height="83.509" transform="translate(955.118 2437.041)" fill="#393232"/>
    <path id="Path_14700" data-name="Path 14700" d="M1310.382-2365.015v30.932h118.9v21.641H1246.17v-83.51h183.109v30.936Z" transform="translate(-102.647 4832.992)" fill="#393232"/>
    <path id="Path_14701" data-name="Path 14701" d="M788.033-2113.365v30.932h77.839v-10.056h41.057v31.7H723.82V-2144.3H906.929v30.936Z" transform="translate(231.299 4672.107)" fill="#393232"/>
    <g id="Group_641" data-name="Group 641" transform="translate(1045.554 2458.811)">
      <rect id="Rectangle_198" data-name="Rectangle 198" width="72.816" height="9.166" transform="translate(0 30.807)" fill="#f2edd7"/>
      <rect id="Rectangle_199" data-name="Rectangle 199" width="72.816" height="9.166" transform="translate(0 0)" fill="#f2edd7"/>
    </g>
    <path id="Path_14702" data-name="Path 14702" d="M291.9-2122.533v9.165h92.674v21.641H291.9v30.936H201.46V-2144.3H384.572v21.767Z" transform="translate(565.252 4672.107)" fill="#393232"/>
    <path id="Path_14703" data-name="Path 14703" d="M201.46-1641v83.509H291.9v-30.936h92.674V-1641Zm163.314,30.911H291.956v-9.165h72.819Z" transform="translate(565.252 4350.338)" fill="#393232"/>
    <path id="Path_14704" data-name="Path 14704" d="M2354.411-2374.183v9.169h118.517v21.641H2354.411v9.165h118.517v21.767H2289.82v-83.51h183.108v21.767Z" transform="translate(-769.87 4832.992)" fill="#393232"/>
    <path id="Path_14705" data-name="Path 14705" d="M1246.17-1641v83.509h90.438v-30.936h15.524v30.936h77.15V-1641Zm90.5,30.911v-9.165h72.818v9.165Z" transform="translate(-102.647 4350.338)" fill="#393232"/>
    <rect id="Rectangle_200" data-name="Rectangle 200" width="53.078" height="9.166" transform="translate(831.729 2469.631)" fill="#393232"/>
    <path id="Path_14706" data-name="Path 14706" d="M1860.076-1628.471v17.518h91.556v53.464H1768.52v-12.527h91.556v-17.518H1768.52V-1641h183.112v12.526Z" transform="translate(-436.595 4350.338)" fill="#393232"/>
    <path id="Path_14707" data-name="Path 14707" d="M293.016-1125.171v17.518H201.46v53.464H384.572v-12.527H293.016v-17.518h91.556V-1137.7H201.46v12.527Z" transform="translate(565.252 4028.57)" fill="#393232"/>
    <path id="Path_14708" data-name="Path 14708" d="M2473.979-1389.35v5.756l-52.847,52.844v24.909h-77.414v-24.909l-52.847-52.847v-5.753h65.06l26.456,26.456,26.456-26.456Z" transform="translate(-770.541 4189.455)" fill="#393232"/>
    <path id="Path_14709" data-name="Path 14709" d="M1918.038-1347.587h-.592l34.186,26.236v15.517H1886.5l-26.42-26.236-26.42,26.236H1768.52v-15.517l33.594-26.236h.591l-34.186-26.236v-15.517h65.136l26.42,26.236,26.42-26.236h65.136v15.517Z" transform="translate(-436.595 4189.449)" fill="#393232"/>
    <path id="Path_14710" data-name="Path 14710" d="M-710.552-1892.646h-99.6a41.622,41.622,0,0,0-29.522,12.227,41.624,41.624,0,0,0-12.231,29.526,41.752,41.752,0,0,0,41.753,41.753h99.6a41.634,41.634,0,0,0,29.522-12.227,41.624,41.624,0,0,0,12.231-29.526A41.752,41.752,0,0,0-710.552-1892.646Zm-13.392,46.337h-72.818v-9.168h72.818Z" transform="translate(2371.12 5596.905)" fill="#f2edd7"/>
    <path id="Path_14711" data-name="Path 14711" d="M-2790.164-1850.9l32.148,41.756h-91.556L-2876-1840.077v30.936h-65.132v-83.509H-2876v30.936l26.424-30.936h91.556Z" transform="translate(3706.792 5596.907)" fill="#f2edd7"/>
    <rect id="Rectangle_201" data-name="Rectangle 201" width="183.11" height="83.509" transform="translate(1330.876 3613.491)" fill="#f2edd7"/>
    <path id="Path_14712" data-name="Path 14712" d="M-2235.66-1389.347v51.967l-40.966,31.542H-2377.8l-40.967-31.542v-51.967h49.8l41.756,32.148,41.753-32.148Z" transform="translate(3372.838 5275.138)" fill="#f2edd7"/>
    <path id="Path_14713" data-name="Path 14713" d="M-2758.016-1389.347v83.509h-183.112v-83.509h63.978v31.03h53.035v-31.03Z" transform="translate(3706.792 5275.138)" fill="#f2edd7"/>
    <path id="Path_14714" data-name="Path 14714" d="M-668.609-1641v52.479h-52.847v31.03H-798.87v-31.03h-52.847V-1641Z" transform="translate(2370.998 5436.021)" fill="#f2edd7"/>
    <path id="Path_14715" data-name="Path 14715" d="M-2377.03-1641v52.613h-41.739v30.9h183.108V-1641Zm105.893,30.911h-72.819v-9.165h72.819Z" transform="translate(3372.838 5436.021)" fill="#f2edd7"/>
    <path id="Path_14716" data-name="Path 14716" d="M-1190.956-1892.651v83.509H-1250.4l-64.213-26.225v26.225h-59.452v-83.509h59.452l64.213,26.225v-26.225Z" transform="translate(2704.945 5596.907)" fill="#f2edd7"/>
    <path id="Path_14717" data-name="Path 14717" d="M-669.66-2144.3v83.509H-852.768v-30.936h105.006V-2144.3Z" transform="translate(2371.669 5757.792)" fill="#f2edd7"/>
    <path id="Path_14718" data-name="Path 14718" d="M-2418.768-1892.65v83.509h183.108v-30.936h-105.006v-52.573Z" transform="translate(3372.838 5596.907)" fill="#f2edd7"/>
    <path id="Path_14719" data-name="Path 14719" d="M-1713.309-2144.3v83.509h-59.448v-26.225h-64.213v26.225h-59.448V-2144.3h59.448v26.225h64.213V-2144.3Z" transform="translate(3038.891 5757.792)" fill="#f2edd7"/>
    <path id="Path_14720" data-name="Path 14720" d="M-1232.712-2395.946h-141.356v83.506h141.356a41.635,41.635,0,0,0,29.522-12.227,41.625,41.625,0,0,0,12.231-29.526A41.754,41.754,0,0,0-1232.712-2395.946Zm-20.242,46.337h-72.815v-9.165h72.815Z" transform="translate(2704.945 5918.673)" fill="#f2edd7"/>
    <path id="Path_14721" data-name="Path 14721" d="M-2758.016-2395.951v83.51h-65.017v-30.936h-53.078v30.936h-65.017v-83.51Z" transform="translate(3706.792 5918.676)" fill="#f2edd7"/>
    <path id="Path_14722" data-name="Path 14722" d="M-1713.308-1892.651v83.509h-65.129v-30.936l-26.424,26.424-26.424-26.424v30.936h-65.132v-83.509h75.693l15.863,15.863,15.859-15.863Z" transform="translate(3038.89 5596.908)" fill="#f2edd7"/>
    <path id="Path_14723" data-name="Path 14723" d="M-1896.416-1305.838v-83.509h65.129v30.936l26.424-26.424,26.424,26.424v-30.936h65.132v83.509H-1789l-15.863-15.863-15.859,15.863Z" transform="translate(3038.89 5275.138)" fill="#f2edd7"/>
    <rect id="Rectangle_202" data-name="Rectangle 202" width="183.11" height="83.509" transform="translate(954.068 3522.726)" fill="#f2edd7"/>
    <path id="Path_14724" data-name="Path 14724" d="M-1832.206-2365.015v30.932h118.9v21.641h-183.109v-83.51h183.109v30.936Z" transform="translate(3038.891 5918.676)" fill="#f2edd7"/>
    <path id="Path_14725" data-name="Path 14725" d="M-2354.556-2113.365v30.932h77.839v-10.056h41.056v31.7h-183.108V-2144.3h183.108v30.936Z" transform="translate(3372.838 5757.792)" fill="#f2edd7"/>
    <g id="Group_642" data-name="Group 642" transform="translate(1044.504 3544.494)">
      <rect id="Rectangle_203" data-name="Rectangle 203" width="72.816" height="9.166" transform="translate(0 30.807)" fill="#3a6351"/>
      <rect id="Rectangle_204" data-name="Rectangle 204" width="72.816" height="9.166" transform="translate(0 0)" fill="#3a6351"/>
    </g>
    <path id="Path_14726" data-name="Path 14726" d="M-2850.69-2122.533v9.165h92.674v21.641h-92.674v30.936h-90.438V-2144.3h183.112v21.767Z" transform="translate(3706.792 5757.792)" fill="#f2edd7"/>
    <path id="Path_14727" data-name="Path 14727" d="M-2941.128-1641v83.509h90.438v-30.936h92.674V-1641Zm163.314,30.911h-72.818v-9.165h72.818Z" transform="translate(3706.792 5436.021)" fill="#f2edd7"/>
    <path id="Path_14728" data-name="Path 14728" d="M-788.177-2374.183v9.169H-669.66v21.641H-788.177v9.165H-669.66v21.767H-852.768v-83.51H-669.66v21.767Z" transform="translate(2371.669 5918.676)" fill="#f2edd7"/>
    <path id="Path_14729" data-name="Path 14729" d="M-1896.418-1641v83.509h90.438v-30.936h15.524v30.936h77.15V-1641Zm90.5,30.911v-9.165h72.819v9.165Z" transform="translate(3038.891 5436.021)" fill="#f2edd7"/>
    <rect id="Rectangle_205" data-name="Rectangle 205" width="53.078" height="9.166" transform="translate(830.68 3555.313)" fill="#f2edd7"/>
    <path id="Path_14730" data-name="Path 14730" d="M-2849.572-1125.171v17.518h-91.556v53.464h183.112v-12.527h-91.556v-17.518h91.556V-1137.7h-183.112v12.527Z" transform="translate(3706.792 5114.254)" fill="#f2edd7"/>
    <path id="Path_14731" data-name="Path 14731" d="M-668.609-1389.35v5.756l-52.847,52.844v24.909H-798.87v-24.909l-52.847-52.847v-5.753h65.06l26.456,26.456,26.456-26.456Z" transform="translate(2370.998 5275.14)" fill="#f2edd7"/>
    <path id="Path_14732" data-name="Path 14732" d="M-1224.55-1347.587h-.592l34.186,26.236v15.517h-65.136l-26.42-26.236-26.42,26.236h-65.136v-15.517l33.594-26.236h.592l-34.186-26.236v-15.517h65.136l26.42,26.236,26.42-26.236h65.136v15.517Z" transform="translate(2704.945 5275.133)" fill="#f2edd7"/>
    <path id="Path_14733" data-name="Path 14733" d="M-710.552-5021.116h-99.6a41.623,41.623,0,0,0-29.522,12.227,41.625,41.625,0,0,0-12.231,29.525,41.752,41.752,0,0,0,41.753,41.753h99.6a41.636,41.636,0,0,0,29.522-12.227,41.624,41.624,0,0,0,12.231-29.526A41.751,41.751,0,0,0-710.552-5021.116Zm-13.392,46.337h-72.818v-9.168h72.818Z" transform="translate(2371.12 6554.006)" fill="#f2edd7"/>
    <rect id="Rectangle_206" data-name="Rectangle 206" width="183.11" height="83.509" transform="translate(1330.876 1442.122)" fill="#f2edd7"/>
    <path id="Path_14735" data-name="Path 14735" d="M-2235.66-4517.818v51.968l-40.966,31.542H-2377.8l-40.967-31.542v-51.968h49.8l41.756,32.148,41.753-32.148Z" transform="translate(3372.838 6232.24)" fill="#f2edd7"/>
    <path id="Path_14737" data-name="Path 14737" d="M-668.609-4769.468v52.479h-52.847v31.029H-798.87v-31.029h-52.847v-52.479Z" transform="translate(2370.998 6393.123)" fill="#f2edd7"/>
    <path id="Path_14738" data-name="Path 14738" d="M-2377.03-4769.468v52.613h-41.739v30.9h183.108v-83.509Zm105.893,30.91h-72.819v-9.165h72.819Z" transform="translate(3372.838 6393.123)" fill="#f2edd7"/>
    <path id="Path_14739" data-name="Path 14739" d="M-1190.956-5021.121v83.509H-1250.4l-64.213-26.225v26.225h-59.452v-83.509h59.452l64.213,26.225v-26.225Z" transform="translate(2704.945 6554.01)" fill="#f2edd7"/>
    <path id="Path_14740" data-name="Path 14740" d="M-669.66-5272.771v83.509H-852.768V-5220.2h105.006v-52.573Z" transform="translate(2371.669 6714.893)" fill="#f2edd7"/>
    <path id="Path_14741" data-name="Path 14741" d="M-2418.768-5021.121v83.509h183.108v-30.936h-105.006v-52.573Z" transform="translate(3372.838 6554.01)" fill="#f2edd7"/>
    <path id="Path_14742" data-name="Path 14742" d="M-1713.309-5272.771v83.509h-59.448v-26.226h-64.213v26.226h-59.448v-83.509h59.448v26.225h64.213v-26.225Z" transform="translate(3038.891 6714.893)" fill="#f2edd7"/>
    <path id="Path_14743" data-name="Path 14743" d="M-1232.712-5524.416h-141.356v83.505h141.356a41.634,41.634,0,0,0,29.522-12.227,41.626,41.626,0,0,0,12.231-29.526A41.754,41.754,0,0,0-1232.712-5524.416Zm-20.242,46.337h-72.815v-9.166h72.815Z" transform="translate(2704.945 6875.773)" fill="#f2edd7"/>
    <path id="Path_14745" data-name="Path 14745" d="M-1713.308-5021.121v83.509h-65.129v-30.936l-26.424,26.423-26.424-26.423v30.936h-65.132v-83.509h75.693l15.863,15.863,15.859-15.863Z" transform="translate(3038.89 6554.01)" fill="#f2edd7"/>
    <path id="Path_14746" data-name="Path 14746" d="M-1896.416-4434.309v-83.509h65.129v30.936l26.424-26.423,26.424,26.423v-30.936h65.132v83.509H-1789l-15.863-15.863-15.859,15.863Z" transform="translate(3038.89 6232.24)" fill="#f2edd7"/>
    <path id="Path_14747" data-name="Path 14747" d="M-2418.768-5524.419v83.509h183.108v-83.509Zm163.249,61.742h-72.815v-9.169h72.815Zm0-30.81h-72.815v-9.165h72.815Z" transform="translate(3372.838 6875.775)" fill="#f2edd7"/>
    <path id="Path_14748" data-name="Path 14748" d="M-1832.206-5493.485v30.933h118.9v21.641h-183.109v-83.509h183.109v30.936Z" transform="translate(3038.891 6875.777)" fill="#f2edd7"/>
    <path id="Path_14749" data-name="Path 14749" d="M-2354.556-5241.835v30.933h77.839v-10.056h41.056v31.7h-183.108v-83.509h183.108v30.936Z" transform="translate(3372.838 6714.893)" fill="#f2edd7"/>
    <path id="Path_14752" data-name="Path 14752" d="M-788.177-5502.654v9.168H-669.66v21.641H-788.177v9.165H-669.66v21.767H-852.768v-83.509H-669.66v21.767Z" transform="translate(2371.669 6875.777)" fill="#f2edd7"/>
    <path id="Path_14757" data-name="Path 14757" d="M-1896.418-4769.468v83.509h90.438v-30.936h15.524v30.936h77.15v-83.509Zm90.5,30.91v-9.165h72.819v9.165Z" transform="translate(3038.891 6393.123)" fill="#f2edd7"/>
    <path id="Path_14758" data-name="Path 14758" d="M-1282.512-4756.941v17.518h91.556v53.464h-183.112v-12.526h91.556V-4716h-91.556v-53.464h183.112v12.526Z" transform="translate(2704.945 6393.123)" fill="#f2edd7"/>
    <path id="Path_14759" data-name="Path 14759" d="M-1282.517-1628.46v17.518h91.551v53.462h-183.1v-12.526h91.552v-17.518h-91.552v-53.461h183.1v12.526Z" transform="translate(2704.945 5436.014)" fill="#f2edd7"/>
    <path id="Path_14761" data-name="Path 14761" d="M-668.609-4517.821v5.757l-52.847,52.844v24.909H-798.87v-24.909l-52.847-52.848v-5.753h65.06l26.456,26.457,26.456-26.457Z" transform="translate(2370.998 6232.242)" fill="#f2edd7"/>
    <path id="Path_14762" data-name="Path 14762" d="M-1224.55-4476.058h-.592l34.186,26.237v15.516h-65.136l-26.42-26.236-26.42,26.236h-65.136v-15.516l33.594-26.237h.592l-34.186-26.236v-15.517h65.136l26.42,26.236,26.42-26.236h65.136v15.517Z" transform="translate(2704.945 6232.234)" fill="#f2edd7"/>
    <path id="Path_14763" data-name="Path 14763" d="M1765.578,1274.209v83.509H1948.69v-83.509Zm127.963,46.337h-72.815v-9.165h72.815Z" transform="translate(-435.762 4599.853)" fill="#f2edd7"/>
    <path id="Path_14764" data-name="Path 14764" d="M384.561,616.207V532.7H201.453v30.936H256.6v52.573Z" transform="translate(564.208 5073.911)" fill="#f2edd7"/>
    <path id="Path_14765" data-name="Path 14765" d="M384.561,1357.717v-83.509H201.453v30.936H306.458v52.573Z" transform="translate(564.208 4599.853)" fill="#f2edd7"/>
    <path id="Path_14766" data-name="Path 14766" d="M839.38,801.635V810.8H720.863v21.641H839.38v9.165H720.863v21.767H903.971V779.868H720.863v21.767Z" transform="translate(232.141 4915.892)" fill="#f2edd7"/>
    <path id="Path_14767" data-name="Path 14767" d="M903.975,1274.209H720.863v29.417l12.335,12.335,0,0L720.863,1328.3v29.414H903.975V1328.3l-12.339-12.339,12.339-12.339Zm-55.148,67.214H776.012v-9.165h72.815Zm0-41.753H776.012V1290.5h72.815Z" transform="translate(232.141 4599.853)" fill="#f2edd7"/>
    <path id="Path_14768" data-name="Path 14768" d="M812.419,1039.565v17.518h61.418a30.138,30.138,0,0,1,30.138,30.138v23.326H720.863v-12.527h91.556V1080.5H720.863v-53.464H903.975v12.527Z" transform="translate(232.141 4757.872)" fill="#f2edd7"/>
    <path id="Path_14769" data-name="Path 14769" d="M293.009,792.395v17.518H231.591a30.138,30.138,0,0,0-30.138,30.138v23.326H384.565V850.851H293.009V833.332h91.556V779.868H201.453v12.527Z" transform="translate(564.208 4915.892)" fill="#f2edd7"/>
    <path id="Path_14770" data-name="Path 14770" d="M1423.391,1042.273v-15.235H1240.283v83.509h183.108v-53.035H1293.318v-15.239Zm-127.963,37.172h72.819v9.165h-72.819Z" transform="translate(-99.933 4757.872)" fill="#f2edd7"/>
    <path id="Path_14771" data-name="Path 14771" d="M1240.283,1342.483v15.235h183.108v-83.509H1240.283v53.035h130.073v15.239Zm127.963-37.172h-72.819v-9.165h72.819Z" transform="translate(-99.933 4599.853)" fill="#f2edd7"/>
    <path id="Path_14772" data-name="Path 14772" d="M384.561,1027.038v83.509H319.425v-26.24H201.453v-57.266h65.136v26.236h52.837v-26.24Z" transform="translate(564.208 4757.872)" fill="#f2edd7"/>
    <path id="Path_14773" data-name="Path 14773" d="M1948.69,1604.889V1521.38H1765.578v83.509Zm-55.149-37.172h-72.815v-9.165h72.815Z" transform="translate(-435.762 4441.831)" fill="#f2edd7"/>
    <path id="Path_14774" data-name="Path 14774" d="M384.561,2262.891V2346.4H201.453v-30.936H256.6v-52.573Z" transform="translate(564.208 3967.772)" fill="#f2edd7"/>
    <path id="Path_14775" data-name="Path 14775" d="M384.561,1521.381v83.509H201.453v-30.936H306.458v-52.573Z" transform="translate(564.208 4441.831)" fill="#f2edd7"/>
    <path id="Path_14776" data-name="Path 14776" d="M839.38,2077.463v-9.168H720.863v-21.641H839.38v-9.165H720.863v-21.767H903.971v83.509H720.863v-21.767Z" transform="translate(232.141 4125.792)" fill="#f2edd7"/>
    <path id="Path_14777" data-name="Path 14777" d="M903.975,1575.472l-12.339-12.339,12.339-12.339V1521.38H720.863v29.414l12.339,12.339,0,0-12.335,12.335v29.417H903.975Zm-55.148-28.631H776.012v-9.165h72.815Zm0,41.753H776.012v-9.165h72.815Z" transform="translate(232.141 4441.831)" fill="#f2edd7"/>
    <path id="Path_14778" data-name="Path 14778" d="M812.419,1839.534v-17.518h61.418a30.138,30.138,0,0,0,30.138-30.138v-23.326H720.863v12.527h91.556V1798.6H720.863v53.464H903.975v-12.527Z" transform="translate(232.141 4283.812)" fill="#f2edd7"/>
    <path id="Path_14779" data-name="Path 14779" d="M293.009,2086.7v-17.519H231.591a30.138,30.138,0,0,1-30.138-30.138v-23.326H384.565v12.526H293.009v17.519h91.556v53.464H201.453V2086.7Z" transform="translate(564.208 4125.792)" fill="#f2edd7"/>
    <path id="Path_14780" data-name="Path 14780" d="M1293.318,1836.825v-15.239h130.073v-53.035H1240.283v83.509h183.108v-15.235Zm2.11-46.337h72.819v9.165h-72.819Z" transform="translate(-99.933 4283.812)" fill="#f2edd7"/>
    <path id="Path_14781" data-name="Path 14781" d="M1370.356,1536.615v15.239H1240.283v53.035h183.108V1521.38H1240.283v15.235Zm-2.11,46.337h-72.819v-9.165h72.819Z" transform="translate(-99.933 4441.831)" fill="#f2edd7"/>
    <path id="Path_14782" data-name="Path 14782" d="M384.561,1852.06v-83.509H319.425v26.24H201.453v57.266h65.136V1825.82h52.837v26.24Z" transform="translate(564.208 4283.812)" fill="#f2edd7"/>
    <path id="Path_14823" data-name="Path 14823" d="M-851.721,755.9v83.509h183.112V755.9Zm127.963,46.337h-72.815v-9.165h72.815Z" transform="translate(2370.996 3849.163)" fill="#e48257"/>
    <path id="Path_14824" data-name="Path 14824" d="M-2758.027,588.078V504.569h-183.108V535.5h55.146v52.573Z" transform="translate(3706.792 4009.843)" fill="#e48257"/>
    <path id="Path_14825" data-name="Path 14825" d="M-2232.738,839.407V755.9h-183.108v30.936h105.006v52.573Z" transform="translate(3370.966 3849.163)" fill="#e48257"/>
    <path id="Path_14826" data-name="Path 14826" d="M-1777.916,526.336V535.5h-118.517v21.641h118.517v9.165h-118.517v21.767h183.108V504.569h-183.108v21.767Z" transform="translate(3038.897 4009.843)" fill="#e48257"/>
    <path id="Path_14827" data-name="Path 14827" d="M-1713.324,755.9h-183.112v29.417l12.335,12.335,0,0-12.339,12.339v29.414h183.112V809.994l-12.339-12.339,12.339-12.339Zm-55.148,67.214h-72.815v-9.165h72.815Zm0-41.753h-72.815v-9.165h72.815Z" transform="translate(3038.899 3849.163)" fill="#e48257"/>
    <path id="Path_14828" data-name="Path 14828" d="M-760.165,517.091v17.518h61.418a30.138,30.138,0,0,1,30.138,30.138v23.326H-851.721V575.547h91.556V558.028h-91.556V504.564h183.112v12.527Z" transform="translate(2370.996 4009.847)" fill="#e48257"/>
    <path id="Path_14829" data-name="Path 14829" d="M-2327.228,517.1v17.518h-61.418a30.138,30.138,0,0,0-30.138,30.138v23.326h183.112V575.552h-91.556V558.033h91.556V504.569h-183.112V517.1Z" transform="translate(3372.844 4009.843)" fill="#e48257"/>
    <path id="Path_14830" data-name="Path 14830" d="M-2758.028,771.134V755.9h-183.108v83.509h183.108V786.373H-2888.1V771.134Zm-127.964,37.172h72.819v9.165h-72.819Z" transform="translate(3706.792 3849.163)" fill="#e48257"/>
    <path id="Path_14831" data-name="Path 14831" d="M-1377.016,824.173v15.235h183.109V755.9h-183.109v53.035h130.073v15.239ZM-1249.053,787h-72.818v-9.165h72.818Z" transform="translate(2706.826 3849.163)" fill="#e48257"/>
    <path id="Path_14832" data-name="Path 14832" d="M-1190.975,504.564v83.509h-65.136v-26.24h-117.972V504.568h65.136V530.8h52.837v-26.24Z" transform="translate(2704.951 4009.845)" fill="#e48257"/>
    <path id="Path_14833" data-name="Path 14833" d="M-851.721,1258.568v83.509h183.112v-83.509Zm127.963,46.337h-72.815v-9.165h72.815Z" transform="translate(2370.996 3527.8)" fill="#e48257"/>
    <path id="Path_14834" data-name="Path 14834" d="M-2758.027,1090.747v-83.509h-183.108v30.936h55.146v52.573Z" transform="translate(3706.792 3688.478)" fill="#e48257"/>
    <path id="Path_14835" data-name="Path 14835" d="M-2232.738,1342.076v-83.509h-183.108V1289.5h105.006v52.573Z" transform="translate(3370.966 3527.8)" fill="#e48257"/>
    <path id="Path_14836" data-name="Path 14836" d="M-1777.916,1029.005v9.168h-118.517v21.641h118.517v9.165h-118.517v21.767h183.108v-83.509h-183.108v21.767Z" transform="translate(3038.897 3688.479)" fill="#e48257"/>
    <path id="Path_14837" data-name="Path 14837" d="M-1713.324,1258.568h-183.112v29.417l12.335,12.335,0,0-12.339,12.339v29.414h183.112v-29.414l-12.339-12.339,12.339-12.339Zm-55.148,67.214h-72.815v-9.165h72.815Zm0-41.753h-72.815v-9.165h72.815Z" transform="translate(3038.899 3527.8)" fill="#e48257"/>
    <path id="Path_14838" data-name="Path 14838" d="M-760.165,1019.76v17.518h61.418a30.138,30.138,0,0,1,30.138,30.138v23.326H-851.721v-12.526h91.556V1060.7h-91.556v-53.464h183.112v12.527Z" transform="translate(2370.996 3688.481)" fill="#e48257"/>
    <path id="Path_14839" data-name="Path 14839" d="M-2327.228,1019.765v17.518h-61.418a30.138,30.138,0,0,0-30.138,30.138v23.326h183.112v-12.526h-91.556V1060.7h91.556v-53.464h-183.112v12.527Z" transform="translate(3372.844 3688.478)" fill="#e48257"/>
    <path id="Path_14840" data-name="Path 14840" d="M-2758.028,1273.8v-15.235h-183.108v83.509h183.108v-53.035H-2888.1V1273.8Zm-127.964,37.172h72.819v9.165h-72.819Z" transform="translate(3706.792 3527.8)" fill="#e48257"/>
    <path id="Path_14841" data-name="Path 14841" d="M-1377.016,1326.842v15.235h183.109v-83.509h-183.109V1311.6h130.073v15.239Zm127.963-37.172h-72.818V1280.5h72.818Z" transform="translate(2706.826 3527.8)" fill="#e48257"/>
    <path id="Path_14842" data-name="Path 14842" d="M-1190.975,1007.233v83.509h-65.136V1064.5h-117.972v-57.266h65.136v26.236h52.837v-26.24Z" transform="translate(2704.951 3688.481)" fill="#e48257"/>
    <path id="Path_14843" data-name="Path 14843" d="M-851.721,1761.237v83.509h183.112v-83.509Zm127.963,46.337h-72.815v-9.165h72.815Z" transform="translate(2370.996 3206.435)" fill="#e48257"/>
    <path id="Path_14844" data-name="Path 14844" d="M-2758.027,1593.416v-83.509h-183.108v30.936h55.146v52.573Z" transform="translate(3706.792 3367.114)" fill="#e48257"/>
    <path id="Path_14845" data-name="Path 14845" d="M-2232.738,1844.745v-83.509h-183.108v30.936h105.006v52.573Z" transform="translate(3370.966 3206.435)" fill="#e48257"/>
    <path id="Path_14846" data-name="Path 14846" d="M-1777.916,1531.674v9.169h-118.517v21.641h118.517v9.165h-118.517v21.767h183.108v-83.509h-183.108v21.767Z" transform="translate(3038.897 3367.114)" fill="#e48257"/>
    <path id="Path_14847" data-name="Path 14847" d="M-1713.324,1761.237h-183.112v29.417l12.335,12.335,0,0-12.339,12.339v29.414h183.112v-29.414l-12.339-12.339,12.339-12.339Zm-55.148,67.214h-72.815v-9.165h72.815Zm0-41.753h-72.815v-9.165h72.815Z" transform="translate(3038.899 3206.435)" fill="#e48257"/>
    <path id="Path_14848" data-name="Path 14848" d="M-760.165,1522.429v17.518h61.418a30.138,30.138,0,0,1,30.138,30.138v23.326H-851.721v-12.527h91.556v-17.519h-91.556V1509.9h183.112v12.527Z" transform="translate(2370.996 3367.118)" fill="#e48257"/>
    <path id="Path_14849" data-name="Path 14849" d="M-2327.228,1522.434v17.518h-61.418a30.138,30.138,0,0,0-30.138,30.138v23.326h183.112V1580.89h-91.556v-17.518h91.556v-53.464h-183.112v12.527Z" transform="translate(3372.844 3367.114)" fill="#e48257"/>
    <path id="Path_14850" data-name="Path 14850" d="M-2758.028,1776.472v-15.235h-183.108v83.509h183.108v-53.035H-2888.1v-15.239Zm-127.964,37.172h72.819v9.165h-72.819Z" transform="translate(3706.792 3206.435)" fill="#e48257"/>
    <path id="Path_14851" data-name="Path 14851" d="M-1377.016,1829.511v15.235h183.109v-83.509h-183.109v53.035h130.073v15.239Zm127.963-37.172h-72.818v-9.165h72.818Z" transform="translate(2706.826 3206.435)" fill="#e48257"/>
    <path id="Path_14852" data-name="Path 14852" d="M-1190.975,1509.9v83.509h-65.136v-26.24h-117.972v-57.266h65.136v26.236h52.837V1509.9Z" transform="translate(2704.951 3367.116)" fill="#e48257"/>
    <path id="Path_14853" data-name="Path 14853" d="M-851.721,2263.906v83.509h183.112v-83.509Zm127.963,46.337h-72.815v-9.165h72.815Z" transform="translate(2370.996 2885.069)" fill="#e48257"/>
    <path id="Path_14854" data-name="Path 14854" d="M-2758.027,2096.085v-83.509h-183.108v30.936h55.146v52.573Z" transform="translate(3706.792 3045.749)" fill="#e48257"/>
    <path id="Path_14855" data-name="Path 14855" d="M-2232.738,2347.414v-83.509h-183.108v30.936h105.006v52.573Z" transform="translate(3370.966 2885.071)" fill="#e48257"/>
    <path id="Path_14856" data-name="Path 14856" d="M-1777.916,2034.343v9.168h-118.517v21.641h118.517v9.165h-118.517v21.767h183.108v-83.509h-183.108v21.767Z" transform="translate(3038.897 3045.749)" fill="#e48257"/>
    <path id="Path_14857" data-name="Path 14857" d="M-1713.324,2263.906h-183.112v29.417l12.335,12.335,0,0L-1896.436,2318v29.414h183.112V2318l-12.339-12.339,12.339-12.339Zm-55.148,67.213h-72.815v-9.165h72.815Zm0-41.752h-72.815V2280.2h72.815Z" transform="translate(3038.899 2885.069)" fill="#e48257"/>
    <path id="Path_14858" data-name="Path 14858" d="M-760.165,2025.1v17.518h61.418a30.138,30.138,0,0,1,30.138,30.139v23.326H-851.721v-12.527h91.556v-17.518h-91.556v-53.464h183.112V2025.1Z" transform="translate(2370.996 3045.753)" fill="#e48257"/>
    <path id="Path_14859" data-name="Path 14859" d="M-2327.228,2025.1v17.518h-61.418a30.138,30.138,0,0,0-30.138,30.138v23.326h183.112v-12.527h-91.556V2066.04h91.556v-53.464h-183.112V2025.1Z" transform="translate(3372.844 3045.749)" fill="#e48257"/>
    <path id="Path_14860" data-name="Path 14860" d="M-2758.028,2279.142v-15.235h-183.108v83.509h183.108v-53.035H-2888.1v-15.239Zm-127.964,37.172h72.819v9.165h-72.819Z" transform="translate(3706.792 2885.069)" fill="#e48257"/>
    <path id="Path_14861" data-name="Path 14861" d="M-1377.016,2332.18v15.235h183.109v-83.509h-183.109v53.035h130.073v15.239Zm127.963-37.172h-72.818v-9.165h72.818Z" transform="translate(2706.826 2885.069)" fill="#e48257"/>
    <path id="Path_14862" data-name="Path 14862" d="M-1190.975,2012.571v83.509h-65.136v-26.24h-117.972v-57.266h65.136v26.236h52.837v-26.24Z" transform="translate(2704.951 3045.753)" fill="#e48257"/>
    <g id="Group_645" data-name="Group 645" transform="translate(798.811 7796.678)">
      <path id="Path_14863" data-name="Path 14863" d="M1229.706-4661.5v62.178h324.955v189.757H904.751v-44.459h324.955V-4516.2H904.751v-189.757h649.91v44.459Z" transform="translate(-684.234 5055.425)" fill="none" stroke="#000" stroke-miterlimit="10" stroke-width="1.775"/>
      <path id="Path_14864" data-name="Path 14864" d="M333.215-4125v3.083H293.367v7.276h39.848v3.082H293.367v7.318h61.564v-28.077H293.367V-4125Z" transform="translate(-293.367 4688.69)" fill="#393232"/>
      <path id="Path_14865" data-name="Path 14865" d="M324.149-3980.544v5.89H303.5a10.133,10.133,0,0,0-10.133,10.133v7.842h61.564v-4.212H324.149v-5.89h30.782v-17.975H293.367v4.211Z" transform="translate(-293.367 4594.348)" fill="#393232"/>
      <path id="Path_14866" data-name="Path 14866" d="M470.87-3984.755v28.077h61.564v-28.077Zm43.023,15.579H489.411v-3.081h24.481Z" transform="translate(-406.848 4594.348)" fill="#393232"/>
      <path id="Path_14867" data-name="Path 14867" d="M470.87-4132.322v28.076h61.564v-28.076Zm43.023,15.579H489.411v-3.081h24.481Z" transform="translate(-406.848 4688.69)" fill="#393232"/>
      <g id="Group_644" data-name="Group 644" transform="translate(0.043 430.268)">
        <path id="Path_14868" data-name="Path 14868" d="M354.965-4476.5v-5.115H293.487v28.038h61.478v-17.806H311.293v-5.116ZM312-4464.018H336.45v3.077H312Z" transform="translate(-293.487 4481.729)" fill="#393232"/>
        <path id="Path_14869" data-name="Path 14869" d="M470.631-4481.935v28.076H532.2v-28.076Zm43.022,15.579H489.172v-3.081h24.481Z" transform="translate(-406.738 4481.935)" fill="#393232"/>
      </g>
      <line id="Line_58" data-name="Line 58" y2="44.46" transform="translate(149.051 601.402)" fill="none" stroke="#000" stroke-miterlimit="10" stroke-width="1.775"/>
      <line id="Line_59" data-name="Line 59" y2="62.364" transform="translate(149.051 539.224)" fill="none" stroke="#000" stroke-miterlimit="10" stroke-width="2.102"/>
      <line id="Line_60" data-name="Line 60" y2="189.758" transform="translate(149.051 349.467)" fill="none" stroke="#000" stroke-miterlimit="10" stroke-width="2"/>
      <rect id="Rectangle_207" data-name="Rectangle 207" width="143.263" height="143.263" rx="71.632" transform="translate(148.687 0)" fill="#3a6351"/>
      <rect id="Rectangle_208" data-name="Rectangle 208" width="143.263" height="143.263" rx="71.632" transform="translate(291.95 0)" fill="#f2edd7" stroke="#000" stroke-miterlimit="10" stroke-width="0.658"/>
      <rect id="Rectangle_209" data-name="Rectangle 209" width="143.263" height="143.263" rx="71.632" transform="translate(435.213 0)" fill="#e48257"/>
      <rect id="Rectangle_210" data-name="Rectangle 210" width="143.263" height="143.263" rx="71.632" transform="translate(578.477 0)" fill="#393232"/>
    </g>
    <path id="Path_14734" data-name="Path 14734" d="M-2790.164-4979.369l32.148,41.756h-91.556L-2876-4968.548v30.936h-65.132v-83.509H-2876v30.936l26.424-30.936h91.556Z" transform="translate(3706.792 6554.01)" fill="#f2edd7"/>
    <path id="Path_14736" data-name="Path 14736" d="M-2758.016-4517.818v83.509h-183.112v-83.509h63.978v31.029h53.035v-31.029Z" transform="translate(3706.792 6232.24)" fill="#f2edd7"/>
    <path id="Path_14744" data-name="Path 14744" d="M-2941.128-5524.419v83.509h65.017v-30.936h53.078v30.936h65.017v-83.509Zm118.095,41.753h-53.078v-9.165h53.078Z" transform="translate(3706.792 6875.775)" fill="#f2edd7"/>
    <path id="Path_14750" data-name="Path 14750" d="M-2850.69-5251v9.165h92.674v21.641h-92.674v30.936h-90.438v-83.509h183.112V-5251Z" transform="translate(3706.792 6714.893)" fill="#f2edd7"/>
    <path id="Path_14751" data-name="Path 14751" d="M-2941.128-4769.468v83.509h90.438v-30.936h92.674v-52.573Zm163.314,30.91h-72.818v-9.165h72.818Z" transform="translate(3706.792 6393.123)" fill="#f2edd7"/>
    <path id="Path_14760" data-name="Path 14760" d="M-2849.572-4253.642v17.518h-91.556v53.464h183.112v-12.526h-91.556V-4212.7h91.556v-53.464h-183.112v12.527Z" transform="translate(3706.792 6071.357)" fill="#f2edd7"/>
    <rect id="Rectangle_193" data-name="Rectangle 193" width="1082.052" height="1082.052" transform="translate(693 6496.527)" fill="#f2edd7"/>
    <g id="Group_643" data-name="Group 643" transform="translate(765.66 6678.512)">
      <path id="Path_14783" data-name="Path 14783" d="M-3943.485,755.9v83.509h183.112V755.9Zm127.963,46.337h-72.815v-9.165h72.815Z" transform="translate(4697.104 -665.247)" fill="#3a6351"/>
      <path id="Path_14784" data-name="Path 14784" d="M-5849.792,588.078V504.569H-6032.9V535.5h55.146v52.573Z" transform="translate(6032.901 -504.567)" fill="#3a6351"/>
      <path id="Path_14785" data-name="Path 14785" d="M-5324.5,839.407V755.9h-183.108v30.936H-5402.6v52.573Z" transform="translate(5697.074 -665.246)" fill="#3a6351"/>
      <path id="Path_14786" data-name="Path 14786" d="M-4869.681,526.336V535.5H-4988.2v21.641h118.517v9.165H-4988.2v21.767h183.108V504.569H-4988.2v21.767Z" transform="translate(5365.005 -504.567)" fill="#3a6351"/>
      <path id="Path_14787" data-name="Path 14787" d="M-4805.088,755.9H-4988.2v29.417l12.335,12.335,0,0-12.339,12.339v29.414h183.112V809.994l-12.339-12.339,12.339-12.339Zm-55.148,67.214h-72.815v-9.165h72.815Zm0-41.753h-72.815v-9.165h72.815Z" transform="translate(5365.007 -665.247)" fill="#3a6351"/>
      <path id="Path_14788" data-name="Path 14788" d="M-3851.929,517.091v17.518h61.418a30.138,30.138,0,0,1,30.138,30.138v23.326h-183.112V575.547h91.556V558.028h-91.556V504.564h183.112v12.527Z" transform="translate(4697.104 -504.564)" fill="#3a6351"/>
      <path id="Path_14789" data-name="Path 14789" d="M-5418.993,517.1v17.518h-61.418a30.139,30.139,0,0,0-30.138,30.138v23.326h183.112V575.552h-91.556V558.033h91.556V504.569h-183.112V517.1Z" transform="translate(5698.953 -504.567)" fill="#3a6351"/>
      <path id="Path_14790" data-name="Path 14790" d="M-5849.792,771.134V755.9H-6032.9v83.509h183.109V786.373h-130.074V771.134Zm-127.963,37.172h72.818v9.165h-72.818Z" transform="translate(6032.9 -665.247)" fill="#3a6351"/>
      <path id="Path_14791" data-name="Path 14791" d="M-4468.78,824.173v15.235h183.108V755.9H-4468.78v53.035h130.073v15.239ZM-4340.817,787h-72.818v-9.165h72.818Z" transform="translate(5032.934 -665.247)" fill="#3a6351"/>
      <path id="Path_14792" data-name="Path 14792" d="M-4282.741,504.564v83.509h-65.136v-26.24h-117.973V504.568h65.136V530.8h52.836v-26.24Z" transform="translate(5031.06 -504.564)" fill="#3a6351"/>
      <path id="Path_14793" data-name="Path 14793" d="M-3943.485,1258.568v83.509h183.112v-83.509Zm127.963,46.337h-72.815v-9.165h72.815Z" transform="translate(4697.104 -986.611)" fill="#3a6351"/>
      <path id="Path_14794" data-name="Path 14794" d="M-5849.792,1090.747v-83.509H-6032.9v30.936h55.146v52.573Z" transform="translate(6032.901 -825.932)" fill="#3a6351"/>
      <path id="Path_14795" data-name="Path 14795" d="M-5324.5,1342.076v-83.509h-183.108V1289.5H-5402.6v52.573Z" transform="translate(5697.074 -986.61)" fill="#3a6351"/>
      <path id="Path_14796" data-name="Path 14796" d="M-4869.681,1029.005v9.168H-4988.2v21.641h118.517v9.165H-4988.2v21.767h183.108v-83.509H-4988.2v21.767Z" transform="translate(5365.005 -825.932)" fill="#3a6351"/>
      <path id="Path_14797" data-name="Path 14797" d="M-4805.088,1258.568H-4988.2v29.417l12.335,12.335,0,0-12.339,12.339v29.414h183.112v-29.414l-12.339-12.339,12.339-12.339Zm-55.148,67.214h-72.815v-9.165h72.815Zm0-41.753h-72.815v-9.165h72.815Z" transform="translate(5365.007 -986.611)" fill="#3a6351"/>
      <path id="Path_14798" data-name="Path 14798" d="M-3851.929,1019.76v17.518h61.418a30.138,30.138,0,0,1,30.138,30.138v23.326h-183.112v-12.526h91.556V1060.7h-91.556v-53.464h183.112v12.527Z" transform="translate(4697.104 -825.928)" fill="#3a6351"/>
      <path id="Path_14799" data-name="Path 14799" d="M-5418.993,1019.765v17.518h-61.418a30.138,30.138,0,0,0-30.138,30.138v23.326h183.112v-12.526h-91.556V1060.7h91.556v-53.464h-183.112v12.527Z" transform="translate(5698.953 -825.932)" fill="#3a6351"/>
      <path id="Path_14800" data-name="Path 14800" d="M-5849.792,1273.8v-15.235H-6032.9v83.509h183.109v-53.035h-130.074V1273.8Zm-127.963,37.172h72.818v9.165h-72.818Z" transform="translate(6032.9 -986.611)" fill="#3a6351"/>
      <path id="Path_14801" data-name="Path 14801" d="M-4468.78,1326.842v15.235h183.108v-83.509H-4468.78V1311.6h130.073v15.239Zm127.963-37.172h-72.818V1280.5h72.818Z" transform="translate(5032.934 -986.611)" fill="#3a6351"/>
      <path id="Path_14802" data-name="Path 14802" d="M-4282.741,1007.233v83.509h-65.136V1064.5h-117.973v-57.266h65.136v26.236h52.836v-26.24Z" transform="translate(5031.06 -825.928)" fill="#3a6351"/>
      <path id="Path_14803" data-name="Path 14803" d="M-3943.485,1761.237v83.509h183.112v-83.509Zm127.963,46.337h-72.815v-9.165h72.815Z" transform="translate(4697.104 -1307.975)" fill="#3a6351"/>
      <path id="Path_14804" data-name="Path 14804" d="M-5849.792,1593.416v-83.509H-6032.9v30.936h55.146v52.573Z" transform="translate(6032.901 -1147.296)" fill="#3a6351"/>
      <path id="Path_14805" data-name="Path 14805" d="M-5324.5,1844.745v-83.509h-183.108v30.936H-5402.6v52.573Z" transform="translate(5697.074 -1307.974)" fill="#3a6351"/>
      <path id="Path_14806" data-name="Path 14806" d="M-4869.681,1531.674v9.169H-4988.2v21.641h118.517v9.165H-4988.2v21.767h183.108v-83.509H-4988.2v21.767Z" transform="translate(5365.005 -1147.296)" fill="#3a6351"/>
      <path id="Path_14807" data-name="Path 14807" d="M-4805.088,1761.237H-4988.2v29.417l12.335,12.335,0,0-12.339,12.339v29.414h183.112v-29.414l-12.339-12.339,12.339-12.339Zm-55.148,67.214h-72.815v-9.165h72.815Zm0-41.753h-72.815v-9.165h72.815Z" transform="translate(5365.007 -1307.975)" fill="#3a6351"/>
      <path id="Path_14808" data-name="Path 14808" d="M-3851.929,1522.429v17.518h61.418a30.138,30.138,0,0,1,30.138,30.138v23.326h-183.112v-12.527h91.556v-17.519h-91.556V1509.9h183.112v12.527Z" transform="translate(4697.104 -1147.293)" fill="#3a6351"/>
      <path id="Path_14809" data-name="Path 14809" d="M-5418.993,1522.434v17.518h-61.418a30.138,30.138,0,0,0-30.138,30.138v23.326h183.112V1580.89h-91.556v-17.518h91.556v-53.464h-183.112v12.527Z" transform="translate(5698.953 -1147.296)" fill="#3a6351"/>
      <path id="Path_14810" data-name="Path 14810" d="M-5849.792,1776.472v-15.235H-6032.9v83.509h183.109v-53.035h-130.074v-15.239Zm-127.963,37.172h72.818v9.165h-72.818Z" transform="translate(6032.9 -1307.975)" fill="#3a6351"/>
      <path id="Path_14811" data-name="Path 14811" d="M-4468.78,1829.511v15.235h183.108v-83.509H-4468.78v53.035h130.073v15.239Zm127.963-37.172h-72.818v-9.165h72.818Z" transform="translate(5032.934 -1307.975)" fill="#3a6351"/>
      <path id="Path_14812" data-name="Path 14812" d="M-4282.741,1509.9v83.509h-65.136v-26.24h-117.973v-57.266h65.136v26.236h52.836V1509.9Z" transform="translate(5031.06 -1147.293)" fill="#3a6351"/>
      <path id="Path_14813" data-name="Path 14813" d="M-3943.485,2263.906v83.509h183.112v-83.509Zm127.963,46.337h-72.815v-9.165h72.815Z" transform="translate(4697.104 -1629.34)" fill="#3a6351"/>
      <path id="Path_14814" data-name="Path 14814" d="M-5849.792,2096.085v-83.509H-6032.9v30.936h55.146v52.573Z" transform="translate(6032.901 -1468.66)" fill="#3a6351"/>
      <path id="Path_14815" data-name="Path 14815" d="M-5324.5,2347.414v-83.509h-183.108v30.936H-5402.6v52.573Z" transform="translate(5697.074 -1629.339)" fill="#3a6351"/>
      <path id="Path_14816" data-name="Path 14816" d="M-4869.681,2034.343v9.168H-4988.2v21.641h118.517v9.165H-4988.2v21.767h183.108v-83.509H-4988.2v21.767Z" transform="translate(5365.005 -1468.66)" fill="#3a6351"/>
      <path id="Path_14817" data-name="Path 14817" d="M-4805.088,2263.906H-4988.2v29.417l12.335,12.335,0,0L-4988.2,2318v29.414h183.112V2318l-12.339-12.339,12.339-12.339Zm-55.148,67.213h-72.815v-9.165h72.815Zm0-41.752h-72.815V2280.2h72.815Z" transform="translate(5365.007 -1629.34)" fill="#3a6351"/>
      <path id="Path_14818" data-name="Path 14818" d="M-3851.929,2025.1v17.518h61.418a30.138,30.138,0,0,1,30.138,30.139v23.326h-183.112v-12.527h91.556v-17.518h-91.556v-53.464h183.112V2025.1Z" transform="translate(4697.104 -1468.657)" fill="#3a6351"/>
      <path id="Path_14819" data-name="Path 14819" d="M-5418.993,2025.1v17.518h-61.418a30.138,30.138,0,0,0-30.138,30.138v23.326h183.112v-12.527h-91.556V2066.04h91.556v-53.464h-183.112V2025.1Z" transform="translate(5698.953 -1468.66)" fill="#3a6351"/>
      <path id="Path_14820" data-name="Path 14820" d="M-5849.792,2279.142v-15.235H-6032.9v83.509h183.109v-53.035h-130.074v-15.239Zm-127.963,37.172h72.818v9.165h-72.818Z" transform="translate(6032.9 -1629.34)" fill="#3a6351"/>
      <path id="Path_14821" data-name="Path 14821" d="M-4468.78,2332.18v15.235h183.108v-83.509H-4468.78v53.035h130.073v15.239Zm127.963-37.172h-72.818v-9.165h72.818Z" transform="translate(5032.934 -1629.34)" fill="#3a6351"/>
      <path id="Path_14822" data-name="Path 14822" d="M-4282.741,2012.571v83.509h-65.136v-26.24h-117.973v-57.266h65.136v26.236h52.836v-26.24Z" transform="translate(5031.06 -1468.657)" fill="#3a6351"/>
    </g>
  </g>
</svg>
