<svg xmlns="http://www.w3.org/2000/svg" width="1228" height="1788" viewBox="0 0 1228 1788">
  <g id="Group_878" data-name="Group 878" transform="translate(-692)">
    <rect id="Rectangle_263" data-name="Rectangle 263" width="1228" height="1788" transform="translate(692)" fill="#f2ff49"/>
    <g id="Group_809" data-name="Group 809" transform="translate(807.82 144.71)">
      <path id="Path_15081" data-name="Path 15081" d="M197.71,67.47V198.76a15.885,15.885,0,0,1-15.89,15.89H117.18V133.12h-2v81.53H50.53a15.882,15.882,0,0,1-15.88-15.89V67.47A15.88,15.88,0,0,1,50.53,51.59H181.82A15.882,15.882,0,0,1,197.71,67.47Z" fill="#1e1e24"/>
      <path id="Path_15082" data-name="Path 15082" d="M795.74,352V255a15.88,15.88,0,0,1,15.88-15.88h97A113,113,0,0,1,795.74,352Z" fill="#1e1e24"/>
      <path id="Path_15083" data-name="Path 15083" d="M958.8,255V386.29a15.882,15.882,0,0,1-15.88,15.89H811.62a15.882,15.882,0,0,1-15.88-15.89V354A115.01,115.01,0,0,0,910.62,239.12h32.3A15.88,15.88,0,0,1,958.8,255Z" fill="#1e1e24"/>
      <path id="Path_15084" data-name="Path 15084" d="M765.58,255v47.41H602.52V255a15.88,15.88,0,0,1,15.88-15.88H749.69A15.883,15.883,0,0,1,765.58,255Z" fill="#1e1e24"/>
      <path id="Path_15085" data-name="Path 15085" d="M602.52,304.41H765.58v81.88a15.885,15.885,0,0,1-15.89,15.89H618.4a15.882,15.882,0,0,1-15.88-15.89Z" fill="#1e1e24"/>
      <path id="Path_15086" data-name="Path 15086" d="M577.29,255V386.29a15.882,15.882,0,0,1-15.88,15.89H496.76V358.94h-2v43.24H430.12a15.882,15.882,0,0,1-15.88-15.89V255a15.88,15.88,0,0,1,15.88-15.88h64.64v43.23h2V239.12h64.65A15.88,15.88,0,0,1,577.29,255Z" fill="#1e1e24"/>
      <path id="Path_15087" data-name="Path 15087" d="M370.66,51.59H239.36a15.88,15.88,0,0,0-15.88,15.88V198.76a15.882,15.882,0,0,0,15.88,15.89h131.3a15.883,15.883,0,0,0,15.88-15.89V67.47A15.88,15.88,0,0,0,370.66,51.59Zm-15.41,91.88H287.01v-2h68.24Zm0-18.71H287.01v-2h68.24Z" fill="#1e1e24"/>
      <path id="Path_15088" data-name="Path 15088" d="M197.71,834.41v131.3a15.883,15.883,0,0,1-15.89,15.88H50.53a15.88,15.88,0,0,1-15.88-15.88V834.41a15.88,15.88,0,0,1,15.88-15.88h64.65v81.53h2V818.53h64.64A15.882,15.882,0,0,1,197.71,834.41Z" fill="#1e1e24"/>
      <path id="Path_15089" data-name="Path 15089" d="M221.01,952.42l29.17,29.17H236.89a15.88,15.88,0,0,1-15.88-15.88Z" fill="#1e1e24"/>
      <path id="Path_15090" data-name="Path 15090" d="M384.07,834.41V949.6l-31.99,31.99H253L221.01,949.6V834.41a15.88,15.88,0,0,1,15.88-15.88h64.65v81.53h2V818.53h64.65A15.88,15.88,0,0,1,384.07,834.41Z" fill="#1e1e24"/>
      <path id="Path_15091" data-name="Path 15091" d="M354.91,981.59l29.16-29.16v13.28a15.88,15.88,0,0,1-15.88,15.88Z" fill="#1e1e24"/>
      <path id="Path_15092" data-name="Path 15092" d="M197.71,442.53V573.82a15.885,15.885,0,0,1-15.89,15.89H141.95l-31.29-31.28-1.41,1.41,29.87,29.87H50.53a15.883,15.883,0,0,1-15.88-15.89V442.53a15.88,15.88,0,0,1,15.88-15.88h88.58l-29.86,29.86,1.41,1.42,31.28-31.28h39.88A15.883,15.883,0,0,1,197.71,442.53Z" fill="#1e1e24"/>
      <path id="Path_15093" data-name="Path 15093" d="M722.34,904v2h43.24v64.65a15.883,15.883,0,0,1-15.89,15.88H685.05V943.29h-2v43.24H618.4a15.88,15.88,0,0,1-15.88-15.88V906h43.23v-2H602.52V839.35a15.88,15.88,0,0,1,15.88-15.88h64.65v43.24h2V823.47h64.64a15.883,15.883,0,0,1,15.89,15.88V904Z" fill="#1e1e24"/>
      <rect id="Rectangle_261" data-name="Rectangle 261" width="2" height="2.94" transform="translate(683.05 780.24)" fill="#1e1e24"/>
      <rect id="Rectangle_262" data-name="Rectangle 262" width="13.07" height="2" transform="translate(795.74 904)" fill="#1e1e24"/>
      <path id="Path_15094" data-name="Path 15094" d="M171.26,620.12l-.87.87-.87-.87Z" fill="#1e1e24"/>
      <path id="Path_15095" data-name="Path 15095" d="M495.76,132.12v2h81.53v64.64a15.882,15.882,0,0,1-15.88,15.89H430.12a15.883,15.883,0,0,1-15.88-15.89V67.47a15.88,15.88,0,0,1,15.88-15.88H561.41a15.88,15.88,0,0,1,15.88,15.88v64.65Z" fill="#1e1e24"/>
      <path id="Path_15096" data-name="Path 15096" d="M301.54,319.65v21.82h2V321.65h80.53v64.64a15.882,15.882,0,0,1-15.88,15.89H236.89a15.882,15.882,0,0,1-15.88-15.89V255a15.88,15.88,0,0,1,15.88-15.88h131.3A15.88,15.88,0,0,1,384.07,255v64.65Z" fill="#1e1e24"/>
      <path id="Path_15097" data-name="Path 15097" d="M877.27,118.59v2H958.8v25.06H877.27v2H958.8v51.11a15.882,15.882,0,0,1-15.88,15.89H811.62a15.882,15.882,0,0,1-15.88-15.89V67.47a15.88,15.88,0,0,1,15.88-15.88h131.3A15.88,15.88,0,0,1,958.8,67.47v51.12Z" fill="#1e1e24"/>
      <path id="Path_15098" data-name="Path 15098" d="M963.74,1030.77v131.3a15.88,15.88,0,0,1-15.88,15.88H816.56a15.88,15.88,0,0,1-15.88-15.88v-51.12h81.53v-2H800.68v-25.06h81.53v-2H800.68v-51.12a15.88,15.88,0,0,1,15.88-15.88h131.3A15.88,15.88,0,0,1,963.74,1030.77Z" fill="#1e1e24"/>
      <path id="Path_15099" data-name="Path 15099" d="M684.05,687.12v2h81.53v78.17a15.885,15.885,0,0,1-15.89,15.89H618.4a15.882,15.882,0,0,1-15.88-15.89V716.18h81.53v-2H602.52V636a15.88,15.88,0,0,1,15.88-15.88H749.69A15.883,15.883,0,0,1,765.58,636v51.12Z" fill="#1e1e24"/>
      <path id="Path_15100" data-name="Path 15100" d="M302.54,1278.25v2h81.53v78.18a15.88,15.88,0,0,1-15.88,15.88H236.89a15.88,15.88,0,0,1-15.88-15.88v-51.12h81.53v-2H221.01v-78.18a15.88,15.88,0,0,1,15.88-15.88h131.3a15.88,15.88,0,0,1,15.88,15.88v51.12Z" fill="#1e1e24"/>
      <path id="Path_15101" data-name="Path 15101" d="M577.29,1278.25v-51.12a15.88,15.88,0,0,0-15.88-15.88H430.12a15.88,15.88,0,0,0-15.88,15.88v131.3a15.88,15.88,0,0,0,15.88,15.88H561.41a15.88,15.88,0,0,0,15.88-15.88v-78.18H495.76v-2ZM539,1331.06v2H452.53v-2Z" fill="#1e1e24"/>
      <path id="Path_15102" data-name="Path 15102" d="M116.18,1108.95v2h81.53v51.12a15.882,15.882,0,0,1-15.89,15.88H50.53a15.88,15.88,0,0,1-15.88-15.88v-78.18h81.53v-2H34.65v-51.12a15.88,15.88,0,0,1,15.88-15.88H181.82a15.882,15.882,0,0,1,15.89,15.88v78.18Z" fill="#1e1e24"/>
      <path id="Path_15103" data-name="Path 15103" d="M684.05,1108.95v2h81.53v51.12a15.883,15.883,0,0,1-15.89,15.88H618.4a15.88,15.88,0,0,1-15.88-15.88v-78.18h81.53v-2H602.52v-51.12a15.88,15.88,0,0,1,15.88-15.88H749.69a15.883,15.883,0,0,1,15.89,15.88v78.18Z" fill="#1e1e24"/>
      <path id="Path_15104" data-name="Path 15104" d="M795.74,702.65h41.35v80.53H811.62a15.882,15.882,0,0,1-15.88-15.89Z" fill="#1e1e24"/>
      <path id="Path_15105" data-name="Path 15105" d="M958.8,636v64.65H915.45v82.53H839.09V700.65H795.74V636a15.88,15.88,0,0,1,15.88-15.88h131.3A15.88,15.88,0,0,1,958.8,636Z" fill="#1e1e24"/>
      <path id="Path_15106" data-name="Path 15106" d="M917.45,702.65H958.8v64.64a15.882,15.882,0,0,1-15.88,15.89H917.45Z" fill="#1e1e24"/>
      <path id="Path_15107" data-name="Path 15107" d="M801.27,827.31a15.814,15.814,0,0,1,10.35-3.84h131.3a15.851,15.851,0,0,1,10.5,3.96l-76.15,76.15c-3.75-3.79-21.79-22.02-39.72-40.05C816.74,842.6,806.44,832.34,801.27,827.31Z" fill="#1e1e24"/>
      <path id="Path_15108" data-name="Path 15108" d="M876.27,905.41v81.12H811.62a15.88,15.88,0,0,1-15.88-15.88V839.35a15.87,15.87,0,0,1,4.1-10.66C814.16,842.72,857.63,886.56,876.27,905.41Z" fill="#1e1e24"/>
      <path id="Path_15109" data-name="Path 15109" d="M958.8,839.35v131.3a15.88,15.88,0,0,1-15.88,15.88H878.27V905.42l76.57-76.57A15.852,15.852,0,0,1,958.8,839.35Z" fill="#1e1e24"/>
      <path id="Path_15110" data-name="Path 15110" d="M577.29,440.06V571.35a15.889,15.889,0,0,1-15.88,15.89H510.29V505.71h-2v81.53H483.24V505.71h-2v81.53H430.12a15.889,15.889,0,0,1-15.88-15.89V440.06a15.88,15.88,0,0,1,15.88-15.88H561.41A15.88,15.88,0,0,1,577.29,440.06Z" fill="#1e1e24"/>
      <path id="Path_15111" data-name="Path 15111" d="M577.29,839.35v131.3a15.88,15.88,0,0,1-15.88,15.88H430.12a15.88,15.88,0,0,1-15.88-15.88V839.35a15.88,15.88,0,0,1,15.88-15.88h51.12V905h2V823.47h25.05V905h2V823.47h51.12A15.88,15.88,0,0,1,577.29,839.35Z" fill="#1e1e24"/>
      <path id="Path_15112" data-name="Path 15112" d="M765.58,440.06V571.35a15.891,15.891,0,0,1-15.89,15.89H671.52V505.71h-2v81.53H618.4a15.889,15.889,0,0,1-15.88-15.89V440.06a15.88,15.88,0,0,1,15.88-15.88h78.18v79.76h2V424.18h51.11A15.883,15.883,0,0,1,765.58,440.06Z" fill="#1e1e24"/>
      <path id="Path_15113" data-name="Path 15113" d="M113.71,322.12v2h81.53v58.94H112.71v19.12H48.06a15.882,15.882,0,0,1-15.88-15.89V255a15.88,15.88,0,0,1,15.88-15.88H179.35A15.889,15.889,0,0,1,195.24,255v67.12Z" fill="#1e1e24"/>
      <path id="Path_15114" data-name="Path 15114" d="M195.24,385.06v1.23a15.891,15.891,0,0,1-15.89,15.89H114.71V385.06Z" fill="#1e1e24"/>
      <path id="Path_15115" data-name="Path 15115" d="M117.18,783.18h62.17a15.893,15.893,0,0,0,15.51-12.44,15.656,15.656,0,0,0,.38-3.45v-4.58H117.18Zm62.17-163.06H48.06A15.88,15.88,0,0,0,32.18,636V767.29a15.882,15.882,0,0,0,15.88,15.89h67.12V760.71h80.06V636A15.889,15.889,0,0,0,179.35,620.12Zm-22.41,79.64H70.47v-2h86.47Z" fill="#1e1e24"/>
      <path id="Path_15116" data-name="Path 15116" d="M184.29,1405.93H53a15.882,15.882,0,0,0-15.88,15.89v78.17h81.53v2H37.12v51.12A15.88,15.88,0,0,0,53,1568.99H184.29a15.882,15.882,0,0,0,15.89-15.88V1421.82A15.885,15.885,0,0,0,184.29,1405.93Zm-22.41,43.25H75.41v-2h86.47Z" fill="#1e1e24"/>
      <path id="Path_15117" data-name="Path 15117" d="M561.41,620.12H430.12A15.88,15.88,0,0,0,414.24,636V767.29a15.883,15.883,0,0,0,15.88,15.89h94.81l-29.87-29.87,1.41-1.41,31.29,31.28h33.65a15.882,15.882,0,0,0,15.88-15.89V636A15.88,15.88,0,0,0,561.41,620.12ZM539,699.76H452.53v-2H539Z" fill="#1e1e24"/>
      <path id="Path_15118" data-name="Path 15118" d="M752.16,51.59H620.87a15.88,15.88,0,0,0-15.88,15.88V198.76a15.882,15.882,0,0,0,15.88,15.89H752.16a15.885,15.885,0,0,0,15.89-15.89V67.47A15.882,15.882,0,0,0,752.16,51.59ZM648.34,176.35h-2V89.88h2Z" fill="#1e1e24"/>
      <path id="Path_15119" data-name="Path 15119" d="M942.92,422.41H811.62a15.88,15.88,0,0,0-15.88,15.88v131.3a15.88,15.88,0,0,0,15.88,15.88h131.3a15.88,15.88,0,0,0,15.88-15.88V438.29A15.88,15.88,0,0,0,942.92,422.41ZM878.27,547.18h-2V460.71h2Z" fill="#1e1e24"/>
      <path id="Path_15120" data-name="Path 15120" d="M368.19,1014.89H236.89a15.88,15.88,0,0,0-15.88,15.88v131.3a15.88,15.88,0,0,0,15.88,15.88h131.3a15.88,15.88,0,0,0,15.88-15.88v-131.3A15.88,15.88,0,0,0,368.19,1014.89Zm-64.65,124.77h-2v-86.48h2Z" fill="#1e1e24"/>
      <path id="Path_15121" data-name="Path 15121" d="M414.24,1097.42h80.52v80.53H430.12a15.88,15.88,0,0,1-15.88-15.88Z" fill="#1e1e24"/>
      <path id="Path_15122" data-name="Path 15122" d="M577.29,1030.77v131.3a15.88,15.88,0,0,1-15.88,15.88H496.76v-82.53H414.24v-64.65a15.88,15.88,0,0,1,15.88-15.88H561.41A15.88,15.88,0,0,1,577.29,1030.77Z" fill="#1e1e24"/>
      <path id="Path_15123" data-name="Path 15123" d="M197.71,1226.29v131.3a15.882,15.882,0,0,1-15.89,15.88H50.53a15.88,15.88,0,0,1-15.88-15.88v-131.3a15.88,15.88,0,0,1,15.88-15.88H79.76v86.47h2v-86.47H181.82A15.882,15.882,0,0,1,197.71,1226.29Z" fill="#1e1e24"/>
      <path id="Path_15124" data-name="Path 15124" d="M368.19,620.12H236.89A15.88,15.88,0,0,0,221.01,636V767.29a15.882,15.882,0,0,0,15.88,15.89h9.58l20.96-20.97,1.42,1.42-19.56,19.55h118.9a15.883,15.883,0,0,0,15.88-15.89V636A15.88,15.88,0,0,0,368.19,620.12ZM303.54,744.88h-2V658.41h2Z" fill="#1e1e24"/>
      <path id="Path_15125" data-name="Path 15125" d="M947.86,1211.25H816.56a15.88,15.88,0,0,0-15.88,15.88v131.3a15.88,15.88,0,0,0,15.88,15.88h131.3a15.88,15.88,0,0,0,15.88-15.88v-131.3A15.88,15.88,0,0,0,947.86,1211.25Zm-31.53,91.88H848.09v-2h68.24Zm0-18.7H848.09v-2h68.24Z" fill="#1e1e24"/>
      <path id="Path_15126" data-name="Path 15126" d="M384.07,442.53v97A113.011,113.011,0,0,1,271.19,426.65h97A15.88,15.88,0,0,1,384.07,442.53Z" fill="#1e1e24"/>
      <path id="Path_15127" data-name="Path 15127" d="M384.07,541.53v32.29a15.883,15.883,0,0,1-15.88,15.89H236.89a15.883,15.883,0,0,1-15.88-15.89V442.53a15.88,15.88,0,0,1,15.88-15.88h32.3A115.01,115.01,0,0,0,384.07,541.53Z" fill="#1e1e24"/>
      <path id="Path_15128" data-name="Path 15128" d="M603.61,1293.78h80.53v80.53H619.49a15.88,15.88,0,0,1-15.88-15.88Z" fill="#1e1e24"/>
      <path id="Path_15129" data-name="Path 15129" d="M766.66,1227.13v131.3a15.88,15.88,0,0,1-15.88,15.88H686.14v-82.53H603.61v-64.65a15.88,15.88,0,0,1,15.88-15.88H750.78A15.88,15.88,0,0,1,766.66,1227.13Z" fill="#1e1e24"/>
    </g>
  </g>
</svg>
