<svg xmlns="http://www.w3.org/2000/svg" width="1093.11" height="9834.595" viewBox="0 0 1093.11 9834.595">
  <g id="Group_869" data-name="Group 869" transform="translate(-692.489)">
    <rect id="Rectangle_172" data-name="Rectangle 172" width="1093.045" height="1093.045" transform="translate(692.489)" fill="#eeebdd"/>
    <g id="Group_620" data-name="Group 620" transform="translate(846.39 212.708)">
      <path id="Path_14528" data-name="Path 14528" d="M533.8,1697.271v118.313H415.485V1697.271h45.172v25.513a13.985,13.985,0,1,0,27.97,0v-25.513Z" transform="translate(-148.882 -1285.253)" fill="#1b1717"/>
      <path id="Path_14529" data-name="Path 14529" d="M665.5,1697.277V1795.8l-19.783,19.794H566.967L547.184,1795.8v-98.519h45.171v25.512a13.985,13.985,0,1,0,27.97,0v-25.512Z" transform="translate(-147.292 -1285.253)" fill="#1b1717"/>
      <path id="Path_14530" data-name="Path 14530" d="M665.275,1426.018v118.3H546.962v-18.142h25.514a13.988,13.988,0,0,0,14-13.985v-83.435a13.638,13.638,0,0,0-.271-2.741Z" transform="translate(-147.294 -1288.53)" fill="#1b1717"/>
      <path id="Path_14531" data-name="Path 14531" d="M810.325,1426.018v118.3H928.638v-18.142H903.126a13.989,13.989,0,0,1-14-13.985v-83.435a13.638,13.638,0,0,1,.272-2.741Z" transform="translate(-144.113 -1288.53)" fill="#1b1717"/>
      <rect id="Rectangle_173" data-name="Rectangle 173" width="118.302" height="71.244" transform="translate(266.402 184.507)" fill="#1b1717"/>
      <rect id="Rectangle_174" data-name="Rectangle 174" width="118.302" height="34.484" transform="translate(266.402 137.449)" fill="#1b1717"/>
      <path id="Path_14532" data-name="Path 14532" d="M665.4,1290.333v78.992L625.9,1408.8h-79.06V1290.333Z" transform="translate(-147.296 -1290.168)" fill="#1b1717"/>
      <path id="Path_14533" data-name="Path 14533" d="M283.409,1290.17V1408.8H402.04V1290.17Zm108.54,86.459a13.986,13.986,0,0,1-13.985,13.985H346.359a13.986,13.986,0,0,1-13.985-13.985v-.079a13.986,13.986,0,0,1,13.985-13.985h31.605a13.985,13.985,0,0,1,13.985,13.985Zm0-51.751a13.985,13.985,0,0,1-13.985,13.985H346.359a13.986,13.986,0,0,1-13.985-13.985v-.079a13.986,13.986,0,0,1,13.985-13.985h31.605a13.986,13.986,0,0,1,13.985,13.985Z" transform="translate(-150.478 -1290.17)" fill="#1b1717"/>
      <path id="Path_14534" data-name="Path 14534" d="M888.986,1756.427a14,14,0,0,0,14,13.986H928.5v45.172H883.325V1790.07a13.985,13.985,0,1,0-27.971,0v25.514H810.183v-45.172H835.7a13.985,13.985,0,1,0,0-27.971H810.183v-45.171h45.171v25.513a13.985,13.985,0,1,0,27.971,0v-25.513H928.5v45.171H902.982A13.989,13.989,0,0,0,888.986,1756.427Z" transform="translate(-144.115 -1285.253)" fill="#1b1717"/>
      <path id="Path_14535" data-name="Path 14535" d="M797.184,1697.271v118.313h-118.3V1697.271h19.126v25.513a13.99,13.99,0,0,0,27.981,0v-25.513h23.77v25.513a13.985,13.985,0,0,0,27.97,0v-25.513Z" transform="translate(-145.701 -1285.253)" fill="#1b1717"/>
      <path id="Path_14536" data-name="Path 14536" d="M401.873,1697.277v49.644a1.142,1.142,0,0,0-.192-.011,13.994,13.994,0,0,0-14,14v51.015a14,14,0,0,0,.487,3.669H296.877a13.961,13.961,0,0,0,.487-3.669v-51.015a13.974,13.974,0,0,0-13.793-13.985v-49.644Z" transform="translate(-150.476 -1285.253)" fill="#1b1717"/>
      <path id="Path_14537" data-name="Path 14537" d="M270.371,1832.929v49.644a1.019,1.019,0,0,0-.192-.012,14,14,0,0,0-14,14v51.014a13.967,13.967,0,0,0,.488,3.67H165.375a14.011,14.011,0,0,0,.487-3.67v-51.014a13.974,13.974,0,0,0-13.793-13.985v-49.644h45.172v25.512a13.985,13.985,0,1,0,27.97,0v-25.512Z" transform="translate(-152.064 -1283.615)" fill="#1b1717"/>
      <path id="Path_14538" data-name="Path 14538" d="M693.036,1561.535v90.332H678.7v27.981H797.013V1561.535Zm58.806,84.669a13.985,13.985,0,0,1-27.971,0v-51.026a13.985,13.985,0,0,1,27.971,0Z" transform="translate(-145.703 -1286.893)" fill="#1b1717"/>
      <path id="Path_14539" data-name="Path 14539" d="M415.287,1561.625v118.3h118.3v-118.3Zm73.141,84.658a13.985,13.985,0,1,1-27.97,0v-51.026a13.985,13.985,0,1,1,27.97,0Z" transform="translate(-148.885 -1286.891)" fill="#1b1717"/>
      <path id="Path_14540" data-name="Path 14540" d="M270.377,1561.625v118.313H246.336v-7.927a13.985,13.985,0,1,0-27.971,0v7.927h-14v-7.927a13.985,13.985,0,1,0-27.971,0v7.927H152.064V1561.625h46.711v25.513a13.99,13.99,0,1,0,27.981,0v-25.513Z" transform="translate(-152.064 -1286.891)" fill="#1b1717"/>
      <path id="Path_14541" data-name="Path 14541" d="M757.448,1485.085a13.995,13.995,0,0,0,14,14h25.513v45.16H751.785v-25.512a13.985,13.985,0,0,0-27.97,0v25.512H678.644v-118.3h45.171v25.513a13.985,13.985,0,0,0,27.97,0V1425.94h45.172v45.16H771.444A13.988,13.988,0,0,0,757.448,1485.085Z" transform="translate(-145.704 -1288.53)" fill="#1b1717"/>
      <path id="Path_14542" data-name="Path 14542" d="M401.879,1425.979v118.3H356.708v-25.514a13.985,13.985,0,0,0-27.971,0v25.514H283.566v-118.3h45.171v25.513a13.985,13.985,0,0,0,27.971,0v-25.513Z" transform="translate(-150.476 -1288.529)" fill="#1b1717"/>
      <path id="Path_14543" data-name="Path 14543" d="M928.926,1561.541v118.3h-25.06l-27.925-27.925a13.988,13.988,0,1,0-19.782,19.783l8.141,8.142H810.624v-118.3Z" transform="translate(-144.11 -1286.892)" fill="#1b1717"/>
      <path id="Path_14544" data-name="Path 14544" d="M665.295,1561.541v78.8H600.488a13.989,13.989,0,0,0-14,13.985v25.513h-39.5V1610.1h25.514a13.985,13.985,0,0,0,0-27.971H546.993v-20.586Z" transform="translate(-147.294 -1286.892)" fill="#1b1717"/>
      <path id="Path_14545" data-name="Path 14545" d="M889.575,1329.693a13.883,13.883,0,0,0,4.128,9.9,14.046,14.046,0,0,0,9.958,4.1h25.7v25.549H864.083a14.049,14.049,0,0,0-14.1,14V1408.8H810.2V1290.333H929.358v25.355h-25.7A14.047,14.047,0,0,0,889.575,1329.693Z" transform="translate(-144.115 -1290.168)" fill="#1b1717"/>
      <path id="Path_14546" data-name="Path 14546" d="M757.441,1323.682a14,14,0,0,0,14,14h25.512V1361.3H771.438a13.991,13.991,0,1,0,0,27.982h25.512v19.352h-118.3v-118.3h118.3V1309.7H771.438A13.99,13.99,0,0,0,757.441,1323.682Z" transform="translate(-145.704 -1290.168)" fill="#1b1717"/>
      <path id="Path_14547" data-name="Path 14547" d="M270.366,1290.333v118.3H225.2v-25.513a13.985,13.985,0,0,0-27.97,0v25.513H152.064v-118.3Z" transform="translate(-152.064 -1290.168)" fill="#1b1717"/>
      <path id="Path_14548" data-name="Path 14548" d="M415.287,1290.333h118.3v45.16H508.075a13.985,13.985,0,0,0,0,27.97h25.513v45.171h-118.3Z" transform="translate(-148.885 -1290.168)" fill="#1b1717"/>
      <path id="Path_14549" data-name="Path 14549" d="M230.872,1485.124v24.619a13.991,13.991,0,1,0,27.982,0v-10.634h11.516v45.172h-118.3v-118.3h118.3v45.16H244.858A13.986,13.986,0,0,0,230.872,1485.124Z" transform="translate(-152.064 -1288.529)" fill="#1b1717"/>
      <path id="Path_14550" data-name="Path 14550" d="M230.872,1731.855a14,14,0,0,0,13.985,14h25.513v69.733h-118.3v-18.13h25.513a13.991,13.991,0,1,0,0-27.982H152.069v-72.19h118.3v20.587H244.857A13.986,13.986,0,0,0,230.872,1731.855Z" transform="translate(-152.064 -1285.253)" fill="#1b1717"/>
      <path id="Path_14551" data-name="Path 14551" d="M401.882,1561.75v118.188H338.411v-25.513a13.99,13.99,0,1,0-27.981,0v25.513H283.569V1561.625H347.1v25.638a13.985,13.985,0,0,0,27.971,0V1561.75Z" transform="translate(-150.476 -1286.891)" fill="#1b1717"/>
      <path id="Path_14552" data-name="Path 14552" d="M401.757,1951.242H283.569V1887.77h25.513a13.99,13.99,0,1,0,0-27.981H283.569v-26.86H401.882v63.527H376.244a13.985,13.985,0,0,0-13.985,13.985,14,14,0,0,0,13.985,13.986h25.513Z" transform="translate(-150.476 -1283.615)" fill="#1b1717"/>
    </g>
    <rect id="Rectangle_175" data-name="Rectangle 175" width="1093.045" height="1093.045" transform="translate(692.489 1093.045)" fill="#1b1717"/>
    <g id="Group_621" data-name="Group 621" transform="translate(846.39 1305.752)">
      <path id="Path_14553" data-name="Path 14553" d="M533.8,2777.271v118.313H415.485V2777.271h45.172v25.513a13.985,13.985,0,1,0,27.97,0v-25.513Z" transform="translate(-148.882 -2365.253)" fill="#eeebdd"/>
      <path id="Path_14554" data-name="Path 14554" d="M665.5,2777.277V2875.8l-19.783,19.794H566.967L547.184,2875.8v-98.518h45.171v25.512a13.985,13.985,0,1,0,27.97,0v-25.512Z" transform="translate(-147.292 -2365.253)" fill="#eeebdd"/>
      <path id="Path_14555" data-name="Path 14555" d="M665.275,2506.018v118.3H546.962v-18.142h25.514a13.988,13.988,0,0,0,14-13.985v-83.435a13.644,13.644,0,0,0-.271-2.741Z" transform="translate(-147.294 -2368.529)" fill="#eeebdd"/>
      <path id="Path_14556" data-name="Path 14556" d="M810.325,2506.018v118.3H928.638v-18.142H903.126a13.989,13.989,0,0,1-14-13.985v-83.435a13.644,13.644,0,0,1,.272-2.741Z" transform="translate(-144.113 -2368.529)" fill="#eeebdd"/>
      <rect id="Rectangle_176" data-name="Rectangle 176" width="118.302" height="71.244" transform="translate(266.402 184.507)" fill="#eeebdd"/>
      <rect id="Rectangle_177" data-name="Rectangle 177" width="118.302" height="34.484" transform="translate(266.402 137.449)" fill="#eeebdd"/>
      <path id="Path_14557" data-name="Path 14557" d="M665.4,2370.333v78.992L625.9,2488.8h-79.06V2370.333Z" transform="translate(-147.296 -2370.168)" fill="#eeebdd"/>
      <path id="Path_14558" data-name="Path 14558" d="M283.409,2370.17V2488.8H402.04V2370.17Zm108.54,86.459a13.986,13.986,0,0,1-13.985,13.985H346.359a13.986,13.986,0,0,1-13.985-13.985v-.079a13.986,13.986,0,0,1,13.985-13.986h31.605a13.986,13.986,0,0,1,13.985,13.986Zm0-51.75a13.986,13.986,0,0,1-13.985,13.985H346.359a13.986,13.986,0,0,1-13.985-13.985v-.079a13.985,13.985,0,0,1,13.985-13.985h31.605a13.985,13.985,0,0,1,13.985,13.985Z" transform="translate(-150.478 -2370.17)" fill="#eeebdd"/>
      <path id="Path_14559" data-name="Path 14559" d="M888.986,2836.427a14,14,0,0,0,14,13.986H928.5v45.171H883.325v-25.514a13.985,13.985,0,1,0-27.971,0v25.514H810.183v-45.171H835.7a13.985,13.985,0,1,0,0-27.97H810.183v-45.172h45.171v25.513a13.985,13.985,0,1,0,27.971,0v-25.513H928.5v45.172H902.982A13.989,13.989,0,0,0,888.986,2836.427Z" transform="translate(-144.115 -2365.253)" fill="#eeebdd"/>
      <path id="Path_14560" data-name="Path 14560" d="M797.184,2777.271v118.313h-118.3V2777.271h19.126v25.513a13.99,13.99,0,0,0,27.981,0v-25.513h23.77v25.513a13.985,13.985,0,0,0,27.97,0v-25.513Z" transform="translate(-145.701 -2365.253)" fill="#eeebdd"/>
      <path id="Path_14561" data-name="Path 14561" d="M401.873,2777.277v49.644a1.129,1.129,0,0,0-.192-.011,14,14,0,0,0-14,14v51.015a14,14,0,0,0,.487,3.668H296.877a13.957,13.957,0,0,0,.487-3.668v-51.015a13.974,13.974,0,0,0-13.793-13.985v-49.644Z" transform="translate(-150.476 -2365.253)" fill="#eeebdd"/>
      <path id="Path_14562" data-name="Path 14562" d="M270.371,2912.929v49.645a1.039,1.039,0,0,0-.192-.012,14,14,0,0,0-14,14v51.014a13.966,13.966,0,0,0,.488,3.669H165.375a14.01,14.01,0,0,0,.487-3.669v-51.014a13.974,13.974,0,0,0-13.793-13.984v-49.645h45.172v25.512a13.985,13.985,0,1,0,27.97,0v-25.512Z" transform="translate(-152.064 -2363.615)" fill="#eeebdd"/>
      <path id="Path_14563" data-name="Path 14563" d="M693.036,2641.535v90.332H678.7v27.981H797.013V2641.535Zm58.806,84.669a13.985,13.985,0,0,1-27.971,0v-51.025a13.985,13.985,0,1,1,27.971,0Z" transform="translate(-145.703 -2366.892)" fill="#eeebdd"/>
      <path id="Path_14564" data-name="Path 14564" d="M415.287,2641.625v118.3h118.3v-118.3Zm73.141,84.658a13.985,13.985,0,1,1-27.97,0v-51.025a13.985,13.985,0,1,1,27.97,0Z" transform="translate(-148.885 -2366.892)" fill="#eeebdd"/>
      <path id="Path_14565" data-name="Path 14565" d="M270.377,2641.625v118.313H246.336v-7.926a13.985,13.985,0,1,0-27.971,0v7.926h-14v-7.926a13.985,13.985,0,1,0-27.971,0v7.926H152.064V2641.625h46.711v25.514a13.99,13.99,0,1,0,27.981,0v-25.514Z" transform="translate(-152.064 -2366.892)" fill="#eeebdd"/>
      <path id="Path_14566" data-name="Path 14566" d="M757.448,2565.085a14,14,0,0,0,14,14h25.513v45.16H751.785v-25.513a13.985,13.985,0,0,0-27.97,0v25.513H678.644v-118.3h45.171v25.512a13.985,13.985,0,0,0,27.97,0V2505.94h45.172V2551.1H771.444A13.987,13.987,0,0,0,757.448,2565.085Z" transform="translate(-145.704 -2368.531)" fill="#eeebdd"/>
      <path id="Path_14567" data-name="Path 14567" d="M401.879,2505.979v118.3H356.708v-25.514a13.985,13.985,0,0,0-27.971,0v25.514H283.566v-118.3h45.171v25.512a13.985,13.985,0,0,0,27.971,0v-25.512Z" transform="translate(-150.476 -2368.53)" fill="#eeebdd"/>
      <path id="Path_14568" data-name="Path 14568" d="M928.926,2641.541v118.3h-25.06l-27.925-27.926a13.989,13.989,0,1,0-19.782,19.783l8.141,8.142H810.624v-118.3Z" transform="translate(-144.11 -2366.892)" fill="#eeebdd"/>
      <path id="Path_14569" data-name="Path 14569" d="M665.295,2641.541v78.8H600.488a13.989,13.989,0,0,0-14,13.985v25.514h-39.5V2690.1h25.514a13.985,13.985,0,0,0,0-27.97H546.993v-20.586Z" transform="translate(-147.294 -2366.892)" fill="#eeebdd"/>
      <path id="Path_14570" data-name="Path 14570" d="M889.575,2409.693a13.882,13.882,0,0,0,4.128,9.9,14.046,14.046,0,0,0,9.958,4.106h25.7v25.548H864.083a14.049,14.049,0,0,0-14.1,14V2488.8H810.2V2370.333H929.358v25.355h-25.7A14.047,14.047,0,0,0,889.575,2409.693Z" transform="translate(-144.115 -2370.168)" fill="#eeebdd"/>
      <path id="Path_14571" data-name="Path 14571" d="M757.441,2403.683a14,14,0,0,0,14,14h25.512V2441.3H771.438a13.991,13.991,0,1,0,0,27.982h25.512v19.352h-118.3v-118.3h118.3V2389.7H771.438A13.99,13.99,0,0,0,757.441,2403.683Z" transform="translate(-145.704 -2370.168)" fill="#eeebdd"/>
      <path id="Path_14572" data-name="Path 14572" d="M270.366,2370.333v118.3H225.2v-25.513a13.985,13.985,0,0,0-27.97,0v25.513H152.064v-118.3Z" transform="translate(-152.064 -2370.168)" fill="#eeebdd"/>
      <path id="Path_14573" data-name="Path 14573" d="M415.287,2370.333h118.3v45.161H508.075a13.985,13.985,0,0,0,0,27.969h25.513v45.171h-118.3Z" transform="translate(-148.885 -2370.168)" fill="#eeebdd"/>
      <path id="Path_14574" data-name="Path 14574" d="M230.872,2565.124v24.619a13.991,13.991,0,1,0,27.982,0v-10.634h11.516v45.172h-118.3v-118.3h118.3v45.16H244.858A13.986,13.986,0,0,0,230.872,2565.124Z" transform="translate(-152.064 -2368.53)" fill="#eeebdd"/>
      <path id="Path_14575" data-name="Path 14575" d="M230.872,2811.854a14,14,0,0,0,13.985,14h25.513v69.733h-118.3v-18.13h25.513a13.991,13.991,0,1,0,0-27.982H152.069v-72.19h118.3v20.588H244.857A13.986,13.986,0,0,0,230.872,2811.854Z" transform="translate(-152.064 -2365.252)" fill="#eeebdd"/>
      <path id="Path_14576" data-name="Path 14576" d="M401.882,2641.75v118.188H338.411v-25.512a13.99,13.99,0,1,0-27.981,0v25.512H283.569V2641.625H347.1v25.637a13.986,13.986,0,0,0,13.985,13.985,14,14,0,0,0,13.986-13.985V2641.75Z" transform="translate(-150.476 -2366.892)" fill="#eeebdd"/>
      <path id="Path_14577" data-name="Path 14577" d="M401.757,3031.242H283.569V2967.77h25.513a13.99,13.99,0,1,0,0-27.98H283.569v-26.86H401.882v63.527H376.244a13.985,13.985,0,0,0-13.985,13.984,14,14,0,0,0,13.985,13.986h25.513Z" transform="translate(-150.476 -2363.615)" fill="#eeebdd"/>
    </g>
    <rect id="Rectangle_178" data-name="Rectangle 178" width="1093.045" height="1093.045" transform="translate(692.489 2186.089)" fill="#810000"/>
    <g id="Group_622" data-name="Group 622" transform="translate(846.39 2398.798)">
      <path id="Path_14578" data-name="Path 14578" d="M533.8,3857.271v118.313H415.485V3857.271h45.172v25.513a13.985,13.985,0,1,0,27.97,0v-25.513Z" transform="translate(-148.882 -3445.253)" fill="#eeebdd"/>
      <path id="Path_14579" data-name="Path 14579" d="M665.5,3857.277V3955.8l-19.783,19.794H566.967L547.184,3955.8v-98.518h45.171v25.513a13.985,13.985,0,1,0,27.97,0v-25.513Z" transform="translate(-147.292 -3445.253)" fill="#eeebdd"/>
      <path id="Path_14580" data-name="Path 14580" d="M665.275,3586.019v118.3H546.962v-18.141h25.514a13.989,13.989,0,0,0,14-13.986v-83.434a13.634,13.634,0,0,0-.271-2.74Z" transform="translate(-147.294 -3448.53)" fill="#eeebdd"/>
      <path id="Path_14581" data-name="Path 14581" d="M810.325,3586.019v118.3H928.638v-18.141H903.126a13.989,13.989,0,0,1-14-13.986v-83.434a13.634,13.634,0,0,1,.272-2.74Z" transform="translate(-144.113 -3448.53)" fill="#eeebdd"/>
      <rect id="Rectangle_179" data-name="Rectangle 179" width="118.302" height="71.244" transform="translate(266.402 184.507)" fill="#eeebdd"/>
      <rect id="Rectangle_180" data-name="Rectangle 180" width="118.302" height="34.484" transform="translate(266.402 137.449)" fill="#eeebdd"/>
      <path id="Path_14582" data-name="Path 14582" d="M665.4,3450.333v78.992L625.9,3568.8h-79.06V3450.333Z" transform="translate(-147.296 -3450.168)" fill="#eeebdd"/>
      <path id="Path_14583" data-name="Path 14583" d="M283.409,3450.17V3568.8H402.04V3450.17Zm108.54,86.459a13.985,13.985,0,0,1-13.985,13.984H346.359a13.985,13.985,0,0,1-13.985-13.984v-.079a13.985,13.985,0,0,1,13.985-13.984h31.605a13.985,13.985,0,0,1,13.985,13.984Zm0-51.751a13.985,13.985,0,0,1-13.985,13.985H346.359a13.985,13.985,0,0,1-13.985-13.985v-.08a13.985,13.985,0,0,1,13.985-13.984h31.605a13.985,13.985,0,0,1,13.985,13.984Z" transform="translate(-150.478 -3450.17)" fill="#eeebdd"/>
      <path id="Path_14584" data-name="Path 14584" d="M888.986,3916.427a13.994,13.994,0,0,0,14,13.986H928.5v45.172H883.325v-25.514a13.985,13.985,0,1,0-27.971,0v25.514H810.183v-45.172H835.7a13.985,13.985,0,1,0,0-27.971H810.183v-45.171h45.171v25.513a13.985,13.985,0,1,0,27.971,0v-25.513H928.5v45.171H902.982A13.99,13.99,0,0,0,888.986,3916.427Z" transform="translate(-144.115 -3445.253)" fill="#eeebdd"/>
      <path id="Path_14585" data-name="Path 14585" d="M797.184,3857.271v118.313h-118.3V3857.271h19.126v25.513a13.99,13.99,0,0,0,27.981,0v-25.513h23.77v25.513a13.985,13.985,0,0,0,27.97,0v-25.513Z" transform="translate(-145.701 -3445.253)" fill="#eeebdd"/>
      <path id="Path_14586" data-name="Path 14586" d="M401.873,3857.277v49.644a1.268,1.268,0,0,0-.192-.01,13.993,13.993,0,0,0-14,14v51.015a14,14,0,0,0,.487,3.669H296.877a13.958,13.958,0,0,0,.487-3.669v-51.015a13.975,13.975,0,0,0-13.793-13.986v-49.644Z" transform="translate(-150.476 -3445.253)" fill="#eeebdd"/>
      <path id="Path_14587" data-name="Path 14587" d="M270.371,3992.929v49.645a1.019,1.019,0,0,0-.192-.012,14,14,0,0,0-14,14v51.014a13.967,13.967,0,0,0,.488,3.669H165.375a14.011,14.011,0,0,0,.487-3.669v-51.014a13.973,13.973,0,0,0-13.793-13.984v-49.645h45.172v25.513a13.985,13.985,0,1,0,27.97,0v-25.513Z" transform="translate(-152.064 -3443.615)" fill="#eeebdd"/>
      <path id="Path_14588" data-name="Path 14588" d="M693.036,3721.535v90.332H678.7v27.981H797.013V3721.535Zm58.806,84.669a13.985,13.985,0,0,1-27.971,0v-51.026a13.985,13.985,0,0,1,27.971,0Z" transform="translate(-145.703 -3446.892)" fill="#eeebdd"/>
      <path id="Path_14589" data-name="Path 14589" d="M415.287,3721.625v118.3h118.3v-118.3Zm73.141,84.658a13.985,13.985,0,1,1-27.97,0v-51.026a13.985,13.985,0,1,1,27.97,0Z" transform="translate(-148.885 -3446.892)" fill="#eeebdd"/>
      <path id="Path_14590" data-name="Path 14590" d="M270.377,3721.625v118.313H246.336v-7.927a13.985,13.985,0,1,0-27.971,0v7.927h-14v-7.927a13.985,13.985,0,1,0-27.971,0v7.927H152.064V3721.625h46.711v25.513a13.99,13.99,0,1,0,27.981,0v-25.513Z" transform="translate(-152.064 -3446.892)" fill="#eeebdd"/>
      <path id="Path_14591" data-name="Path 14591" d="M757.448,3645.085a13.994,13.994,0,0,0,14,14h25.513v45.16H751.785v-25.512a13.985,13.985,0,0,0-27.97,0v25.512H678.644v-118.3h45.171v25.512a13.985,13.985,0,0,0,27.97,0V3585.94h45.172v45.16H771.444A13.988,13.988,0,0,0,757.448,3645.085Z" transform="translate(-145.704 -3448.531)" fill="#eeebdd"/>
      <path id="Path_14592" data-name="Path 14592" d="M401.879,3585.979v118.3H356.708v-25.513a13.985,13.985,0,0,0-27.971,0v25.513H283.566v-118.3h45.171v25.511a13.985,13.985,0,0,0,27.971,0v-25.511Z" transform="translate(-150.476 -3448.53)" fill="#eeebdd"/>
      <path id="Path_14593" data-name="Path 14593" d="M928.926,3721.541v118.3h-25.06l-27.925-27.927a13.988,13.988,0,1,0-19.782,19.783l8.141,8.143H810.624v-118.3Z" transform="translate(-144.11 -3446.892)" fill="#eeebdd"/>
      <path id="Path_14594" data-name="Path 14594" d="M665.295,3721.541v78.8H600.488a13.989,13.989,0,0,0-14,13.985v25.515h-39.5V3770.1h25.514a13.985,13.985,0,0,0,0-27.971H546.993v-20.587Z" transform="translate(-147.294 -3446.892)" fill="#eeebdd"/>
      <path id="Path_14595" data-name="Path 14595" d="M889.575,3489.693a13.882,13.882,0,0,0,4.128,9.9,14.048,14.048,0,0,0,9.958,4.1h25.7v25.549H864.083a14.049,14.049,0,0,0-14.1,14v25.55H810.2V3450.333H929.358v25.355h-25.7A14.047,14.047,0,0,0,889.575,3489.693Z" transform="translate(-144.115 -3450.168)" fill="#eeebdd"/>
      <path id="Path_14596" data-name="Path 14596" d="M757.441,3483.682a14,14,0,0,0,14,14h25.512V3521.3H771.438a13.991,13.991,0,1,0,0,27.982h25.512v19.351h-118.3v-118.3h118.3V3469.7H771.438A13.989,13.989,0,0,0,757.441,3483.682Z" transform="translate(-145.704 -3450.168)" fill="#eeebdd"/>
      <path id="Path_14597" data-name="Path 14597" d="M270.366,3450.333v118.3H225.2v-25.513a13.985,13.985,0,0,0-27.97,0v25.513H152.064v-118.3Z" transform="translate(-152.064 -3450.168)" fill="#eeebdd"/>
      <path id="Path_14598" data-name="Path 14598" d="M415.287,3450.333h118.3v45.16H508.075a13.985,13.985,0,0,0,0,27.97h25.513v45.171h-118.3Z" transform="translate(-148.885 -3450.168)" fill="#eeebdd"/>
      <path id="Path_14599" data-name="Path 14599" d="M230.872,3645.124v24.619a13.991,13.991,0,1,0,27.982,0v-10.634h11.516v45.172h-118.3v-118.3h118.3v45.16H244.858A13.986,13.986,0,0,0,230.872,3645.124Z" transform="translate(-152.064 -3448.53)" fill="#eeebdd"/>
      <path id="Path_14600" data-name="Path 14600" d="M230.872,3891.855a14,14,0,0,0,13.985,14h25.513v69.733h-118.3v-18.13h25.513a13.991,13.991,0,1,0,0-27.982H152.069v-72.191h118.3v20.588H244.857A13.987,13.987,0,0,0,230.872,3891.855Z" transform="translate(-152.064 -3445.252)" fill="#eeebdd"/>
      <path id="Path_14601" data-name="Path 14601" d="M401.882,3721.75v118.188H338.411v-25.513a13.99,13.99,0,1,0-27.981,0v25.513H283.569V3721.625H347.1v25.637a13.986,13.986,0,0,0,13.985,13.985,14,14,0,0,0,13.986-13.985V3721.75Z" transform="translate(-150.476 -3446.892)" fill="#eeebdd"/>
      <path id="Path_14602" data-name="Path 14602" d="M401.757,4111.242H283.569v-63.471h25.513a13.991,13.991,0,1,0,0-27.981H283.569v-26.86H401.882v63.528H376.244a13.985,13.985,0,0,0-13.985,13.984,14,14,0,0,0,13.985,13.987h25.513Z" transform="translate(-150.476 -3443.615)" fill="#eeebdd"/>
    </g>
    <rect id="Rectangle_181" data-name="Rectangle 181" width="1093.045" height="1093.045" transform="translate(692.489 3279.134)" fill="#eeebdd"/>
    <g id="Group_627" data-name="Group 627" transform="translate(833.18 3418.088)">
      <g id="Group_623" data-name="Group 623" transform="translate(11.606 421.658)">
        <path id="Path_14603" data-name="Path 14603" d="M941.873,4873.922v182.649H875.96V4927.3a21.593,21.593,0,0,0-21.592-21.593H759.206v-31.785Z" transform="translate(-143.127 -4873.922)" fill="#1b1717"/>
        <path id="Path_14604" data-name="Path 14604" d="M700.437,4905.707h39.39v-31.785H557.161v182.649H739.827v-107.68h-39.39a21.592,21.592,0,1,1,0-43.184Zm-53.883,111.438H626.9a21.592,21.592,0,1,1,0-43.184h19.652a21.592,21.592,0,1,1,0,43.184Z" transform="translate(-145.567 -4873.922)" fill="#1b1717"/>
        <path id="Path_14605" data-name="Path 14605" d="M333.128,4873.922v182.649H211.461v-49.6a21.6,21.6,0,0,0-21.592-21.593h-39.39V4873.922h47.677v39.391a21.6,21.6,0,0,0,43.2,0v-39.391Z" transform="translate(-150.479 -4873.922)" fill="#1b1717"/>
        <path id="Path_14606" data-name="Path 14606" d="M414.811,4986.847v16.347a21.6,21.6,0,0,1-21.61,21.591h-39.39v31.786H536.478v-91.333h-39.39a21.6,21.6,0,0,1-21.61-21.593v-20.124a21.6,21.6,0,0,1,21.61-21.592h39.39v-28.008H353.811v91.316H393.2A21.612,21.612,0,0,1,414.811,4986.847Z" transform="translate(-148.023 -4873.922)" fill="#1b1717"/>
      </g>
      <g id="Group_624" data-name="Group 624">
        <path id="Path_14607" data-name="Path 14607" d="M903.778,4489.081h39.39V4457.3H760.5v182.649H943.168V4532.264h-39.39a21.592,21.592,0,1,1,0-43.184ZM849.895,4600.52H830.243a21.592,21.592,0,1,1,0-43.183h19.652a21.592,21.592,0,1,1,0,43.183Z" transform="translate(-131.505 -4457.296)" fill="#1b1717"/>
        <path id="Path_14608" data-name="Path 14608" d="M536.469,4457.3v182.649H414.8v-49.6a21.594,21.594,0,0,0-21.592-21.593H353.82V4457.3H401.5v39.39a21.6,21.6,0,0,0,43.2,0V4457.3Z" transform="translate(-136.417 -4457.296)" fill="#1b1717"/>
        <path id="Path_14609" data-name="Path 14609" d="M618.152,4570.221v16.348a21.6,21.6,0,0,1-21.61,21.591h-39.39v31.786H739.819v-91.333h-39.39a21.6,21.6,0,0,1-21.61-21.593V4506.9a21.6,21.6,0,0,1,21.61-21.592h39.39V4457.3H557.152v91.316h39.39A21.612,21.612,0,0,1,618.152,4570.221Z" transform="translate(-133.962 -4457.296)" fill="#1b1717"/>
        <path id="Path_14610" data-name="Path 14610" d="M321.661,4457.3v182.649H199.994V4532.282a21.6,21.6,0,0,0-21.592-21.608h-39.39V4457.3Z" transform="translate(-139.012 -4457.296)" fill="#1b1717"/>
      </g>
      <g id="Group_625" data-name="Group 625" transform="translate(11.587 632.487)">
        <path id="Path_14611" data-name="Path 14611" d="M353.82,5082.235v182.648H536.486V5082.235Zm130.723,154.656h-78.78a21.6,21.6,0,0,1,0-43.2h78.78a21.6,21.6,0,0,1,0,43.2Zm0-79.687h-78.78a21.593,21.593,0,0,1,0-43.185h78.78a21.593,21.593,0,0,1,0,43.185Z" transform="translate(-148.005 -5082.235)" fill="#1b1717"/>
        <path id="Path_14612" data-name="Path 14612" d="M333.128,5082.235v182.648H267.215V5135.612a21.594,21.594,0,0,0-21.592-21.593H150.461v-31.784Z" transform="translate(-150.461 -5082.235)" fill="#1b1717"/>
        <path id="Path_14613" data-name="Path 14613" d="M556.522,5082.235v107.679h39.372a21.592,21.592,0,1,1,0,43.184H556.522v31.785H739.188V5082.235Zm112.925,82.608H649.778a21.592,21.592,0,0,1,0-43.184h19.669a21.592,21.592,0,0,1,0,43.184Z" transform="translate(-145.556 -5082.235)" fill="#1b1717"/>
        <path id="Path_14614" data-name="Path 14614" d="M759.224,5082.235v182.648H941.873V5082.235Zm112.908,130.723a21.592,21.592,0,0,1-43.185,0v-78.78a21.592,21.592,0,1,1,43.185,0Z" transform="translate(-143.108 -5082.235)" fill="#1b1717"/>
      </g>
      <g id="Group_626" data-name="Group 626" transform="translate(11.246 210.829)">
        <path id="Path_14615" data-name="Path 14615" d="M271.791,4778.534v16.347a21.6,21.6,0,0,0,21.609,21.593h39.39v31.785H150.124v-91.333h39.39a21.6,21.6,0,0,0,21.609-21.593v-20.124a21.6,21.6,0,0,0-21.609-21.591h-39.39v-28.009H332.79v91.316H293.4A21.611,21.611,0,0,0,271.791,4778.534Z" transform="translate(-150.124 -4665.609)" fill="#1b1717"/>
        <path id="Path_14616" data-name="Path 14616" d="M556.522,4665.609V4773.29h39.372a21.592,21.592,0,1,1,0,43.184H556.522v31.785H739.188V4665.609Zm112.925,82.609H649.778a21.592,21.592,0,0,1,0-43.184h19.669a21.592,21.592,0,0,1,0,43.184Z" transform="translate(-145.215 -4665.609)" fill="#1b1717"/>
        <path id="Path_14617" data-name="Path 14617" d="M759.224,4665.609v182.649H941.873V4665.609Zm112.908,130.724a21.592,21.592,0,0,1-43.185,0v-78.78a21.592,21.592,0,1,1,43.185,0Z" transform="translate(-142.767 -4665.609)" fill="#1b1717"/>
        <path id="Path_14618" data-name="Path 14618" d="M414.49,4796.77a21.61,21.61,0,0,0-21.609-21.611h-39.39v-36.469h39.39a21.6,21.6,0,1,0,0-43.2h-39.39v-29.879H536.14v182.649H353.491v-29.9h39.39A21.6,21.6,0,0,0,414.49,4796.77Z" transform="translate(-147.668 -4665.609)" fill="#1b1717"/>
      </g>
    </g>
    <rect id="Rectangle_182" data-name="Rectangle 182" width="1092.747" height="1092.747" transform="translate(692.489 4372.179)" fill="#810000"/>
    <g id="Group_632" data-name="Group 632" transform="translate(833.142 4511.094)">
      <g id="Group_628" data-name="Group 628" transform="translate(11.602 421.544)">
        <path id="Path_14619" data-name="Path 14619" d="M941.617,5953.771v182.6H875.722V6007.134a21.589,21.589,0,0,0-21.587-21.586H759v-31.776Z" transform="translate(-143.088 -5953.771)" fill="#eeebdd"/>
        <path id="Path_14620" data-name="Path 14620" d="M700.246,5985.547h39.379v-31.776H557.009v182.6H739.625V6028.721H700.246a21.587,21.587,0,1,1,0-43.173Zm-53.869,111.411H626.731a21.587,21.587,0,1,1,0-43.174h19.646a21.587,21.587,0,1,1,0,43.174Z" transform="translate(-145.527 -5953.771)" fill="#eeebdd"/>
        <path id="Path_14621" data-name="Path 14621" d="M333.037,5953.771v182.6H211.4v-49.585a21.589,21.589,0,0,0-21.587-21.587H150.438V5953.771H198.1v39.379a21.595,21.595,0,0,0,43.189,0v-39.379Z" transform="translate(-150.438 -5953.771)" fill="#eeebdd"/>
        <path id="Path_14622" data-name="Path 14622" d="M414.7,6066.665v16.344a21.591,21.591,0,0,1-21.6,21.585H353.715v31.776H536.332v-91.308H496.952a21.591,21.591,0,0,1-21.6-21.585v-20.118a21.591,21.591,0,0,1,21.6-21.586h39.379v-28H353.715v91.291h39.379A21.607,21.607,0,0,1,414.7,6066.665Z" transform="translate(-147.983 -5953.771)" fill="#eeebdd"/>
      </g>
      <g id="Group_629" data-name="Group 629">
        <path id="Path_14623" data-name="Path 14623" d="M903.533,5569.034h39.379v-31.776H760.295v182.6H942.911V5612.206H903.533a21.586,21.586,0,1,1,0-43.171Zm-53.87,111.409H830.017a21.586,21.586,0,1,1,0-43.171h19.646a21.586,21.586,0,1,1,0,43.171Z" transform="translate(-131.47 -5537.258)" fill="#eeebdd"/>
        <path id="Path_14624" data-name="Path 14624" d="M536.322,5537.258v182.6H414.689V5670.27a21.585,21.585,0,0,0-21.586-21.584h-39.38V5537.258h47.665v39.381a21.595,21.595,0,0,0,43.189,0v-39.381Z" transform="translate(-136.38 -5537.258)" fill="#eeebdd"/>
        <path id="Path_14625" data-name="Path 14625" d="M617.983,5650.155v16.34a21.59,21.59,0,0,1-21.6,21.586H557v31.779H739.617v-91.31h-39.38a21.59,21.59,0,0,1-21.6-21.587v-20.116a21.591,21.591,0,0,1,21.6-21.587h39.38v-28H557v91.292h39.38A21.607,21.607,0,0,1,617.983,5650.155Z" transform="translate(-133.925 -5537.258)" fill="#eeebdd"/>
        <path id="Path_14626" data-name="Path 14626" d="M321.573,5537.258v182.6H199.94V5612.225a21.592,21.592,0,0,0-21.587-21.6H138.974v-53.363Z" transform="translate(-138.974 -5537.258)" fill="#eeebdd"/>
      </g>
      <g id="Group_630" data-name="Group 630" transform="translate(11.584 632.315)">
        <path id="Path_14627" data-name="Path 14627" d="M353.723,6162.026v182.6H536.34v-182.6Zm130.688,154.617H405.653a21.594,21.594,0,0,1,0-43.189h78.758a21.594,21.594,0,0,1,0,43.189Zm0-79.667H405.653a21.586,21.586,0,1,1,0-43.172h78.758a21.586,21.586,0,1,1,0,43.172Z" transform="translate(-147.964 -6162.026)" fill="#eeebdd"/>
        <path id="Path_14628" data-name="Path 14628" d="M333.037,6162.026v182.6H267.143V6215.391a21.589,21.589,0,0,0-21.587-21.587H150.42v-31.777Z" transform="translate(-150.42 -6162.026)" fill="#eeebdd"/>
        <path id="Path_14629" data-name="Path 14629" d="M556.37,6162.026V6269.68h39.362a21.585,21.585,0,1,1,0,43.171H556.37v31.776H738.987v-182.6Zm112.894,82.587H649.6a21.586,21.586,0,0,1,0-43.172h19.664a21.586,21.586,0,1,1,0,43.172Z" transform="translate(-145.517 -6162.026)" fill="#eeebdd"/>
        <path id="Path_14630" data-name="Path 14630" d="M759.017,6162.026v182.6h182.6v-182.6Zm112.877,130.689a21.586,21.586,0,1,1-43.172,0v-78.757a21.586,21.586,0,1,1,43.172,0Z" transform="translate(-143.069 -6162.026)" fill="#eeebdd"/>
      </g>
      <g id="Group_631" data-name="Group 631" transform="translate(11.243 210.773)">
        <path id="Path_14631" data-name="Path 14631" d="M271.717,5858.409v16.343a21.592,21.592,0,0,0,21.6,21.586H332.7v31.776H150.083v-91.308h39.379a21.591,21.591,0,0,0,21.6-21.586V5795.1a21.592,21.592,0,0,0-21.6-21.586H150.083v-28H332.7v91.291H293.32A21.606,21.606,0,0,0,271.717,5858.409Z" transform="translate(-150.083 -5745.515)" fill="#eeebdd"/>
        <path id="Path_14632" data-name="Path 14632" d="M556.37,5745.515v107.651h39.362a21.586,21.586,0,1,1,0,43.172H556.37v31.776H738.987v-182.6ZM669.264,5828.1H649.6a21.586,21.586,0,0,1,0-43.171h19.664a21.586,21.586,0,1,1,0,43.171Z" transform="translate(-145.176 -5745.515)" fill="#eeebdd"/>
        <path id="Path_14633" data-name="Path 14633" d="M759.017,5745.515v182.6h182.6v-182.6ZM871.894,5876.2a21.586,21.586,0,0,1-43.172,0v-78.759a21.586,21.586,0,1,1,43.172,0Z" transform="translate(-142.728 -5745.515)" fill="#eeebdd"/>
        <path id="Path_14634" data-name="Path 14634" d="M414.377,5876.64a21.6,21.6,0,0,0-21.6-21.6h-39.38v-36.46h39.38a21.595,21.595,0,1,0,0-43.189h-39.38v-29.871h182.6v182.6h-182.6v-29.888h39.38A21.592,21.592,0,0,0,414.377,5876.64Z" transform="translate(-147.627 -5745.515)" fill="#eeebdd"/>
      </g>
    </g>
    <rect id="Rectangle_183" data-name="Rectangle 183" width="1093.045" height="1093.045" transform="translate(692.489 5464.926)" fill="#1b1717"/>
    <path id="Path_14635" data-name="Path 14635" d="M700.437,7065.412h39.39v-31.783H557.161v182.65H739.827V7108.6h-39.39a21.593,21.593,0,1,1,0-43.185Zm-53.883,111.44H626.9a21.591,21.591,0,1,1,0-43.182h19.652a21.591,21.591,0,1,1,0,43.182Z" transform="translate(699.219 -1008.092)" fill="#eeebdd"/>
    <path id="Path_14636" data-name="Path 14636" d="M333.128,7033.629v182.65H211.461v-49.6a21.6,21.6,0,0,0-21.592-21.594h-39.39V7033.629h47.677v39.39a21.6,21.6,0,0,0,43.2,0v-39.39Z" transform="translate(694.307 -1008.092)" fill="#eeebdd"/>
    <path id="Path_14637" data-name="Path 14637" d="M414.811,7146.551v16.35a21.6,21.6,0,0,1-21.61,21.59h-39.39v31.788H536.478v-91.334h-39.39a21.6,21.6,0,0,1-21.61-21.594v-20.122a21.6,21.6,0,0,1,21.61-21.593h39.39v-28.007H353.811v91.316H393.2A21.611,21.611,0,0,1,414.811,7146.551Z" transform="translate(696.762 -1008.092)" fill="#eeebdd"/>
    <path id="Path_14638" data-name="Path 14638" d="M321.661,6617v182.65H199.994V6691.988A21.6,21.6,0,0,0,178.4,6670.38h-39.39V6617Z" transform="translate(694.168 -1013.122)" fill="#eeebdd"/>
    <path id="Path_14639" data-name="Path 14639" d="M353.82,7241.942V7424.59H536.486V7241.942ZM484.543,7396.6h-78.78a21.6,21.6,0,0,1,0-43.2h78.78a21.6,21.6,0,0,1,0,43.2Zm0-79.687h-78.78a21.593,21.593,0,0,1,0-43.185h78.78a21.593,21.593,0,0,1,0,43.185Z" transform="translate(696.763 -1005.575)" fill="#eeebdd"/>
    <path id="Path_14640" data-name="Path 14640" d="M333.128,7241.942V7424.59H267.215V7295.318a21.592,21.592,0,0,0-21.592-21.592H150.461v-31.785Z" transform="translate(694.306 -1005.575)" fill="#eeebdd"/>
    <path id="Path_14641" data-name="Path 14641" d="M556.522,7241.942v107.68h39.372a21.592,21.592,0,1,1,0,43.184H556.522v31.785H739.188V7241.942Zm112.925,82.607H649.778a21.591,21.591,0,1,1,0-43.182h19.669a21.591,21.591,0,1,1,0,43.182Z" transform="translate(699.211 -1005.575)" fill="#eeebdd"/>
    <path id="Path_14642" data-name="Path 14642" d="M759.224,7241.942V7424.59H941.873V7241.942Zm112.908,130.723a21.592,21.592,0,0,1-43.185,0v-78.781a21.592,21.592,0,1,1,43.185,0Z" transform="translate(701.659 -1005.575)" fill="#eeebdd"/>
    <path id="Path_14643" data-name="Path 14643" d="M271.791,6938.24v16.348a21.6,21.6,0,0,0,21.609,21.59h39.39v31.787H150.124v-91.333h39.39a21.6,21.6,0,0,0,21.609-21.593v-20.123a21.6,21.6,0,0,0-21.609-21.592h-39.39v-28.008H332.79v91.316H293.4A21.612,21.612,0,0,0,271.791,6938.24Z" transform="translate(694.302 -1010.606)" fill="#eeebdd"/>
    <path id="Path_14644" data-name="Path 14644" d="M414.49,6956.475a21.61,21.61,0,0,0-21.609-21.611h-39.39v-36.469h39.39a21.6,21.6,0,1,0,0-43.2h-39.39v-29.878H536.14v182.649H353.491v-29.9h39.39A21.6,21.6,0,0,0,414.49,6956.475Z" transform="translate(696.759 -1010.606)" fill="#eeebdd"/>
    <rect id="Rectangle_184" data-name="Rectangle 184" width="1093.11" height="1093.11" transform="translate(692.489 7651.078)" fill="#eeebdd"/>
    <rect id="Rectangle_185" data-name="Rectangle 185" width="1093.11" height="1093.11" transform="translate(692.489 6557.971)" fill="#810000"/>
    <rect id="Rectangle_186" data-name="Rectangle 186" width="1093.11" height="1093.11" transform="translate(692.489 8741.484)" fill="#eeebdd"/>
    <path id="Path_14645" data-name="Path 14645" d="M979.936,8140.572v75.188H951.228v-16.215a8.888,8.888,0,0,0-17.776,0v16.215H904.743v-75.187h28.709v16.215a8.888,8.888,0,0,0,17.776,0v-16.215Z" transform="translate(703.417 -994.721)" fill="#eeebdd"/>
    <path id="Path_14646" data-name="Path 14646" d="M394.9,8140.572v75.188H378.977l-17.748-17.749a8.891,8.891,0,1,0-12.573,12.574l5.175,5.175H319.718v-75.187Z" transform="translate(696.351 -994.721)" fill="#eeebdd"/>
    <path id="Path_14647" data-name="Path 14647" d="M812.781,8140.572v75.188H796.854l-17.747-17.749a8.891,8.891,0,1,0-12.573,12.574l5.174,5.175H737.6v-75.187Z" transform="translate(701.398 -994.721)" fill="#eeebdd"/>
    <path id="Path_14648" data-name="Path 14648" d="M478.479,8037.314V8087.4H437.292a8.892,8.892,0,0,0-8.9,8.89V8112.5h-25.1v-44.326h16.215a8.888,8.888,0,0,0,0-17.775H403.293v-13.085Z" transform="translate(697.36 -995.968)" fill="#eeebdd"/>
    <path id="Path_14649" data-name="Path 14649" d="M729.206,8140.572v75.188H700.5v-16.215a8.888,8.888,0,0,0-17.776,0v16.215H654.02v-75.187Z" transform="translate(700.388 -994.721)" fill="#eeebdd"/>
    <path id="Path_14650" data-name="Path 14650" d="M704.1,8058.509a8.894,8.894,0,0,0,8.9,8.9h16.214v15.013H712.991a8.891,8.891,0,1,0,0,17.782h16.214v12.3H654.02v-75.186h75.185v12.308H712.991A8.889,8.889,0,0,0,704.1,8058.509Z" transform="translate(700.388 -995.968)" fill="#eeebdd"/>
    <path id="Path_14651" data-name="Path 14651" d="M453.37,8161.768a8.9,8.9,0,0,0,8.9,8.9h16.215v15.012H462.265a8.892,8.892,0,1,0,0,17.784h16.215v12.3H403.293v-75.187h75.186v12.307H462.265A8.891,8.891,0,0,0,453.37,8161.768Z" transform="translate(697.36 -994.721)" fill="#eeebdd"/>
    <path id="Path_14652" data-name="Path 14652" d="M620.521,8161.768a8.9,8.9,0,0,0,8.9,8.9H645.63v15.012H629.416a8.892,8.892,0,1,0,0,17.784H645.63v12.3H570.444v-75.187H645.63v12.307H629.416A8.891,8.891,0,0,0,620.521,8161.768Z" transform="translate(699.379 -994.721)" fill="#eeebdd"/>
    <path id="Path_14653" data-name="Path 14653" d="M562.054,8037.314V8112.5h-28.7v-16.215a8.888,8.888,0,0,0-17.776,0V8112.5H486.869v-75.186Z" transform="translate(698.37 -995.968)" fill="#eeebdd"/>
    <path id="Path_14654" data-name="Path 14654" d="M570.444,8037.314H645.63v28.7H629.416a8.889,8.889,0,0,0,0,17.777H645.63V8112.5H570.444Z" transform="translate(699.379 -995.968)" fill="#eeebdd"/>
    <path id="Path_14655" data-name="Path 14655" d="M821.171,8140.572h75.186v28.7H880.143a8.888,8.888,0,0,0,0,17.775h16.214v28.71H821.171Z" transform="translate(702.407 -994.721)" fill="#eeebdd"/>
    <path id="Path_14656" data-name="Path 14656" d="M369.8,8059.286a8.9,8.9,0,0,0,8.888,8.9H394.9V8112.5H319.718v-11.522h16.214a8.892,8.892,0,1,0,0-17.785H319.718v-45.879H394.9V8050.4H378.689A8.889,8.889,0,0,0,369.8,8059.286Z" transform="translate(696.351 -995.968)" fill="#eeebdd"/>
    <path id="Path_14657" data-name="Path 14657" d="M536.952,8162.546a8.9,8.9,0,0,0,8.888,8.9h16.214v44.318H486.869v-11.524h16.215a8.891,8.891,0,1,0,0-17.782H486.869v-45.881h75.185v13.085H545.84A8.89,8.89,0,0,0,536.952,8162.546Z" transform="translate(698.37 -994.721)" fill="#eeebdd"/>
    <g id="Group_633" data-name="Group 633" transform="translate(821.448 6862.152)">
      <path id="Path_14658" data-name="Path 14658" d="M243.689,8184.376l-12.612,29.271a6.381,6.381,0,0,1-11.586.293l-7.952-16.146a6.9,6.9,0,0,0-12.524.317l-8.727,18.271a3.747,3.747,0,0,1-6.883,0l-10.351-22.042a4.841,4.841,0,0,0-8.842-.114l-8.1,17.552a7.9,7.9,0,0,1-14.17.349l-2.425-4.632a106.162,106.162,0,0,1-12.1-49.214h0a28.059,28.059,0,0,1,28.058-28.058h54.043a34.168,34.168,0,0,0,34.168-34.167V7957.639a81.28,81.28,0,0,0-14.125-45.788l-30.015-44.022a17.337,17.337,0,0,0-28.434-.309l-33.783,47.3a53.212,53.212,0,0,0-9.911,30.928v98.043a21.2,21.2,0,0,0,21.2,21.2h15.957A20.982,20.982,0,0,0,185.554,8044v-52.011" transform="translate(-127.42 -7860.257)" fill="none" stroke="#eeebdd" stroke-miterlimit="10" stroke-width="11.201"/>
      <circle id="Ellipse_53" data-name="Ellipse 53" cx="22.285" cy="22.285" r="22.285" transform="translate(35.849 87.166)" fill="none" stroke="#eeebdd" stroke-miterlimit="10" stroke-width="11.201"/>
    </g>
    <path id="Path_14659" data-name="Path 14659" d="M979.936,9220.638v75.185H951.228v-16.215a8.888,8.888,0,0,0-17.776,0v16.215H904.743v-75.185h28.709v16.214a8.888,8.888,0,0,0,17.776,0v-16.214Z" transform="translate(703.417 -981.676)" stroke="#000" stroke-linecap="round" stroke-miterlimit="10" stroke-width="0.711"/>
    <path id="Path_14660" data-name="Path 14660" d="M394.9,9220.638v75.185H378.977l-17.748-17.748a8.891,8.891,0,1,0-12.573,12.574l5.175,5.174H319.718v-75.185Z" transform="translate(696.351 -981.676)" stroke="#000" stroke-linecap="round" stroke-miterlimit="10" stroke-width="0.711"/>
    <path id="Path_14661" data-name="Path 14661" d="M812.781,9220.638v75.185H796.854l-17.747-17.748a8.891,8.891,0,1,0-12.573,12.574l5.174,5.174H737.6v-75.185Z" transform="translate(701.398 -981.676)" stroke="#000" stroke-linecap="round" stroke-miterlimit="10" stroke-width="0.711"/>
    <path id="Path_14662" data-name="Path 14662" d="M478.479,9117.381v50.081H437.292a8.892,8.892,0,0,0-8.9,8.89v16.216h-25.1v-44.328h16.215a8.889,8.889,0,0,0,0-17.777H403.293v-13.081Z" transform="translate(697.36 -982.925)" stroke="#000" stroke-linecap="round" stroke-miterlimit="10" stroke-width="0.711"/>
    <path id="Path_14663" data-name="Path 14663" d="M729.206,9220.638v75.185H700.5v-16.214a8.888,8.888,0,0,0-17.776,0v16.214H654.02v-75.185Z" transform="translate(700.388 -981.676)" stroke="#000" stroke-linecap="round" stroke-miterlimit="10" stroke-width="0.711"/>
    <path id="Path_14664" data-name="Path 14664" d="M704.1,9138.572a8.9,8.9,0,0,0,8.9,8.9h16.214v15.01H712.991a8.893,8.893,0,1,0,0,17.785h16.214v12.3H654.02v-75.187h75.185v12.306H712.991A8.89,8.89,0,0,0,704.1,9138.572Z" transform="translate(700.388 -982.925)" stroke="#000" stroke-linecap="round" stroke-miterlimit="10" stroke-width="0.711"/>
    <path id="Path_14665" data-name="Path 14665" d="M453.37,9241.832a8.89,8.89,0,0,0,8.9,8.895h16.215v15.014H462.265a8.892,8.892,0,1,0,0,17.784h16.215v12.3H403.293v-75.185h75.186v12.3H462.265A8.89,8.89,0,0,0,453.37,9241.832Z" transform="translate(697.36 -981.676)" stroke="#000" stroke-linecap="round" stroke-miterlimit="10" stroke-width="0.711"/>
    <path id="Path_14666" data-name="Path 14666" d="M620.521,9241.832a8.89,8.89,0,0,0,8.9,8.895H645.63v15.014H629.416a8.892,8.892,0,1,0,0,17.784H645.63v12.3H570.444v-75.185H645.63v12.3H629.416A8.89,8.89,0,0,0,620.521,9241.832Z" transform="translate(699.379 -981.676)" stroke="#000" stroke-linecap="round" stroke-miterlimit="10" stroke-width="0.711"/>
    <path id="Path_14667" data-name="Path 14667" d="M562.054,9117.379v75.188h-28.7v-16.215a8.888,8.888,0,0,0-17.776,0v16.215H486.869v-75.187Z" transform="translate(698.37 -982.924)" stroke="#000" stroke-linecap="round" stroke-miterlimit="10" stroke-width="0.711"/>
    <path id="Path_14668" data-name="Path 14668" d="M570.444,9117.379H645.63v28.7H629.416a8.889,8.889,0,0,0,0,17.778H645.63v28.708H570.444Z" transform="translate(699.379 -982.924)" stroke="#000" stroke-linecap="round" stroke-miterlimit="10" stroke-width="0.711"/>
    <path id="Path_14669" data-name="Path 14669" d="M821.171,9220.638h75.186v28.7H880.143a8.889,8.889,0,0,0,0,17.777h16.214v28.708H821.171Z" transform="translate(702.407 -981.676)" stroke="#000" stroke-linecap="round" stroke-miterlimit="10" stroke-width="0.711"/>
    <path id="Path_14670" data-name="Path 14670" d="M369.8,9139.354a8.9,8.9,0,0,0,8.888,8.9H394.9v44.317H319.718v-11.521h16.214a8.891,8.891,0,1,0,0-17.782H319.718v-45.884H394.9v13.084H378.689A8.89,8.89,0,0,0,369.8,9139.354Z" transform="translate(696.351 -982.924)" stroke="#000" stroke-linecap="round" stroke-miterlimit="10" stroke-width="0.711"/>
    <path id="Path_14671" data-name="Path 14671" d="M536.952,9242.608a8.895,8.895,0,0,0,8.888,8.895h16.214v44.319H486.869V9284.3h16.215a8.893,8.893,0,1,0,0-17.785H486.869v-45.878h75.185v13.084H545.84A8.889,8.889,0,0,0,536.952,9242.608Z" transform="translate(698.37 -981.676)" stroke="#000" stroke-linecap="round" stroke-miterlimit="10" stroke-width="0.711"/>
    <g id="Group_634" data-name="Group 634" transform="translate(821.448 7955.262)">
      <path id="Path_14672" data-name="Path 14672" d="M243.689,9264.44l-12.612,29.271a6.381,6.381,0,0,1-11.586.295l-7.952-16.146a6.9,6.9,0,0,0-12.524.314l-8.727,18.272a3.746,3.746,0,0,1-6.883,0l-10.351-22.042a4.841,4.841,0,0,0-8.842-.112l-8.1,17.552a7.9,7.9,0,0,1-14.17.352l-2.425-4.636a106.157,106.157,0,0,1-12.1-49.215h0a28.056,28.056,0,0,1,28.058-28.055h54.043a34.169,34.169,0,0,0,34.168-34.169V9037.7a81.267,81.267,0,0,0-14.125-45.786l-30.015-44.024a17.336,17.336,0,0,0-28.434-.309l-33.783,47.3a53.209,53.209,0,0,0-9.911,30.927v98.044a21.2,21.2,0,0,0,21.2,21.2h15.957a20.98,20.98,0,0,0,20.98-20.979v-52.01" transform="translate(-127.42 -8940.321)" fill="none" stroke="#000" stroke-linecap="round" stroke-miterlimit="10" stroke-width="9.042"/>
      <circle id="Ellipse_54" data-name="Ellipse 54" cx="22.285" cy="22.285" r="22.285" transform="translate(35.849 87.165)" fill="none" stroke="#000" stroke-miterlimit="10" stroke-width="9.042"/>
    </g>
    <g id="Group_635" data-name="Group 635" transform="translate(1501.497 9140.867)">
      <circle id="Ellipse_55" data-name="Ellipse 55" cx="35.902" cy="35.902" r="35.902" fill="#ce1212"/>
      <circle id="Ellipse_56" data-name="Ellipse 56" cx="35.902" cy="35.902" r="35.902" transform="translate(0 82.131)" fill="#810000"/>
      <circle id="Ellipse_57" data-name="Ellipse 57" cx="35.902" cy="35.902" r="35.902" transform="translate(0 163.099)" fill="#1b1717"/>
    </g>
    <path id="Path_14673" data-name="Path 14673" d="M718.01,9992.854v207.37H366.252V10146.3" transform="translate(696.913 -972.348)" fill="none" stroke="#000" stroke-linecap="round" stroke-miterlimit="10" stroke-width="3.327"/>
    <line id="Line_55" data-name="Line 55" y2="83.186" transform="translate(1414.923 8937.32)" fill="none" stroke="#b3b3b3" stroke-linecap="round" stroke-miterlimit="10" stroke-width="3.327" stroke-dasharray="9.601"/>
    <path id="Path_14674" data-name="Path 14674" d="M366.252,10064.834V9850.191H718.01v61.2" transform="translate(696.913 -974.072)" fill="none" stroke="#000" stroke-linecap="round" stroke-miterlimit="10" stroke-width="3.327"/>
    <line id="Line_56" data-name="Line 56" y1="83.186" transform="translate(1063.165 9090.764)" fill="none" stroke="#b3b3b3" stroke-linecap="round" stroke-miterlimit="10" stroke-width="3.327" stroke-dasharray="9.601"/>
    <path id="Path_14675" data-name="Path 14675" d="M715.214,9910.662H639.356a41.593,41.593,0,0,0-41.593,41.595h0a41.6,41.6,0,0,0,41.593,41.592h75.857" transform="translate(699.709 -973.342)" fill="none" stroke="#000" stroke-linecap="round" stroke-miterlimit="10" stroke-width="3.327" stroke-dasharray="9.601"/>
    <path id="Path_14676" data-name="Path 14676" d="M713.812,9993.849H789.67a41.594,41.594,0,0,0,41.593-41.592h0a41.593,41.593,0,0,0-41.593-41.595H713.812" transform="translate(701.111 -973.342)" fill="none" stroke="#b3b3b3" stroke-linecap="round" stroke-miterlimit="10" stroke-width="3.327" stroke-dasharray="9.601"/>
    <path id="Path_14677" data-name="Path 14677" d="M367.654,10062.274H291.8a41.593,41.593,0,0,0-41.593,41.593h0a41.593,41.593,0,0,0,41.593,41.592h75.857" transform="translate(695.511 -971.51)" fill="none" stroke="#b3b3b3" stroke-linecap="round" stroke-miterlimit="10" stroke-width="3.327" stroke-dasharray="9.601"/>
    <path id="Path_14678" data-name="Path 14678" d="M366.252,10145.46H442.11a41.592,41.592,0,0,0,41.592-41.592h0a41.592,41.592,0,0,0-41.592-41.593H366.252" transform="translate(696.913 -971.51)" fill="none" stroke="#000" stroke-linecap="round" stroke-miterlimit="10" stroke-width="3.327" stroke-dasharray="9.601"/>
    <path id="Path_14679" data-name="Path 14679" d="M716.609,10468.124v137.112H482.3" transform="translate(698.314 -966.607)" fill="none" stroke="#b3b3b3" stroke-linecap="round" stroke-miterlimit="10" stroke-width="3.327" stroke-dasharray="9.601"/>
    <path id="Path_14680" data-name="Path 14680" d="M366.252,10317.243v-61.2H718.01v214.646" transform="translate(696.913 -969.169)" fill="none" stroke="#000" stroke-linecap="round" stroke-miterlimit="10" stroke-width="3.327"/>
    <line id="Line_57" data-name="Line 57" y1="83.186" transform="translate(1063.165 9348.07)" fill="none" stroke="#b3b3b3" stroke-linecap="round" stroke-miterlimit="10" stroke-width="3.327" stroke-dasharray="9.601"/>
    <path id="Path_14681" data-name="Path 14681" d="M483.7,10606.074H366.252V10398.7" transform="translate(696.913 -967.445)" fill="none" stroke="#000" stroke-linecap="round" stroke-miterlimit="10" stroke-width="3.327"/>
    <path id="Path_14682" data-name="Path 14682" d="M366.252,10399.7H442.11a41.592,41.592,0,0,0,41.592-41.59h0a41.6,41.6,0,0,0-41.592-41.6H366.252" transform="translate(696.913 -968.438)" fill="none" stroke="#000" stroke-linecap="round" stroke-miterlimit="10" stroke-width="3.327" stroke-dasharray="9.601"/>
    <path id="Path_14683" data-name="Path 14683" d="M367.654,10316.509H291.8a41.6,41.6,0,0,0-41.593,41.6h0a41.593,41.593,0,0,0,41.593,41.59h75.857" transform="translate(695.511 -968.438)" fill="none" stroke="#b3b3b3" stroke-linecap="round" stroke-miterlimit="10" stroke-width="3.327" stroke-dasharray="9.601"/>
    <path id="Path_14684" data-name="Path 14684" d="M716.608,10468.124H523.894a41.593,41.593,0,0,0-41.593,41.593v95.518" transform="translate(698.314 -966.607)" fill="none" stroke="#000" stroke-linecap="round" stroke-miterlimit="10" stroke-width="3.2" stroke-dasharray="18.145"/>
    <path id="Path_14685" data-name="Path 14685" d="M482.3,10605.234v19.739a41.594,41.594,0,0,0,41.593,41.594H792.467a41.594,41.594,0,0,0,41.593-41.594v-115.257a41.593,41.593,0,0,0-41.593-41.593H716.608" transform="translate(698.314 -966.607)" fill="none" stroke="#b3b3b3" stroke-linecap="round" stroke-miterlimit="10" stroke-width="3.327" stroke-dasharray="9.601"/>
  </g>
</svg>
