<svg xmlns="http://www.w3.org/2000/svg" width="395.571" height="61.092" viewBox="0 0 395.571 61.092">
  <g id="Group_11" data-name="Group 11" transform="translate(0 0)">
    <g id="Group_648" data-name="Group 648" transform="translate(0 0)" opacity="0.8">
      <g id="Group_647" data-name="Group 647" transform="translate(0)">
        <path id="Path_5586" data-name="Path 5586" d="M336.436,946.2v53.845h-7.17V966.974c0-4.453-4.344-8.075-9.7-8.075a10.751,10.751,0,0,0-6.869,2.366,7.427,7.427,0,0,0-2.841,5.708v33.071h-7.17v-33.07c0-4.453-4.343-8.075-9.71-8.075h-.081c-5.361,0-9.7,3.618-9.7,8.075v33.071H276.02V946.2a6.643,6.643,0,0,1,6.644-6.644h47.129a6.644,6.644,0,0,1,6.644,6.644Z" transform="translate(-209.383 -939.557)" fill="#0d0106"/>
        <path id="Path_5587" data-name="Path 5587" d="M722.848,939.894H675.289a6.644,6.644,0,0,0-6.644,6.644v48.156a6.117,6.117,0,0,0,6.117,6.117h48.612a6.117,6.117,0,0,0,6.117-6.117V946.538A6.643,6.643,0,0,0,722.848,939.894ZM703.2,988.882a4.13,4.13,0,1,1-8.259,0V951.055a4.13,4.13,0,1,1,8.259,0Z" transform="translate(-401.356 -939.722)" fill="#0d0106"/>
        <path id="Path_5588" data-name="Path 5588" d="M406.412,946.538v54.2h7.2V990.692h46.353v10.043h7.211v-54.2a6.644,6.644,0,0,0-6.644-6.644H413.054a6.643,6.643,0,0,0-6.642,6.642Zm52.343,36.393a4.137,4.137,0,0,1-2.934,1.217H417.772a4.152,4.152,0,0,1,0-8.3h38.048a4.152,4.152,0,0,1,2.934,7.089Z" transform="translate(-273.138 -939.722)" fill="#0d0106"/>
        <path id="Path_5589" data-name="Path 5589" d="M600.154,946.541v19.286A9.133,9.133,0,0,1,595.1,974l-37.111,18.5h42.17v8.312H539.313V992.5h.075v-.035l5.512-2.751,36.658-18.245H546.323a7,7,0,0,1-7-7V946.541a6.644,6.644,0,0,1,6.644-6.644H593.51A6.644,6.644,0,0,1,600.154,946.541Z" transform="translate(-338.119 -939.724)" fill="#0d0106"/>
        <path id="Path_5590" data-name="Path 5590" d="M145.63,946.389v53.844h7.165V974.253a4.265,4.265,0,0,1,4.265-4.263h37.552a4.265,4.265,0,0,1,4.265,4.263v25.981h7.167V946.389a6.644,6.644,0,0,0-6.644-6.643H152.271a6.643,6.643,0,0,0-6.641,6.644Zm52.041,11.4a4.12,4.12,0,0,1-2.918,1.208H156.926a4.127,4.127,0,1,1,0-8.252h37.826a4.129,4.129,0,0,1,2.918,7.047Z" transform="translate(-145.63 -939.649)" fill="#0d0106"/>
        <path id="Path_5591" data-name="Path 5591" d="M860.169,946.751v54.06H837.8V957.923a6.644,6.644,0,0,0-6.644-6.644H811.8a6.644,6.644,0,0,0-6.644,6.644v42.888H797.99V944.357a4.252,4.252,0,0,1,4.252-4.252h51.284a6.644,6.644,0,0,1,6.643,6.646Z" transform="translate(-464.599 -939.826)" fill="#0d0106"/>
      </g>
    </g>
  </g>
</svg>
