<svg id="Group_642" data-name="Group 642" xmlns="http://www.w3.org/2000/svg" width="339.82" height="287.411" viewBox="0 0 339.82 287.411">
  <path id="Path_5555" data-name="Path 5555" d="M1242.06,777.208V926.937l8.292-4.52,3.349-1.825V903.173l11.273,11.277,20.69-11.277v-102.2Zm21.8,101.552c-7.461,0-13.51-11.946-13.51-26.686s6.049-26.69,13.51-26.69,13.511,11.947,13.511,26.69-6.056,26.686-13.516,26.686Z" transform="translate(-945.844 -708.368)" fill="#0d0106"/>
  <path id="Path_5556" data-name="Path 5556" d="M680.425,771.658v50.87c-7.461,0-13.5,11.952-13.5,26.69s6.044,26.686,13.5,26.686v50.871l-48.546-26.456v-102.2Z" transform="translate(-631.879 -705.513)" fill="#0d0106"/>
  <path id="Path_5557" data-name="Path 5557" d="M742.059,740.916V901.423l43.6,23.768V717.148Zm26.743,105.1a8.012,8.012,0,0,1-4.942,1.84c-7.461,0-13.5-11.947-13.5-26.686s6.044-26.69,13.5-26.69a8.017,8.017,0,0,1,4.942,1.844c5.015,3.893,8.568,13.549,8.568,24.846s-3.553,20.957-8.569,24.851Z" transform="translate(-688.571 -677.465)" fill="#0d0106"/>
  <path id="Path_5558" data-name="Path 5558" d="M842.059,686.416V899.838l43.6,23.768V662.648ZM868.8,869.074a8.011,8.011,0,0,1-4.942,1.84c-7.461,0-13.5-11.947-13.5-26.686s6.044-26.691,13.5-26.691a8.019,8.019,0,0,1,4.942,1.844c5.015,3.893,8.568,13.549,8.568,24.846S873.817,865.181,868.8,869.074Zm8.568-127.039c0,11.3-3.553,20.947-8.568,24.841a8.012,8.012,0,0,1-4.942,1.84c-7.461,0-13.5-11.947-13.5-26.68h0c0-14.74,6.044-26.686,13.5-26.686a7.99,7.99,0,0,1,4.942,1.844c5.015,3.893,8.568,13.54,8.568,24.841Z" transform="translate(-740.025 -649.423)" fill="#0d0106"/>
  <path id="Path_5559" data-name="Path 5559" d="M961.391,635.4l-19.331,10.534V912.277l19.331,10.535,24.272-13.228V648.626Zm2.476,170.395c-7.461,0-13.51-11.947-13.51-26.686s6.049-26.69,13.51-26.69,13.511,11.946,13.511,26.69-6.055,26.684-13.516,26.684Z" transform="translate(-791.481 -635.4)" fill="#0d0106"/>
  <path id="Path_5560" data-name="Path 5560" d="M1142.06,722.7V925.354l43.6-23.768V746.466Zm21.8,128.015c-7.461,0-13.511-11.946-13.511-26.686s6.049-26.69,13.511-26.69,13.511,11.947,13.511,26.69-6.056,26.684-13.516,26.684Z" transform="translate(-894.389 -680.319)" fill="#0d0106"/>
  <path id="Path_5561" data-name="Path 5561" d="M1085.663,691.96V900l-4.5,2.452-5.951,3.243-3.855,2.1-7.34-60.716-11.505-77.789,11.35,142.594-21.8,11.878V668.2l.35.189,10.1,5.5,1.088.592,8.51,70.4,12.36,74.71.743,6.161-11.345-145.669Z" transform="translate(-842.935 -652.277)" fill="#0d0106"/>
</svg>
