<svg xmlns="http://www.w3.org/2000/svg" width="330.369" height="102.389" viewBox="0 0 330.369 102.389">
  <g id="Group_888" data-name="Group 888" transform="translate(-41.816 -435.872)">
    <path id="Path_15334" data-name="Path 15334" d="M697.492,1322.579H656.972v-16.862H638.342v16.862H597.824c11.349-5.242,21.73-28.175,21.73-50.824s-11.024-47.227-21.73-50.826h40.518v47.935h18.629v-47.935h40.521c-10.706,3.594-21.732,28.17-21.732,50.826S686.143,1317.34,697.492,1322.579Z" transform="translate(-556.008 -784.959)"/>
    <path id="Path_15335" data-name="Path 15335" d="M1476.5,1220.394h-70.165v.1h-40.389c10.706,3.6,21.73,28.172,21.73,50.826s-10.38,45.582-21.73,50.824h40.518V1273.3h-.13v-4.877H1476.5a15.584,15.584,0,0,0,15.585-15.585v-16.862A15.585,15.585,0,0,0,1476.5,1220.394Zm-10.792,38.009a13.993,13.993,0,1,1,13.993-13.993A13.993,13.993,0,0,1,1465.706,1258.4Z" transform="translate(-1183.489 -784.522)"/>
    <rect id="Rectangle_308" data-name="Rectangle 308" width="0.13" height="4.877" transform="translate(222.844 483.905)"/>
    <path id="Path_15336" data-name="Path 15336" d="M1097.522,1220.929c-19.373,0-35.077,22.756-35.077,50.824,0,20.863,8.674,43,21.084,50.826V1292.47a13.993,13.993,0,0,1,27.986,0v30.109c12.41-7.83,21.084-29.963,21.084-50.826C1132.6,1243.685,1116.9,1220.929,1097.522,1220.929Zm0,43.019a13.992,13.992,0,1,1,13.993-13.993A13.993,13.993,0,0,1,1097.522,1263.948Z" transform="translate(-935.559 -784.959)"/>
    <path id="Path_15337" data-name="Path 15337" d="M1879.573,1554.238a9.022,9.022,0,1,1-9.022-9.025A9.023,9.023,0,0,1,1879.573,1554.238Z" transform="translate(-1588.333 -1049.868)" stroke="#000" stroke-miterlimit="10" stroke-width="2.485"/>
    <path id="Path_15338" data-name="Path 15338" d="M1679.037,1509.368h-65.158v48.838h18.848v-17.665h46.31a15.586,15.586,0,0,0,0-31.173Zm-10.792,24.61a9.023,9.023,0,1,1,9.022-9.022A9.022,9.022,0,0,1,1668.245,1533.978Z" transform="translate(-1386.028 -1020.586)"/>
    <path id="Path_15339" data-name="Path 15339" d="M1864.075,1233.32v40.914a14.658,14.658,0,0,1-14.658,14.658h-13.84a16.946,16.946,0,0,0-16.946,16.946v16.946h-75.163v-13.267h61.9v-89.122h3.683a9.685,9.685,0,0,1,9.685,9.685v31.581a6.72,6.72,0,0,0,6.493,6.765,6.633,6.633,0,0,0,6.775-6.632v-41.4h19.15A12.926,12.926,0,0,1,1864.075,1233.32Z" transform="translate(-1491.89 -784.522)"/>
    <path id="Path_15340" data-name="Path 15340" d="M1879.573,1554.238a9.022,9.022,0,1,1-9.022-9.025A9.023,9.023,0,0,1,1879.573,1554.238Z" transform="translate(-1588.333 -1049.868)" fill="#fff"/>
    <path id="Path_15341" data-name="Path 15341" d="M2276.466,1633.665a6.922,6.922,0,0,1-6.927-6.927,38980.952,38980.952,0,0,1-16.732,6.927,14.159,14.159,0,1,0,23.66,0Zm-5.833,8.366a6.93,6.93,0,0,1-12.927-3.467,6.987,6.987,0,0,1,2.033-4.9,6.73,6.73,0,0,1,1.433-1.1,6.93,6.93,0,0,1,8.366,1.1,6.761,6.761,0,0,1,1.094,1.439,6.895,6.895,0,0,1,0,6.927Z" transform="translate(-1906.314 -1114.805)"/>
  </g>
</svg>
