<svg xmlns="http://www.w3.org/2000/svg" width="48.547" height="48.415" viewBox="0 0 48.547 48.415">
  <g id="Group_887" data-name="Group 887" transform="translate(-315.883 -3905.79)">
    <path id="Path_15323" data-name="Path 15323" d="M475.269,4147.606a11.406,11.406,0,0,1-7.589.158c-.074-.024-.148-.05-.222-.077a21.373,21.373,0,0,1-4.674-2.4,51.288,51.288,0,0,1-9.7-8.883c.3-1.024.548-1.945.733-2.679.048-.19.1-.379.146-.57a60.478,60.478,0,0,0,9.36,6.433,30.9,30.9,0,0,0,5.692,2.546c4.008,1.278,7.961,1.324,11.3-.922a4.593,4.593,0,1,1,2.825-4.45s0,0,0,0C483.265,4143.008,478.831,4146.279,475.269,4147.606Z" transform="translate(-122.165 -201.989)" fill="lime" stroke="#000" stroke-miterlimit="10" stroke-width="1"/>
    <path id="Path_15324" data-name="Path 15324" d="M547.993,4256.2c-1.411,4.741-2.771,8.355-3.557,7.971-1.416-.692-1.336-6.488-1.116-10.37A21.414,21.414,0,0,0,547.993,4256.2Z" transform="translate(-202.7 -310.5)" fill="lime" stroke="#000" stroke-miterlimit="10" stroke-width="1"/>
    <path id="Path_15325" data-name="Path 15325" d="M404.181,3948.459c-.519,1.488-.961,2.84-1.3,3.905-12.375-4.617-5.435-15.346-5.318-15.524a14.975,14.975,0,0,0-.567,2.2,7.908,7.908,0,0,0,5.7,9.046Q403.38,3948.271,404.181,3948.459Z" transform="translate(-70.724 -27.238)" fill="lime" stroke="#000" stroke-miterlimit="10" stroke-width="1"/>
    <path id="Path_15326" data-name="Path 15326" d="M558.441,4094.7c-.414,1.825-1.8,7.84-3.369,13.762a30.838,30.838,0,0,1-5.692-2.546c.28-2.375.721-6.4,1.041-10.583q1.161.061,2.242.044c.022,5.411.043,10.143.051,10.323a1.3,1.3,0,0,0,.111.606c.193.362.437-1.27.437-1.27.532-3.723,1.121-6.964,1.729-9.779A24.806,24.806,0,0,0,558.441,4094.7Z" transform="translate(-208.227 -168.315)" fill="lime" stroke="#000" stroke-miterlimit="10" stroke-width="1"/>
    <path id="Path_15327" data-name="Path 15327" d="M344.419,3923.24c-.023-6.037-.044-11.619-.044-11.619s.29-5.728-3.14-4.241c-2.675,1.159-5.789,8.835-7.779,14.531-.519,1.487-.961,2.839-1.3,3.9-.1.3-.184.584-.263.837q-.6,1.95-1.393,3.83c-.032.078-.065.154-.1.23a44.352,44.352,0,0,1-4.876-4.928c-3.4-3.827-6.287,3.082-6.287,3.082a48.751,48.751,0,0,0-1.685,5.429,44.589,44.589,0,0,0-1.078,5.4,10.89,10.89,0,0,0,.137,3.719c.494,2.141,1.854,4.747,5.546,4.747,4.2,0,7.218-7.869,8.754-13.062.3-1.024.548-1.945.733-2.679.048-.189.1-.38.146-.57.018-.069.035-.136.053-.206q.711-2.725,1.592-5.4c.03-.091.06-.182.09-.272.388-1.161.839-2.452,1.334-3.765,1.75-4.655,4.042-9.6,6.023-10.1,1.667-.425,1.882,4.9,1.594,11.044Q343.415,3923.208,344.419,3923.24Zm-22.045,16.11c-4.154-1.523-2.1-7.744-1.7-9.186,0,0,1.7-5.529,4.541-2.224.516.6.822,1.317,4.041,5.216C327.509,3936.554,324.933,3940.289,322.373,3939.35Z" transform="translate(0 -0.69)" fill="lime" stroke="#000" stroke-miterlimit="10" stroke-width="1"/>
    <path id="Path_15328" data-name="Path 15328" d="M497.978,3907.952a16.43,16.43,0,0,0-2.051,2.416s-2.338,3.05-4.733,12.138c-1.082.085-1.769.078-1.769.078q-.839-.009-1.634-.033-1-.031-1.94-.087a56.005,56.005,0,0,1-7.616-.941c-.5,1.313-.946,2.6-1.334,3.765-.031.09-.061.181-.09.272a34.916,34.916,0,0,0,6.086,1.227q1.386.166,2.67.232,1.161.06,2.242.044,1.212-.016,2.327-.12a24.77,24.77,0,0,0,3.451-.558,17.659,17.659,0,0,0,13.71-14.216c0-.069,0-.136,0-.2A5.477,5.477,0,0,0,497.978,3907.952Zm6.242,7.445c-1.448,4.06-5.827,5.828-9.448,6.6,1.3-4.1,3.771-10.075,7.2-10.6C501.968,3911.395,505.918,3910.636,504.22,3915.4Z" transform="translate(-143.372 0)" fill="lime" stroke="#000" stroke-miterlimit="10" stroke-width="1"/>
    <path id="Path_15329" data-name="Path 15329" d="M414.751,3936.82v0" transform="translate(-87.91 -27.22)" fill="lime" stroke="#000" stroke-miterlimit="10" stroke-width="1"/>
    <path id="Path_15330" data-name="Path 15330" d="M437.48,4131.371q.1-.187.188-.37.512-1.022.959-2.072" transform="translate(-108.224 -198.904)" fill="lime" stroke="#000" stroke-miterlimit="10" stroke-width="1"/>
    <path id="Path_15331" data-name="Path 15331" d="M709.2,4215.37l-.016.011" transform="translate(-351.038 -276.156)" fill="lime" stroke="#000" stroke-miterlimit="10" stroke-width="1"/>
    <path id="Path_15332" data-name="Path 15332" d="M752.529,4174.574" transform="translate(-389.778 -239.697)" fill="lime" stroke="#000" stroke-miterlimit="10" stroke-width="1"/>
    <path id="Path_15333" data-name="Path 15333" d="M612.11,4053.9a28.177,28.177,0,0,0,3.578-.513" transform="translate(-264.288 -131.396)" fill="lime" stroke="#000" stroke-miterlimit="10" stroke-width="1"/>
  </g>
</svg>
