<svg xmlns="http://www.w3.org/2000/svg" width="395.571" height="77.951" viewBox="0 0 395.571 77.951">
  <g id="Group_652" data-name="Group 652" transform="translate(0 0)">
    <g id="Group_651" data-name="Group 651" transform="translate(0 0)">
      <g id="Group_649" data-name="Group 649" transform="translate(123.591 2.639)">
        <path id="Path_5592" data-name="Path 5592" d="M487.244,624.9h7.7v5.577q5.812-6.755,15.71-6.755a20.564,20.564,0,0,1,10.173,2.513,18.083,18.083,0,0,1,7.073,7.03,22.733,22.733,0,0,1,0,20.934,18.063,18.063,0,0,1-7.03,7.073,20.505,20.505,0,0,1-10.217,2.514,24.309,24.309,0,0,1-8.8-1.572,16.147,16.147,0,0,1-6.68-4.634v22.23h-7.934ZM515.8,655.815a12.172,12.172,0,0,0,4.87-4.831,14.482,14.482,0,0,0,1.767-7.227,14.278,14.278,0,0,0-1.767-7.187,12.258,12.258,0,0,0-4.87-4.791,14.307,14.307,0,0,0-6.952-1.688A14.54,14.54,0,0,0,500.4,632.6a13.772,13.772,0,0,0-5.224,6.912V648a12.741,12.741,0,0,0,5.108,6.914,14.755,14.755,0,0,0,8.563,2.592,14.3,14.3,0,0,0,6.947-1.693Z" transform="translate(-487.239 -604.559)" fill="#0d0106"/>
        <path id="Path_5593" data-name="Path 5593" d="M603.449,679.082v-6.2a14.081,14.081,0,0,0,5.027.786,6.345,6.345,0,0,0,4.323-1.375,11.8,11.8,0,0,0,2.828-4.438l1.806-4.4-16.495-36.762h8.169l12.575,28.986,11.7-28.986h8.17l-16.967,41.945a21.229,21.229,0,0,1-5.617,8.6,12.77,12.77,0,0,1-8.445,2.71,24.575,24.575,0,0,1-7.078-.865Z" transform="translate(-555.764 -606.344)" fill="#0d0106"/>
        <path id="Path_5594" data-name="Path 5594" d="M721.882,645.111q-3.1-3.3-3.1-9.347V615.655h-5.734v-6.127h5.734V598.217h8.012v11.311h9.269v6.127h-9.269v19.559q0,3.77,1.453,5.341t5.3,1.572a11.056,11.056,0,0,0,4.556-1.02v6.287a23.058,23.058,0,0,1-7.384,1.02,11.543,11.543,0,0,1-8.836-3.3Z" transform="translate(-623.335 -589.184)" fill="#0d0106"/>
        <path id="Path_5595" data-name="Path 5595" d="M794.9,575.479h7.934v25.529a18.031,18.031,0,0,1,14.453-6.362q7.541,0,11.232,4.005a15.258,15.258,0,0,1,3.692,10.762v24.12H824.28V610.2q0-9.19-8.8-9.19a14.516,14.516,0,0,0-7.03,1.767,15.678,15.678,0,0,0-5.617,5.381v25.377H794.9Z" transform="translate(-672.672 -575.479)" fill="#0d0106"/>
        <path id="Path_5596" data-name="Path 5596" d="M916.866,661.39a17.825,17.825,0,0,1-7.541-6.912,20.3,20.3,0,0,1-2.71-10.644,20.581,20.581,0,0,1,2.671-10.61,17.956,17.956,0,0,1,7.541-7.03,26.736,26.736,0,0,1,22.465,0,18.224,18.224,0,0,1,7.58,7.03,22.178,22.178,0,0,1,0,21.248,17.778,17.778,0,0,1-7.58,6.912,25.141,25.141,0,0,1-11.232,2.4A24.884,24.884,0,0,1,916.866,661.39Zm20.934-7.659a15.577,15.577,0,0,0,0-19.952,14.7,14.7,0,0,0-19.48,0,15.578,15.578,0,0,0,0,19.952A14.467,14.467,0,0,0,937.8,653.731Z" transform="translate(-740.006 -604.559)" fill="#0d0106"/>
        <path id="Path_5597" data-name="Path 5597" d="M1036.522,624.9h7.7v5.42a16.108,16.108,0,0,1,6.558-4.988,21.061,21.061,0,0,1,8.13-1.61q7.541,0,11.233,4.006a15.26,15.26,0,0,1,3.685,10.764V662.61h-7.934V639.28q0-9.19-8.8-9.19a14.515,14.515,0,0,0-7.03,1.767,15.675,15.675,0,0,0-5.617,5.381V662.61h-7.934Z" transform="translate(-818.305 -604.558)" fill="#0d0106"/>
      </g>
      <g id="Group_650" data-name="Group 650" transform="translate(379.431)">
        <path id="Path_5598" data-name="Path 5598" d="M1133.881,569.891h-2.667v-1.057h6.6v1.057h-2.667v7.534h-1.265Z" transform="translate(-1131.214 -568.834)" fill="#0d0106"/>
        <path id="Path_5599" data-name="Path 5599" d="M1150.14,568.834h1.254l3.06,6.7,3.061-6.7h1.254v8.591h-1.217v-6.109l-2.79,6.109h-.614l-2.8-6.109v6.109h-1.205Z" transform="translate(-1142.628 -568.834)" fill="#0d0106"/>
      </g>
      <path id="Path_5600" data-name="Path 5600" d="M262.673,622.859H197.645a21.515,21.515,0,0,0-21.517,21.52v22.165h56.489v12.8H276.3V636.491a13.631,13.631,0,0,0-13.624-13.632Zm-68.425,23.352a7.841,7.841,0,1,1,7.836-7.847,7.841,7.841,0,0,1-7.836,7.847Z" transform="translate(-176.128 -601.397)" fill="#0d0106"/>
    </g>
  </g>
</svg>
