<svg xmlns="http://www.w3.org/2000/svg" width="395.571" height="180.061" viewBox="0 0 395.571 180.061">
  <g id="Group_641" data-name="Group 641" transform="translate(0 0)">
    <rect id="Rectangle_266" data-name="Rectangle 266" width="156.467" height="100.116" transform="translate(0 79.946)" fill="#0d0106"/>
    <rect id="Rectangle_267" data-name="Rectangle 267" width="34.621" height="81.381" rx="13.216" transform="translate(60.924 64.745)" fill="#fff8f0"/>
    <ellipse id="Ellipse_12" data-name="Ellipse 12" cx="44.513" cy="44.513" rx="44.513" ry="44.513" transform="translate(33.722 0)" fill="#0d0106"/>
    <g id="Group_639" data-name="Group 639" transform="translate(179.362 82.745)">
      <path id="Path_5545" data-name="Path 5545" d="M907.771,493.41a9.326,9.326,0,0,1-3.155-2.815,6.77,6.77,0,0,1-.845-3.556,6.55,6.55,0,0,1,1.007-3.378,5.081,5.081,0,0,1,4.322-2.549,9.823,9.823,0,0,1,2.134.237l2.667.711,2.43.622,1.749.415.655.178q.655.089,1.038.178a12.9,12.9,0,0,0,2.134.207,4.97,4.97,0,0,0,1.688-.262,4.388,4.388,0,0,0,1.453-.655,1.3,1.3,0,0,0,.563-1.037,1.179,1.179,0,0,0-.622-1.037,4.465,4.465,0,0,0-.474-.178l-1.155-.415-.772-.237-3.23-.8-.622-.118-4-1.155a20.727,20.727,0,0,1-5.571-2.312,11.1,11.1,0,0,1-3.808-4.119,11.49,11.49,0,0,1-1.349-5.512,13.455,13.455,0,0,1,3.586-9.068,16.2,16.2,0,0,1,5.067-3.674,22.216,22.216,0,0,1,6.993-1.956,27.615,27.615,0,0,1,3.171-.178,23.511,23.511,0,0,1,6.49.889,16.279,16.279,0,0,1,5.109,2.326,6.177,6.177,0,0,1,2.237,3.216,8.909,8.909,0,0,1,.3,2.134,5.442,5.442,0,0,1-.977,3.26,5.932,5.932,0,0,1-2.03,1.927,5.58,5.58,0,0,1-2.711.622,14.041,14.041,0,0,1-3.763-.593l-.474-.178-1.749-.563-.741-.178-1.69-.415-.859-.207-.593-.119c-.118-.02-.232-.034-.341-.044s-.262-.014-.46-.014a3.837,3.837,0,0,0-2.312.5,1.321,1.321,0,0,0-.533,1.037.786.786,0,0,0,.355.655,3.051,3.051,0,0,0,.978.415l1.155.326.414.119,1.216.3,2.016.474,4,1.155A30.243,30.243,0,0,1,933.131,470a12.654,12.654,0,0,1,2.889,2,12.082,12.082,0,0,1,2.134,2.62,11.708,11.708,0,0,1,1.289,2.993,12.382,12.382,0,0,1,.414,3.23,13.422,13.422,0,0,1-3.406,8.861q-5.216,6.312-15.409,6.312-.77,0-2.608-.118Q911.238,495.484,907.771,493.41Z" transform="translate(-903.765 -450.884)" fill="#0d0106"/>
      <path id="Path_5546" data-name="Path 5546" d="M1021.753,491.772a6.659,6.659,0,0,1-.563-2.667V459.323a7.23,7.23,0,0,1,.917-3.615,6.752,6.752,0,0,1,2.519-2.563,7.037,7.037,0,0,1,3.615-.934h16.683a5.594,5.594,0,0,1,2.89.815,6.112,6.112,0,0,1,2.193,2.208,6.049,6.049,0,0,1,.814,3.111,6.232,6.232,0,0,1-3.013,5.37,5.728,5.728,0,0,1-3.013.829h-9.6v3.7h7.913a6.786,6.786,0,0,1,4.652,1.926,5.173,5.173,0,0,1,1.364,1.852,5.517,5.517,0,0,1,.474,2.237,5.675,5.675,0,0,1-1.9,4.237,6.813,6.813,0,0,1-4.535,1.749H1035.2v3.823h9.127a6.592,6.592,0,0,1,4.715,1.9,5.034,5.034,0,0,1,1.422,1.941,6.088,6.088,0,0,1,.475,2.358,5.667,5.667,0,0,1-1.834,4.267,6.757,6.757,0,0,1-4.594,1.808h-16.328a6.4,6.4,0,0,1-3.719-1.23,7.938,7.938,0,0,1-2.707-3.341Z" transform="translate(-982.716 -451.735)" fill="#0d0106"/>
      <path id="Path_5547" data-name="Path 5547" d="M1122.868,486.975a25.582,25.582,0,0,1-3.69-6.845,21.263,21.263,0,0,1-1.289-7.112,20.061,20.061,0,0,1,1.319-7.038,24.088,24.088,0,0,1,3.838-6.68,22.444,22.444,0,0,1,14.817-8.179,34.332,34.332,0,0,1,4.8-.356,22.123,22.123,0,0,1,5.927.726,13.955,13.955,0,0,1,4.312,1.927,8.592,8.592,0,0,1,2.549,2.652,5.984,5.984,0,0,1,.845,3.053,5.561,5.561,0,0,1-1.214,3.645,6.052,6.052,0,0,1-1.911,1.749,5.4,5.4,0,0,1-2.5.5,14.716,14.716,0,0,1-2.075-.119,25.484,25.484,0,0,1-4.237-1.275,12.051,12.051,0,0,0-3.23-.356,9.232,9.232,0,0,0-6,2.03,9.954,9.954,0,0,0-3.333,5.852,9.851,9.851,0,0,0-.178,1.927,12.21,12.21,0,0,0,1.778,6.287,7.186,7.186,0,0,0,2.9,2.62,9.224,9.224,0,0,0,4.12.874,21.857,21.857,0,0,0,6.964-1.392,1.937,1.937,0,0,1,.262-.089q.207-.059.355-.089a10.083,10.083,0,0,1,2.252-.237,5.885,5.885,0,0,1,4.594,1.867,5.8,5.8,0,0,1,1.511,3.822,6.725,6.725,0,0,1-1.274,3.763,11.566,11.566,0,0,1-5.867,4.061,19.886,19.886,0,0,1-7.35,1.216,31.16,31.16,0,0,1-4.563-.356,21.76,21.76,0,0,1-10.965-4.92,24.5,24.5,0,0,1-3.465-3.53Z" transform="translate(-1047.741 -450.763)" fill="#0d0106"/>
      <path id="Path_5548" data-name="Path 5548" d="M1250.625,496.864a7.187,7.187,0,0,1-6.993-7.141v-30.1a8.518,8.518,0,0,1,.874-3.986,6.033,6.033,0,0,1,2.444-2.548,7.7,7.7,0,0,1,3.8-.875h13.305a19.649,19.649,0,0,1,7.38,1.289,13.058,13.058,0,0,1,5.239,3.734,13.933,13.933,0,0,1,2.845,5.911,17.855,17.855,0,0,1,.474,3.822,12.247,12.247,0,0,1-4.12,9.693l-.237.262-1.392,1.1-.859.655,5.157,6.845a7.157,7.157,0,0,1,1.512,4.446,6.848,6.848,0,0,1-.756,3.126,7.182,7.182,0,0,1-2.207,2.564,6.746,6.746,0,0,1-4,1.363q-3.8,0-6.43-4.03l-9.068-13.453v10.373a6.771,6.771,0,0,1-.934,3.526,7.074,7.074,0,0,1-2.5,2.5,6.768,6.768,0,0,1-3.527.926Zm7.024-27.114h5.838a2.276,2.276,0,0,0,1.763-.815,3.022,3.022,0,0,0,.726-2.089,2.4,2.4,0,0,0-.711-1.69,2.128,2.128,0,0,0-1.541-.681h-6.075Z" transform="translate(-1132.289 -451.736)" fill="#0d0106"/>
      <path id="Path_5549" data-name="Path 5549" d="M1363.693,491.772a6.654,6.654,0,0,1-.563-2.667V459.323a7.237,7.237,0,0,1,.917-3.615,6.749,6.749,0,0,1,2.519-2.563,7.041,7.041,0,0,1,3.615-.934h16.683a5.6,5.6,0,0,1,2.89.815,6.12,6.12,0,0,1,2.192,2.208,6.054,6.054,0,0,1,.814,3.111,6.231,6.231,0,0,1-3.013,5.37,5.724,5.724,0,0,1-3.013.829h-9.6v3.7h7.913a6.789,6.789,0,0,1,4.653,1.926,5.179,5.179,0,0,1,1.364,1.852,5.519,5.519,0,0,1,.474,2.237,5.675,5.675,0,0,1-1.9,4.237,6.811,6.811,0,0,1-4.535,1.749h-7.972v3.823h9.127a6.592,6.592,0,0,1,4.715,1.9,5.033,5.033,0,0,1,1.422,1.941,6.094,6.094,0,0,1,.474,2.358,5.666,5.666,0,0,1-1.834,4.267,6.755,6.755,0,0,1-4.594,1.808h-16.328a6.4,6.4,0,0,1-3.719-1.23A7.939,7.939,0,0,1,1363.693,491.772Z" transform="translate(-1212.641 -451.735)" fill="#0d0106"/>
      <path id="Path_5550" data-name="Path 5550" d="M1454.67,458.223a6.466,6.466,0,0,1,.859-3.068,5.894,5.894,0,0,1,5.127-2.948h23.737a5.68,5.68,0,0,1,3.052.845,6.166,6.166,0,0,1,2.164,2.282,6.326,6.326,0,0,1,.8,3.127,6.077,6.077,0,0,1-1.866,4.268,5.734,5.734,0,0,1-4.149,1.749h-5.1V489.9a6.634,6.634,0,0,1-.934,3.482,7.152,7.152,0,0,1-2.489,2.489,6.639,6.639,0,0,1-3.482.934,6.846,6.846,0,0,1-6.061-3.5,6.976,6.976,0,0,1-.934-3.527v-25.42h-4.8a5.6,5.6,0,0,1-4.192-1.808,6.025,6.025,0,0,1-1.742-4.33Z" transform="translate(-1274.2 -451.736)" fill="#0d0106"/>
    </g>
    <g id="Group_640" data-name="Group 640" transform="translate(180.315 134.712)">
      <path id="Path_5551" data-name="Path 5551" d="M908.8,652.373a8.528,8.528,0,0,1-2.134-5.6V616.6a7.183,7.183,0,0,1,1.2-4.06,6.8,6.8,0,0,1,3.185-2.608,6.547,6.547,0,0,1,2.548-.533,8.024,8.024,0,0,1,6.016,3.319l15.41,18.291V616.6a6.874,6.874,0,0,1,2.1-5.038,6.769,6.769,0,0,1,4.918-2.045,7.209,7.209,0,0,1,2.712.524,5.958,5.958,0,0,1,2.208,1.526,6.716,6.716,0,0,1,1.512,2.267,7.134,7.134,0,0,1,.563,2.77v30.912a12.61,12.61,0,0,1-.119,1.392,6.5,6.5,0,0,1-1.319,2.92,7.129,7.129,0,0,1-2.474,2,7.048,7.048,0,0,1-3.143.711,6.8,6.8,0,0,1-3.645-1.007A7.366,7.366,0,0,1,936.589,652l-15.913-19.529v15a6.878,6.878,0,0,1-11.883,4.919Z" transform="translate(-906.662 -609.402)" fill="#0d0106"/>
      <path id="Path_5552" data-name="Path 5552" d="M1047.263,650.594a6.667,6.667,0,0,1-.563-2.667V618.145a7.238,7.238,0,0,1,.917-3.615,6.75,6.75,0,0,1,2.519-2.563,7.04,7.04,0,0,1,3.615-.934h16.684a5.592,5.592,0,0,1,2.89.815,6.244,6.244,0,0,1,0,10.683,5.725,5.725,0,0,1-3.013.829h-9.6v3.7h7.913a6.787,6.787,0,0,1,4.653,1.927,5.172,5.172,0,0,1,1.364,1.852,5.521,5.521,0,0,1,.474,2.237,5.674,5.674,0,0,1-1.9,4.237,6.812,6.812,0,0,1-4.533,1.749h-7.968v3.822h9.127a6.591,6.591,0,0,1,4.715,1.9,5.032,5.032,0,0,1,1.422,1.941,6.094,6.094,0,0,1,.474,2.358,5.663,5.663,0,0,1-1.833,4.268,6.755,6.755,0,0,1-4.594,1.807H1053.7a6.394,6.394,0,0,1-3.719-1.23,7.942,7.942,0,0,1-2.717-3.335Z" transform="translate(-1000.822 -610.497)" fill="#0d0106"/>
      <path id="Path_5553" data-name="Path 5553" d="M1152.025,655.691a7.187,7.187,0,0,1-6.993-7.141V618.441a8.506,8.506,0,0,1,.875-3.986,6.03,6.03,0,0,1,2.444-2.549,7.7,7.7,0,0,1,3.8-.874h13.305a19.649,19.649,0,0,1,7.379,1.289,13.059,13.059,0,0,1,5.239,3.734,13.932,13.932,0,0,1,2.845,5.911,17.834,17.834,0,0,1,.474,3.822,12.248,12.248,0,0,1-4.119,9.693l-.237.262-1.392,1.1-.859.655,5.157,6.845a7.156,7.156,0,0,1,1.512,4.444,6.847,6.847,0,0,1-.755,3.126,7.176,7.176,0,0,1-2.209,2.564,6.745,6.745,0,0,1-4,1.364q-3.8,0-6.43-4.03l-9.068-13.453v10.371a6.768,6.768,0,0,1-.934,3.526,7.062,7.062,0,0,1-2.5,2.5A6.77,6.77,0,0,1,1152.025,655.691Zm7.024-27.114h5.838a2.277,2.277,0,0,0,1.763-.815,3.024,3.024,0,0,0,.725-2.089,2.4,2.4,0,0,0-.712-1.688,2.126,2.126,0,0,0-1.54-.681h-6.075Z" transform="translate(-1066.94 -610.497)" fill="#0d0106"/>
      <path id="Path_5554" data-name="Path 5554" d="M1264.53,647.986V618.145a7.221,7.221,0,0,1,.934-3.571,6.68,6.68,0,0,1,2.578-2.608,7.059,7.059,0,0,1,3.537-.934h9.6a35.433,35.433,0,0,1,9.2,1.112,22.72,22.72,0,0,1,7.2,3.26,19.548,19.548,0,0,1,5.127,5.26,22.362,22.362,0,0,1,3.039,7.17,24.944,24.944,0,0,1,.592,5.482,22.17,22.17,0,0,1-3.052,11.172,20.8,20.8,0,0,1-8.223,7.838,24.456,24.456,0,0,1-11.779,2.831h-11.765a6.638,6.638,0,0,1-4.934-2.119,6.993,6.993,0,0,1-2.059-5.052Zm14.015-5.038h3.348a11.829,11.829,0,0,0,5.5-1.23,9.169,9.169,0,0,0,3.719-3.423,9.28,9.28,0,0,0,1.333-4.92,12.119,12.119,0,0,0-.3-2.489,8.662,8.662,0,0,0-3.556-5.512,12.042,12.042,0,0,0-7.23-2.075h-2.815Z" transform="translate(-1147.292 -610.497)" fill="#0d0106"/>
    </g>
  </g>
</svg>
