<svg xmlns="http://www.w3.org/2000/svg" width="339.82" height="70.336" viewBox="0 0 339.82 70.336">
  <g id="Group_645" data-name="Group 645" transform="translate(0 0)">
    <path id="Path_5572" data-name="Path 5572" d="M386.788,567.621H372.835s-.817-26.61-2.2-36.407l7.592-.817s2.612,14.734,3.346,16.06c0,0-3.51-7.572,2.285-12.142a9.194,9.194,0,0,1,5.2-2.26,4.3,4.3,0,0,1,4.346,3.3c.788,3.263,2.684,9.547,5.309,8.021,3.51-2.041,7.917-4.163,7.917-4.163v10.755s-10.286,3.263-11.653,2.489a41.93,41.93,0,0,1-3.242-3.109,3.486,3.486,0,0,0-1.144-.788c-1.531-.644-4.687-.953-4.655,7.427C385.972,567.049,386.788,567.621,386.788,567.621Z" transform="translate(-266.282 -498.943)" fill="#0d0106"/>
    <path id="Path_5573" data-name="Path 5573" d="M902.083,567.621H888.124s-.817-26.61-2.2-36.407l7.591-.817s2.613,14.734,3.346,16.06c0,0-3.511-7.572,2.285-12.142a9.192,9.192,0,0,1,5.2-2.261,4.3,4.3,0,0,1,4.346,3.3c.788,3.263,2.682,9.548,5.309,8.021,3.51-2.041,7.918-4.163,7.918-4.163v10.755s-10.286,3.263-11.653,2.489a41.907,41.907,0,0,1-3.242-3.109,3.487,3.487,0,0,0-1.144-.788c-1.531-.644-4.686-.953-4.655,7.427C901.266,567.049,902.083,567.621,902.083,567.621Z" transform="translate(-582.098 -498.943)" fill="#0d0106"/>
    <path id="Path_5574" data-name="Path 5574" d="M497.874,555.651s2.571,6.734-.961,11.365a5.217,5.217,0,0,1-.573.543c-1.261,1.071-4.382,3.306-7.283,3.279-12.612-.123-11.755-14.2-11.755-14.2S476.69,541.7,489.67,540.1s16.9,3.071,16.9,3.071,2.694,2.363-1.35,11.582,6.734,6.526,6.734,6.526v8.327s-4.285,4.285-13.1-.49l-2.607-1.485" transform="translate(-331.656 -504.686)" fill="#0d0106"/>
    <path id="Path_5576" data-name="Path 5576" d="M587.292,571.519V558.354s9.321,5.976,14.68,1.688a4,4,0,0,0,1.339-1.949c.511-1.669.639-4.666-4.774-5.147a5.073,5.073,0,0,0-1.1.02,51.286,51.286,0,0,0-7.634,1.591c-4.1,1.224-4.041-5.142-4.041-5.142s-.918-6.122,6.976-8.327,25.529-1.494,25.529-1.494v8.29s-2.388,2.326-7.04-.857c0,0-3.348-2.49-4.2.081s3.224,5.673,3.224,5.673,10.668,6.489,6,10.775a39.117,39.117,0,0,1-12.857,7.959C596.087,574.046,587.292,571.519,587.292,571.519Z" transform="translate(-398.115 -504.515)" fill="#0d0106"/>
    <path id="Path_5577" data-name="Path 5577" d="M698.113,534.789s-3.263,2.967-5.551,2.967a16.09,16.09,0,0,1-5.063-1.143s-4.571,1.47-6.694-55.181c0,0,5.063-2.122,7.673-1.061s4.9,35.535,4.9,35.535.98-7.681,11.836-9.323,5.142,14.439,5.142,14.439-2.1,6.673,6.8,3.286c.536-.25.978-.085.952-4.368a.5.5,0,0,1,.675-.463,7.576,7.576,0,0,0,3.475.267.4.4,0,0,1,.385.6,14.972,14.972,0,0,0-.126,14.441s-10.04,8.214-18.448,0c0,0-1.449-.727-.653-9.236s-4.224-3.918-4.224-3.918a6.011,6.011,0,0,0-2.326,5.265A49.4,49.4,0,0,0,698.113,534.789Z" transform="translate(-456.387 -468.103)" fill="#0d0106"/>
    <path id="Path_5578" data-name="Path 5578" d="M269.271,534.789s-3.263,2.967-5.551,2.967a16.089,16.089,0,0,1-5.064-1.143s-4.571,1.47-6.694-55.181c0,0,5.063-2.122,7.673-1.061s4.9,35.535,4.9,35.535.98-7.681,11.836-9.323,5.142,14.439,5.142,14.439-2.1,6.673,6.8,3.286c.537-.25.978-.085.952-4.368a.5.5,0,0,1,.675-.463,7.576,7.576,0,0,0,3.475.267.4.4,0,0,1,.385.6,14.965,14.965,0,0,0-.126,14.441s-10.04,8.214-18.448,0c0,0-1.449-.727-.653-9.236s-4.224-3.918-4.224-3.918a6.011,6.011,0,0,0-2.326,5.265,49.437,49.437,0,0,0,1.249,7.89Z" transform="translate(-193.558 -468.103)" fill="#0d0106"/>
    <path id="Path_5579" data-name="Path 5579" d="M814.735,572.441s-14.693-.653-14.693-18.53,24.325-13.061,24.325-13.061l1.47,13.143s-13.39.082-13.877,4.653.98,5.633.98,5.633,4.546,3.067,6.938-3.51c2.153-5.919,7.834-1.715,8.95-.812a.519.519,0,0,1,.192.405V567.2a.3.3,0,0,1-.563.165c-.835-1.3-2.554-2.887-4.828.75a9.237,9.237,0,0,1-8.894,4.327Z" transform="translate(-529.467 -504.987)" fill="#0d0106"/>
    <path id="Path_5581" data-name="Path 5581" d="M154.74,508.438v9.387s-19.428,4.816-23.02-5.469-3.755-28.235-3.755-28.235-7.51-4.09-11.265-.825,0-10.612,0-10.612-.326-4.735,11.1,2.612c0,0,5.307,2.776-.694-10.143s-20.387,10.286-20.387,10.286l-5.633-3.122s22.955-41.08,39.916-13.84a35.9,35.9,0,0,1,2.451,15.374s-1.53,2.2,12,1.1c0,0-2.939,2.755,0,7.469,0,0-14.265-1-13.693,1.125,0,0-.489,5.064,2.531,24.815C144.291,508.356,143.965,512.519,154.74,508.438Z" transform="translate(-101.088 -449.146)" fill="#0d0106"/>
    <path id="Path_5575" data-name="Path 5575" d="M508.585,565.327c0,2.609-1.18,4.726-3.79,4.726a4.726,4.726,0,0,1-4.726-4.726c0-2.609,2.115-4.142,4.726-4.142S508.585,562.719,508.585,565.327Z" transform="translate(-345.618 -517.812)" fill="#fff"/>
    <path id="Path_5580" data-name="Path 5580" d="M835.1,554.991c0,1.995-2.742,3.612-5.142,3.612s-4.347-1.617-4.347-3.612,1.946-3.612,4.347-3.612S835.1,553,835.1,554.991Z" transform="translate(-545.137 -511.802)" fill="#fff"/>
  </g>
</svg>
